STARTFONT 2.1
FONT -FontForge-Good Times Rg-Book-R-Normal--104-1000-75-75-P-772-ISO10646-1
SIZE 100 75 75
FONTBOUNDINGBOX 207 124 -29 -22
COMMENT "Generated by fontforge, http://fontforge.sourceforge.net"
COMMENT "(c) 1998-2012 Typodermic Fonts Inc. See attached license agreement. If agreement is missing visit typodermicfonts.com for more info. Languages by Chikako Larabie"
STARTPROPERTIES 39
FOUNDRY "FontForge"
FAMILY_NAME "Good Times Rg"
WEIGHT_NAME "Book"
SLANT "R"
SETWIDTH_NAME "Normal"
ADD_STYLE_NAME ""
PIXEL_SIZE 104
POINT_SIZE 1000
RESOLUTION_X 75
RESOLUTION_Y 75
SPACING "P"
AVERAGE_WIDTH 772
CHARSET_REGISTRY "ISO10646"
CHARSET_ENCODING "1"
FONTNAME_REGISTRY ""
CHARSET_COLLECTIONS "ISO8859-2 ISO8859-9 ISO8859-4 ISO10646-1"
FONT_NAME "GoodTimesRg-Regular"
FACE_NAME "GoodTimesRg-Regular"
COPYRIGHT "(c) 1998-2012 Typodermic Fonts Inc. See attached license agreement. If agreement is missing visit typodermicfonts.com for more info. Languages by Chikako Larabie"
FONT_VERSION "4.001"
FONT_ASCENT 83
FONT_DESCENT 21
UNDERLINE_POSITION -15
UNDERLINE_THICKNESS 3
X_HEIGHT 75
CAP_HEIGHT 75
RAW_ASCENT 799
RAW_DESCENT 201
NORM_SPACE 31
RELATIVE_WEIGHT 40
RELATIVE_SETWIDTH 50
SUPERSCRIPT_X 0
SUPERSCRIPT_Y 31
SUPERSCRIPT_SIZE 31
SUBSCRIPT_X 0
SUBSCRIPT_Y 0
SUBSCRIPT_SIZE 31
AVG_LOWERCASE_WIDTH 886
AVG_UPPERCASE_WIDTH 883
ENDPROPERTIES
CHARS 372
STARTCHAR space
ENCODING 32
SWIDTH 294 0
DWIDTH 31 0
BBX 1 1 0 0
BITMAP
00
ENDCHAR
STARTCHAR exclam
ENCODING 33
SWIDTH 298 0
DWIDTH 31 0
BBX 14 76 9 0
BITMAP
FFF8
FFF8
FFF8
FFF8
FFF8
FFF8
FFF8
FFF8
FFF8
FFF8
FFF8
FFF8
FFF8
FFF8
FFF8
FFF8
FFF8
FFF8
FFF8
FFF8
FFF8
FFF8
FFF8
FFF8
FFF8
FFF8
FFF8
FFF8
FFF8
FFF8
FFF8
FFF8
FFF8
FFF8
FFF8
FFF8
FFF8
FFF8
FFF8
FFF8
FFF8
FFF8
FFF8
FFF8
FFF8
FFF8
FFF8
FFF8
FFF8
FFF8
FFF8
FFF8
0000
0000
0000
0000
0000
0000
0000
0000
0000
0000
0FC0
3FE0
7FF0
FFF8
FFF8
FFFC
FFFC
FFFC
FFFC
FFF8
FFF8
7FF0
3FE0
0FC0
ENDCHAR
STARTCHAR quotedbl
ENCODING 34
SWIDTH 452 0
DWIDTH 47 0
BBX 33 27 7 49
BITMAP
FFF80FFF80
FFF80FFF80
FFF80FFF80
FFF80FFF80
FFF80FFF80
7FF80FFF00
7FF80FFF00
7FF80FFF00
7FF80FFF00
7FF80FFF00
7FF80FFF00
7FF007FF00
7FF007FF00
7FF007FF00
7FF007FF00
7FF007FF00
3FF007FE00
3FF007FE00
3FF007FE00
3FF007FE00
3FF007FE00
3FF003FE00
3FF003FE00
3FE003FE00
3FE003FE00
3FE003FE00
3FE003FE00
ENDCHAR
STARTCHAR numbersign
ENCODING 35
SWIDTH 697 0
DWIDTH 72 0
BBX 63 76 5 0
BITMAP
0000007FE0003FF0
0000007FE0003FE0
0000007FC0003FE0
000000FFC0007FE0
000000FFC0007FC0
000000FF80007FC0
000000FF8000FFC0
000001FF8000FFC0
000001FF0000FF80
000001FF0000FF80
000003FF0001FF80
000003FF0001FF00
000003FE0001FF00
000007FE0003FF00
000007FE0003FE00
000007FC0003FE00
000007FC0007FE00
00000FFC0007FC00
00000FF80007FC00
00FFFFFFFFFFFFFE
00FFFFFFFFFFFFFE
00FFFFFFFFFFFFFE
00FFFFFFFFFFFFFE
00FFFFFFFFFFFFFE
00FFFFFFFFFFFFFE
00FFFFFFFFFFFFFE
00FFFFFFFFFFFFFE
00FFFFFFFFFFFFFE
00007FC0003FE000
00007FC0007FE000
0000FFC0007FE000
0000FF80007FC000
0000FF80007FC000
0001FF8000FFC000
0001FF0000FF8000
0001FF0000FF8000
0003FF0001FF8000
0003FF0001FF0000
0003FE0001FF0000
0003FE0003FF0000
0007FE0003FF0000
0007FC0003FE0000
0007FC0003FE0000
000FFC0007FE0000
000FF80007FC0000
000FF80007FC0000
FFFFFFFFFFFFFE00
FFFFFFFFFFFFFE00
FFFFFFFFFFFFFE00
FFFFFFFFFFFFFE00
FFFFFFFFFFFFFE00
FFFFFFFFFFFFFE00
FFFFFFFFFFFFFE00
FFFFFFFFFFFFFE00
FFFFFFFFFFFFFE00
007FC0003FE00000
00FFC0007FE00000
00FFC0007FC00000
00FF80007FC00000
00FF8000FFC00000
01FF8000FFC00000
01FF0000FF800000
01FF0000FF800000
03FF0001FF800000
03FF0001FF000000
03FE0001FF000000
03FE0003FF000000
07FE0003FF000000
07FC0003FE000000
07FC0003FE000000
0FFC0007FE000000
0FF80007FC000000
0FF80007FC000000
0FF8000FFC000000
1FF8000FF8000000
1FF0000FF8000000
ENDCHAR
STARTCHAR dollar
ENCODING 36
SWIDTH 744 0
DWIDTH 77 0
BBX 65 76 6 0
BITMAP
00000003F000000000
00000003F000000000
00000003F000000000
00000003F000000000
00000003F000000000
00000003F000000000
00000003F000000000
0003FFFFFFFFFFFC00
003FFFFFFFFFFFFC00
00FFFFFFFFFFFFFC00
03FFFFFFFFFFFFFC00
07FFFFFFFFFFFFFC00
0FFFFFFFFFFFFFFC00
1FFFFFFFFFFFFFFC00
1FFFFFFFFFFFFFFC00
3FFFFFFFFFFFFFFC00
7FFFFFFFFFFFFFFC00
7FFFFFFFFFFFFFFC00
7FFE0003F000000000
FFFC0003F000000000
FFF80003F000000000
FFF00003F000000000
FFE00003F000000000
FFE00003F000000000
FFE00003F000000000
FFE00003F000000000
FFE00003F000000000
FFE00003F000000000
FFE00003F000000000
7FF00003F000000000
7FF80003F000000000
7FFC0003F000000000
3FFE0003F000000000
3FFFFFFFFFFFF00000
1FFFFFFFFFFFFF0000
0FFFFFFFFFFFFFC000
0FFFFFFFFFFFFFE000
07FFFFFFFFFFFFF800
01FFFFFFFFFFFFFC00
00FFFFFFFFFFFFFC00
003FFFFFFFFFFFFE00
0003FFFFFFFFFFFE00
00000003F0003FFF00
00000003F0000FFF00
00000003F00007FF80
00000003F00003FF80
00000003F00001FF80
00000003F00001FF80
00000003F00001FF80
00000003F00001FF80
00000003F00001FF80
00000003F00001FF80
00000003F00001FF80
00000003F00001FF80
00000003F00003FF80
00000003F00007FF80
00000003F0000FFF80
00000003F0003FFF00
7FFFFFFFFFFFFFFF00
7FFFFFFFFFFFFFFF00
7FFFFFFFFFFFFFFE00
7FFFFFFFFFFFFFFC00
7FFFFFFFFFFFFFFC00
7FFFFFFFFFFFFFF800
7FFFFFFFFFFFFFF000
7FFFFFFFFFFFFFE000
7FFFFFFFFFFFFF8000
7FFFFFFFFFFFFE0000
7FFFFFFFFFFFF00000
00000003F000000000
00000003F000000000
00000003F000000000
00000003F000000000
00000003F000000000
00000003F000000000
00000003F000000000
ENDCHAR
STARTCHAR percent
ENCODING 37
SWIDTH 965 0
DWIDTH 100 0
BBX 92 88 4 -7
BITMAP
0000000000000000003FE000
0000000000000000003FC000
0000000000000000007FC000
000000000000000000FF8000
0001FF800000000001FF0000
000FFFF00000000001FE0000
003FFFFC0000000003FE0000
00FFFFFF0000000007FC0000
01FFFFFF800000000FF80000
03FFFFFFC00000001FF00000
07FFFFFFE00000001FE00000
0FFF00FFF00000003FE00000
1FF8001FF00000007FC00000
1FE0000FF8000000FF800000
3FC00007FC000001FF000000
3F800003FC000001FF000000
7F800001FC000003FE000000
7F000000FE000007FC000000
7F000000FE00000FF8000000
7E000000FE00000FF0000000
7E0000007E00001FF0000000
FE0000007E00003FE0000000
FE0000007F00007FC0000000
FE0000007F0000FF80000000
FE0000007F0000FF80000000
FE0000007E0001FF00000000
7E0000007E0003FE00000000
7E000000FE0007FC00000000
7F000000FE0007F800000000
7F000000FE000FF800000000
3F800001FC001FF000000000
3FC00003FC003FE000000000
1FC00007F8007FC000000000
1FE0000FF8007FC000000000
0FF8001FF000FF8000000000
0FFF00FFE001FF0000000000
07FFFFFFE003FE0000000000
03FFFFFFC003FC0000000000
01FFFFFF0007FC0000000000
007FFFFE000FF80000000000
003FFFFC001FF00000000000
000FFFF0003FE00000000000
0001FF00003FE00000000000
00000000007FC00000000000
0000000000FF80000FF80000
0000000001FF0000FFFF0000
0000000003FE0003FFFFC000
0000000003FE0007FFFFF000
0000000007FC001FFFFFF800
000000000FF8003FFFFFFC00
000000001FF0007FFFFFFE00
000000001FF0007FF007FF00
000000003FE000FF8001FF80
000000007FC001FF00007FC0
00000000FF8001FE00003FC0
00000001FF0003FC00001FE0
00000001FF0003F800001FE0
00000003FE0003F800000FE0
00000007FC0007F000000FE0
0000000FF80007F0000007F0
0000000FF80007F0000007F0
0000001FF00007E0000007F0
0000003FE00007E0000007F0
0000007FC00007E0000007F0
000000FF800007E0000007F0
000000FF800007E0000007F0
000001FF000007F0000007F0
000003FE000007F0000007F0
000007FC000007F000000FE0
000007FC000003F800000FE0
00000FF8000003F800001FE0
00001FF0000001FC00001FC0
00003FE0000001FE00003FC0
00007FC0000000FF00007F80
00007FC0000000FF8001FF80
0000FF800000007FF007FF00
0001FF000000003FFFFFFE00
0003FE000000001FFFFFFC00
0007FE000000000FFFFFF800
0007FC0000000007FFFFF000
000FF80000000001FFFFC000
001FF000000000007FFF0000
003FE000000000000FF80000
003FE0000000000000000000
007FC0000000000000000000
00FF80000000000000000000
01FF00000000000000000000
03FF00000000000000000000
ENDCHAR
STARTCHAR ampersand
ENCODING 38
SWIDTH 759 0
DWIDTH 79 0
BBX 71 76 5 0
BITMAP
00000FFFFF00000000
0001FFFFFF00000000
0007FFFFFF00000000
003FFFFFFF00000000
007FFFFFFF00000000
00FFFFFFFF00000000
01FFFFFFFF00000000
03FFFFFFFF00000000
07FFFFFFFF00000000
0FFFFFFFFF00000000
0FFFFFFFFF00000000
1FFFFFFFFF00000000
1FFFFFFFFF00000000
3FFFFE000000000000
3FFFE0000000000000
3FFFC0000000000000
3FFF80000000000000
3FFF00000000000000
3FFF00000000000000
3FFE00000000000000
3FFE00000000000000
3FFE00000000000000
3FFE00000000000000
3FFE00000000000000
3FFE00000000000000
3FFE00000000000000
3FFE00000000000000
1FFF00000000000000
1FFF80000000000000
0FFF80000000000000
0FFFE0000000000000
07FFFC000000000000
03FFFFFFFFFFFFFFC0
01FFFFFFFFFFFFFFC0
007FFFFFFFFFFFFFC0
003FFFFFFFFFFFFFC0
001FFFFFFFFFFFFFC0
007FFFFFFFFFFFFFC0
01FFFFFFFFFFFFFFC0
03FFFFFFFFFFFFFFC0
07FFFFFFFFFFFFFFC0
0FFFFFFFFFFFFFFFC0
1FFFFFFFFFFFFFFFC0
1FFFF800000FFF8000
3FFFC000000FFF8000
7FFF0000000FFF8000
7FFE0000000FFF8000
7FFE0000000FFF8000
7FFC0000000FFF8000
FFFC0000000FFF8000
FFFC0000000FFF8000
FFF80000000FFF8000
FFF80000000FFF8000
FFF80000000FFF8000
FFFC0000000FFF8000
FFFC0000000FFF8000
FFFC0000000FFF8000
FFFE0000000FFF8000
7FFE0000000FFF8000
7FFF0000000FFF8000
7FFF8000000FFF8000
7FFFE000000FFF8000
3FFFFE00000FFF8000
3FFFFFFFFFFFFFFFFE
1FFFFFFFFFFFFFFFFE
1FFFFFFFFFFFFFFFFE
0FFFFFFFFFFFFFFFFE
07FFFFFFFFFFFFFFFE
07FFFFFFFFFFFFFFFE
03FFFFFFFFFFFFFFFE
01FFFFFFFFFFFFFFFE
007FFFFFFFFFFFFFFE
003FFFFFFFFFFFFFFE
000FFFFFFFFFFFFFFE
0001FFFFFFFFFFFFFE
00003FFFFFFFFFFFFE
ENDCHAR
STARTCHAR quotesingle
ENCODING 39
SWIDTH 255 0
DWIDTH 27 0
BBX 13 27 7 49
BITMAP
FFF8
FFF8
FFF8
FFF8
FFF8
FFF0
FFF0
FFF0
FFF0
FFF0
7FF0
7FF0
7FF0
7FF0
7FF0
7FF0
7FE0
7FE0
7FE0
7FE0
7FE0
3FE0
3FE0
3FE0
3FE0
3FE0
3FE0
ENDCHAR
STARTCHAR parenleft
ENCODING 40
SWIDTH 356 0
DWIDTH 37 0
BBX 20 96 10 -9
BITMAP
001FF0
003FF0
003FE0
007FE0
007FC0
007FC0
00FFC0
00FF80
01FF80
01FF00
01FF00
03FF00
03FE00
03FE00
07FE00
07FC00
07FC00
0FFC00
0FF800
0FF800
1FF800
1FF000
1FF000
1FF000
3FF000
3FE000
3FE000
3FE000
3FE000
7FC000
7FC000
7FC000
7FC000
7F8000
7F8000
7F8000
FF8000
FF8000
FF8000
FF8000
FF8000
FF0000
FF0000
FF0000
FF0000
FF0000
FF0000
FF0000
FF0000
FF0000
FF0000
FF0000
FF0000
FF0000
FF0000
FF8000
FF8000
FF8000
FF8000
FF8000
7F8000
7F8000
7F8000
7FC000
7FC000
7FC000
7FC000
3FC000
3FE000
3FE000
3FE000
1FE000
1FF000
1FF000
1FF000
0FF000
0FF800
0FF800
0FF800
07FC00
07FC00
07FC00
03FE00
03FE00
03FE00
01FF00
01FF00
01FF80
00FF80
00FFC0
007FC0
007FC0
003FE0
003FE0
003FF0
001FF0
ENDCHAR
STARTCHAR parenright
ENCODING 41
SWIDTH 355 0
DWIDTH 37 0
BBX 20 96 7 -9
BITMAP
FF8000
FFC000
7FC000
7FE000
3FE000
3FE000
3FF000
1FF000
1FF800
0FF800
0FF800
0FFC00
07FC00
07FC00
07FE00
03FE00
03FE00
03FF00
01FF00
01FF00
01FF00
00FF80
00FF80
00FF80
00FF80
007FC0
007FC0
007FC0
007FC0
003FE0
003FE0
003FE0
003FE0
003FE0
001FE0
001FE0
001FF0
001FF0
001FF0
001FF0
001FF0
001FF0
000FF0
000FF0
000FF0
000FF0
000FF0
000FF0
000FF0
000FF0
000FF0
000FF0
000FF0
001FF0
001FF0
001FF0
001FF0
001FF0
001FF0
001FF0
001FE0
001FE0
003FE0
003FE0
003FE0
003FE0
003FE0
003FC0
007FC0
007FC0
007FC0
007FC0
00FF80
00FF80
00FF80
01FF00
01FF00
01FF00
01FF00
03FE00
03FE00
03FE00
07FC00
07FC00
0FFC00
0FF800
0FF800
1FF000
1FF000
3FF000
3FE000
3FE000
7FC000
7FC000
FFC000
FF8000
ENDCHAR
STARTCHAR asterisk
ENCODING 42
SWIDTH 469 0
DWIDTH 49 0
BBX 35 34 7 42
BITMAP
0003F00000
0003F00000
0003F00000
0003F00000
0003F00000
0003F00000
0003F00000
0003F00000
0003F00000
4003F00040
7803F003C0
7F03F01FC0
FFE3F1FFC0
FFFFFFFFE0
FFFFFFFFE0
FFFFFFFFC0
1FFFFFFE00
01FFFFF000
003FFF8000
000FFE0000
001FFE0000
001FFF0000
003FFF8000
007FBF8000
007F3FC000
00FF1FE000
01FE0FE000
01FC07F000
03F807F800
07F803FC00
0FF001FC00
03E001F800
01E000F000
00C0006000
ENDCHAR
STARTCHAR plus
ENCODING 43
SWIDTH 690 0
DWIDTH 72 0
BBX 58 59 7 9
BITMAP
0000007F80000000
0000007F80000000
0000007F80000000
0000007F80000000
0000007F80000000
0000007F80000000
0000007F80000000
0000007F80000000
0000007F80000000
0000007F80000000
0000007F80000000
0000007F80000000
0000007F80000000
0000007F80000000
0000007F80000000
0000007F80000000
0000007F80000000
0000007F80000000
0000007F80000000
0000007F80000000
0000007F80000000
0000007F80000000
0000007F80000000
0000007F80000000
0000007F80000000
FFFFFFFFFFFFFFC0
FFFFFFFFFFFFFFC0
FFFFFFFFFFFFFFC0
FFFFFFFFFFFFFFC0
FFFFFFFFFFFFFFC0
FFFFFFFFFFFFFFC0
FFFFFFFFFFFFFFC0
FFFFFFFFFFFFFFC0
FFFFFFFFFFFFFFC0
0000007F80000000
0000007F80000000
0000007F80000000
0000007F80000000
0000007F80000000
0000007F80000000
0000007F80000000
0000007F80000000
0000007F80000000
0000007F80000000
0000007F80000000
0000007F80000000
0000007F80000000
0000007F80000000
0000007F80000000
0000007F80000000
0000007F80000000
0000007F80000000
0000007F80000000
0000007F80000000
0000007F80000000
0000007F80000000
0000007F80000000
0000007F80000000
0000007F80000000
ENDCHAR
STARTCHAR comma
ENCODING 44
SWIDTH 259 0
DWIDTH 27 0
BBX 13 27 7 -12
BITMAP
FFF8
FFF8
FFF8
FFF8
FFF8
FFF0
FFF0
FFF0
FFF0
FFF0
FFE0
FFE0
FFE0
FFE0
FFE0
FFC0
FFC0
FFC0
FFC0
FFC0
FF80
FF80
FF80
FF80
FF80
FF00
FF00
ENDCHAR
STARTCHAR hyphen
ENCODING 45
SWIDTH 296 0
DWIDTH 31 0
BBX 25 9 3 34
BITMAP
FFFFFF80
FFFFFF80
FFFFFF80
FFFFFF80
FFFFFF80
FFFFFF80
FFFFFF80
FFFFFF80
FFFFFF80
ENDCHAR
STARTCHAR period
ENCODING 46
SWIDTH 262 0
DWIDTH 27 0
BBX 14 14 7 0
BITMAP
0F80
3FE0
7FF0
FFF8
FFF8
FFFC
FFFC
FFFC
FFFC
FFF8
FFF8
7FF0
3FE0
0F80
ENDCHAR
STARTCHAR slash
ENCODING 47
SWIDTH 444 0
DWIDTH 46 0
BBX 44 76 1 0
BITMAP
000000001FF0
000000001FE0
000000003FE0
000000003FE0
000000007FC0
000000007FC0
00000000FF80
00000000FF80
00000000FF00
00000001FF00
00000001FE00
00000003FE00
00000003FC00
00000007FC00
00000007F800
0000000FF800
0000000FF800
0000001FF000
0000001FF000
0000003FE000
0000003FE000
0000007FC000
0000007FC000
000000FF8000
000000FF8000
000000FF0000
000001FF0000
000001FE0000
000003FE0000
000003FE0000
000007FC0000
000007FC0000
00000FF80000
00000FF80000
00001FF00000
00001FF00000
00003FE00000
00003FE00000
00007FC00000
00007FC00000
00007F800000
0000FF800000
0000FF800000
0001FF000000
0001FF000000
0003FE000000
0003FE000000
0007FC000000
0007FC000000
000FF8000000
000FF8000000
001FF0000000
001FF0000000
003FE0000000
003FE0000000
003FE0000000
007FC0000000
007FC0000000
00FF80000000
00FF80000000
01FF00000000
01FF00000000
03FE00000000
03FE00000000
07FC00000000
07FC00000000
0FF800000000
0FF800000000
1FF800000000
1FF000000000
3FF000000000
3FE000000000
3FE000000000
7FC000000000
7FC000000000
FF8000000000
ENDCHAR
STARTCHAR zero
ENCODING 48
SWIDTH 838 0
DWIDTH 87 0
BBX 79 76 4 0
BITMAP
000000007FFC00000000
0000000FFFFFE0000000
0000007FFFFFFC000000
000003FFFFFFFF800000
00000FFFFFFFFFE00000
00003FFFFFFFFFF80000
00007FFFFFFFFFFC0000
0001FFFFFFFFFFFF0000
0003FFFFFFFFFFFF8000
0007FFFFFFFFFFFFC000
000FFFFFFFFFFFFFE000
001FFFFFFFFFFFFFF800
003FFFFFFFFFFFFFF800
007FFFFFF83FFFFFFC00
00FFFFFC00007FFFFE00
01FFFFF000001FFFFF00
01FFFF80000007FFFF80
03FFFF00000001FFFF80
07FFFC000000007FFFC0
07FFF8000000003FFFC0
0FFFF0000000001FFFE0
0FFFE0000000000FFFE0
1FFFC00000000007FFF0
1FFFC00000000007FFF0
3FFF800000000003FFF8
3FFF000000000001FFF8
3FFF000000000001FFF8
3FFE000000000000FFFC
7FFE000000000000FFFC
7FFE000000000000FFFC
7FFC0000000000007FFC
7FFC0000000000007FFC
7FFC0000000000007FFC
7FFC0000000000007FFE
FFFC0000000000007FFE
FFFC0000000000007FFE
FFFC0000000000007FFE
FFFC0000000000007FFE
FFFC0000000000007FFE
FFFC0000000000007FFE
FFFC0000000000007FFE
7FFC0000000000007FFE
7FFC0000000000007FFC
7FFC0000000000007FFC
7FFC0000000000007FFC
7FFE000000000000FFFC
7FFE000000000000FFFC
3FFE000000000000FFF8
3FFF000000000001FFF8
3FFF000000000001FFF8
1FFF800000000003FFF8
1FFF800000000003FFF0
1FFFC00000000007FFF0
0FFFE0000000000FFFE0
0FFFE0000000000FFFE0
07FFF0000000001FFFC0
07FFF8000000003FFFC0
03FFFE00000000FFFF80
01FFFF00000001FFFF80
01FFFFC0000007FFFF00
00FFFFF000001FFFFE00
007FFFFC00007FFFFC00
003FFFFFF83FFFFFF800
003FFFFFFFFFFFFFF800
001FFFFFFFFFFFFFF000
000FFFFFFFFFFFFFE000
0003FFFFFFFFFFFFC000
0001FFFFFFFFFFFF0000
0000FFFFFFFFFFFE0000
00007FFFFFFFFFFC0000
00001FFFFFFFFFF00000
000007FFFFFFFFC00000
000001FFFFFFFF000000
0000007FFFFFFC000000
0000000FFFFFE0000000
000000007FFC00000000
ENDCHAR
STARTCHAR one
ENCODING 49
SWIDTH 385 0
DWIDTH 40 0
BBX 31 76 2 0
BITMAP
FFFC0000
FFFFC000
FFFFF000
FFFFFC00
FFFFFE00
FFFFFF00
FFFFFF80
FFFFFFC0
FFFFFFE0
FFFFFFF0
FFFFFFF0
FFFFFFF8
FFFFFFF8
003FFFFC
0007FFFC
0001FFFC
0000FFFE
00007FFE
00007FFE
00003FFE
00003FFE
00003FFE
00003FFE
00003FFE
00003FFE
00003FFE
00003FFE
00003FFE
00003FFE
00003FFE
00003FFE
00003FFE
00003FFE
00003FFE
00003FFE
00003FFE
00003FFE
00003FFE
00003FFE
00003FFE
00003FFE
00003FFE
00003FFE
00003FFE
00003FFE
00003FFE
00003FFE
00003FFE
00003FFE
00003FFE
00003FFE
00003FFE
00003FFE
00003FFE
00003FFE
00003FFE
00003FFE
00003FFE
00003FFE
00003FFE
00003FFE
00003FFE
00003FFE
00003FFE
00003FFE
00003FFE
00003FFE
00003FFE
00003FFE
00003FFE
00003FFE
00003FFE
00003FFE
00003FFE
00003FFE
00003FFE
ENDCHAR
STARTCHAR two
ENCODING 50
SWIDTH 825 0
DWIDTH 86 0
BBX 73 76 7 0
BITMAP
FFFFFFFFFFFFFF000000
FFFFFFFFFFFFFFF00000
FFFFFFFFFFFFFFFC0000
FFFFFFFFFFFFFFFF0000
FFFFFFFFFFFFFFFFC000
FFFFFFFFFFFFFFFFE000
FFFFFFFFFFFFFFFFF000
FFFFFFFFFFFFFFFFF800
FFFFFFFFFFFFFFFFFC00
FFFFFFFFFFFFFFFFFC00
FFFFFFFFFFFFFFFFFE00
FFFFFFFFFFFFFFFFFE00
FFFFFFFFFFFFFFFFFF00
00000000000007FFFF00
00000000000001FFFF00
000000000000007FFF80
000000000000003FFF80
000000000000001FFF80
000000000000001FFF80
000000000000001FFF80
000000000000000FFF80
000000000000000FFF80
000000000000000FFF80
000000000000000FFF80
000000000000000FFF80
000000000000001FFF80
000000000000001FFF80
000000000000001FFF80
000000000000003FFF00
000000000000007FFF00
00000000000000FFFF00
00000000000003FFFE00
00007FFFFFFFFFFFFE00
000FFFFFFFFFFFFFFC00
003FFFFFFFFFFFFFF800
00FFFFFFFFFFFFFFF800
01FFFFFFFFFFFFFFF000
07FFFFFFFFFFFFFFE000
0FFFFFFFFFFFFFFF8000
0FFFFFFFFFFFFFFF0000
1FFFFFFFFFFFFFFC0000
3FFFFFFFFFFFFFF00000
3FFFFFFFFFFFFF000000
7FFFE000000000000000
7FFF0000000000000000
7FFE0000000000000000
FFFC0000000000000000
FFF80000000000000000
FFF80000000000000000
FFF00000000000000000
FFF00000000000000000
FFF00000000000000000
FFF00000000000000000
FFF00000000000000000
FFF00000000000000000
FFF00000000000000000
FFF00000000000000000
FFF00000000000000000
FFF00000000000000000
FFF00000000000000000
FFF00000000000000000
FFF00000000000000000
FFF00000000000000000
FFFFFFFFFFFFFFFFFF00
FFFFFFFFFFFFFFFFFF00
FFFFFFFFFFFFFFFFFF00
FFFFFFFFFFFFFFFFFF00
FFFFFFFFFFFFFFFFFF00
FFFFFFFFFFFFFFFFFF00
FFFFFFFFFFFFFFFFFF00
FFFFFFFFFFFFFFFFFF00
FFFFFFFFFFFFFFFFFF00
FFFFFFFFFFFFFFFFFF00
FFFFFFFFFFFFFFFFFF00
FFFFFFFFFFFFFFFFFF00
FFFFFFFFFFFFFFFFFF00
ENDCHAR
STARTCHAR three
ENCODING 51
SWIDTH 827 0
DWIDTH 86 0
BBX 76 76 5 0
BITMAP
FFFFFFFFFFFFFF800000
FFFFFFFFFFFFFFF80000
FFFFFFFFFFFFFFFF0000
FFFFFFFFFFFFFFFFC000
FFFFFFFFFFFFFFFFE000
FFFFFFFFFFFFFFFFF000
FFFFFFFFFFFFFFFFF800
FFFFFFFFFFFFFFFFFC00
FFFFFFFFFFFFFFFFFE00
FFFFFFFFFFFFFFFFFF00
FFFFFFFFFFFFFFFFFF00
FFFFFFFFFFFFFFFFFF80
FFFFFFFFFFFFFFFFFF80
0000000000001FFFFFC0
00000000000000FFFFC0
000000000000003FFFC0
000000000000001FFFC0
000000000000000FFFC0
000000000000000FFFC0
0000000000000007FFC0
0000000000000007FFC0
0000000000000007FFC0
0000000000000007FFC0
0000000000000007FFC0
0000000000000007FFC0
0000000000000007FFC0
0000000000000007FFC0
000000000000000FFF80
000000000000000FFF80
000000000000001FFF00
000000000000003FFF00
00000000000001FFFE00
00003FFFFFFFFFFFFC00
00003FFFFFFFFFFFF800
00003FFFFFFFFFFFE000
00003FFFFFFFFFFFC000
00003FFFFFFFFFFF8000
00003FFFFFFFFFFFE000
00003FFFFFFFFFFFF800
00003FFFFFFFFFFFFC00
00003FFFFFFFFFFFFE00
00003FFFFFFFFFFFFF00
00003FFFFFFFFFFFFF80
00000000000001FFFF80
000000000000003FFFC0
000000000000000FFFC0
0000000000000007FFE0
0000000000000007FFE0
0000000000000003FFE0
0000000000000003FFF0
0000000000000003FFF0
0000000000000003FFF0
0000000000000003FFF0
0000000000000003FFF0
0000000000000003FFF0
0000000000000003FFF0
0000000000000003FFF0
0000000000000007FFF0
0000000000000007FFE0
000000000000000FFFE0
000000000000003FFFE0
00000000000000FFFFE0
0000000000000FFFFFC0
FFFFFFFFFFFFFFFFFFC0
FFFFFFFFFFFFFFFFFF80
FFFFFFFFFFFFFFFFFF80
FFFFFFFFFFFFFFFFFF00
FFFFFFFFFFFFFFFFFE00
FFFFFFFFFFFFFFFFFC00
FFFFFFFFFFFFFFFFFC00
FFFFFFFFFFFFFFFFF000
FFFFFFFFFFFFFFFFE000
FFFFFFFFFFFFFFFFC000
FFFFFFFFFFFFFFFF0000
FFFFFFFFFFFFFFF80000
FFFFFFFFFFFFFF800000
ENDCHAR
STARTCHAR four
ENCODING 52
SWIDTH 845 0
DWIDTH 88 0
BBX 80 76 5 0
BITMAP
FFF80000000000FFF800
FFF80000000000FFF800
FFF80000000000FFF800
FFF80000000000FFF800
FFF80000000000FFF800
FFF80000000000FFF800
FFF80000000000FFF800
FFF80000000000FFF800
FFF80000000000FFF800
FFF80000000000FFF800
FFF80000000000FFF800
FFF80000000000FFF800
FFF80000000000FFF800
FFF80000000000FFF800
FFF80000000000FFF800
FFF80000000000FFF800
FFF80000000000FFF800
FFF80000000000FFF800
FFF80000000000FFF800
FFF80000000000FFF800
FFF80000000000FFF800
FFF80000000000FFF800
FFF80000000000FFF800
FFF80000000000FFF800
FFF80000000000FFF800
FFF80000000000FFF800
FFF80000000000FFF800
FFF80000000000FFF800
FFF80000000000FFF800
FFF80000000000FFF800
FFF80000000000FFF800
FFF80000000000FFF800
FFF80000000000FFF800
FFF80000000000FFF800
FFF80000000000FFF800
FFFC0000000000FFF800
FFFC0000000000FFF800
FFFC0000000000FFF800
7FFE0000000000FFF800
7FFE0000000000FFF800
7FFF0000000000FFF800
7FFFC000000000FFF800
3FFFFC00000000FFF800
3FFFFFFFFFFFFFFFFFFF
3FFFFFFFFFFFFFFFFFFF
1FFFFFFFFFFFFFFFFFFF
1FFFFFFFFFFFFFFFFFFF
0FFFFFFFFFFFFFFFFFFF
07FFFFFFFFFFFFFFFFFF
03FFFFFFFFFFFFFFFFFF
01FFFFFFFFFFFFFFFFFF
00FFFFFFFFFFFFFFFFFF
003FFFFFFFFFFFFFFFFF
000FFFFFFFFFFFFFFFFF
0003FFFFFFFFFFFFFFFF
00003FFFFFFFFFFFFFFF
00000000000000FFF800
00000000000000FFF800
00000000000000FFF800
00000000000000FFF800
00000000000000FFF800
00000000000000FFF800
00000000000000FFF800
00000000000000FFF800
00000000000000FFF800
00000000000000FFF800
00000000000000FFF800
00000000000000FFF800
00000000000000FFF800
00000000000000FFF800
00000000000000FFF800
00000000000000FFF800
00000000000000FFF800
00000000000000FFF800
00000000000000FFF800
00000000000000FFF800
ENDCHAR
STARTCHAR five
ENCODING 53
SWIDTH 885 0
DWIDTH 92 0
BBX 80 76 7 0
BITMAP
FFFFFFFFFFFFFFFFFFF0
FFFFFFFFFFFFFFFFFFF0
FFFFFFFFFFFFFFFFFFF0
FFFFFFFFFFFFFFFFFFF0
FFFFFFFFFFFFFFFFFFF0
FFFFFFFFFFFFFFFFFFF0
FFFFFFFFFFFFFFFFFFF0
FFFFFFFFFFFFFFFFFFF0
FFFFFFFFFFFFFFFFFFF0
FFFFFFFFFFFFFFFFFFF0
FFFFFFFFFFFFFFFFFFF0
FFFFFFFFFFFFFFFFFFF0
FFFFFFFFFFFFFFFFFFF0
FFF80000000000000000
FFF80000000000000000
FFF80000000000000000
FFF80000000000000000
FFF80000000000000000
FFF80000000000000000
FFF80000000000000000
FFF80000000000000000
FFF80000000000000000
FFF80000000000000000
FFF80000000000000000
FFF80000000000000000
FFF80000000000000000
FFF80000000000000000
FFF80000000000000000
FFF80000000000000000
FFF80000000000000000
FFF80000000000000000
FFF80000000000000000
FFFFFFFFFFFFFFFE0000
FFFFFFFFFFFFFFFFE000
FFFFFFFFFFFFFFFFF800
FFFFFFFFFFFFFFFFFE00
FFFFFFFFFFFFFFFFFF80
FFFFFFFFFFFFFFFFFFC0
FFFFFFFFFFFFFFFFFFE0
FFFFFFFFFFFFFFFFFFF0
FFFFFFFFFFFFFFFFFFF0
FFFFFFFFFFFFFFFFFFF8
FFFFFFFFFFFFFFFFFFF8
000000000000000FFFFC
0000000000000001FFFC
0000000000000000FFFE
00000000000000007FFE
00000000000000003FFE
00000000000000003FFE
00000000000000001FFE
00000000000000001FFE
00000000000000001FFF
00000000000000001FFF
00000000000000001FFF
00000000000000001FFF
00000000000000001FFF
00000000000000001FFF
00000000000000003FFE
00000000000000003FFE
00000000000000007FFE
0000000000000000FFFE
0000000000000003FFFE
000000000000001FFFFC
FFFFFFFFFFFFFFFFFFFC
FFFFFFFFFFFFFFFFFFF8
FFFFFFFFFFFFFFFFFFF8
FFFFFFFFFFFFFFFFFFF0
FFFFFFFFFFFFFFFFFFF0
FFFFFFFFFFFFFFFFFFE0
FFFFFFFFFFFFFFFFFFC0
FFFFFFFFFFFFFFFFFF80
FFFFFFFFFFFFFFFFFF00
FFFFFFFFFFFFFFFFFC00
FFFFFFFFFFFFFFFFF800
FFFFFFFFFFFFFFFFC000
FFFFFFFFFFFFFFFC0000
ENDCHAR
STARTCHAR six
ENCODING 54
SWIDTH 872 0
DWIDTH 91 0
BBX 81 76 4 0
BITMAP
0000000FFFFFFFFFFFFC00
000001FFFFFFFFFFFFFC00
00000FFFFFFFFFFFFFFC00
00007FFFFFFFFFFFFFFC00
0001FFFFFFFFFFFFFFFC00
0003FFFFFFFFFFFFFFFC00
000FFFFFFFFFFFFFFFFC00
001FFFFFFFFFFFFFFFFC00
003FFFFFFFFFFFFFFFFC00
007FFFFFFFFFFFFFFFFC00
00FFFFFFFFFFFFFFFFFC00
01FFFFFFFFFFFFFFFFFC00
01FFFFFFFFFFFFFFFFFC00
03FFFFFE00000000000000
07FFFFC000000000000000
07FFFF0000000000000000
0FFFFC0000000000000000
0FFFF80000000000000000
1FFFF00000000000000000
1FFFE00000000000000000
1FFFC00000000000000000
3FFF800000000000000000
3FFF800000000000000000
3FFF000000000000000000
3FFF000000000000000000
7FFE000000000000000000
7FFE000000000000000000
7FFE000000000000000000
7FFE000000000000000000
7FFC000000000000000000
7FFC000000000000000000
7FFC000000000000000000
7FFFFFFFFFFFFFFF000000
FFFFFFFFFFFFFFFFF80000
FFFFFFFFFFFFFFFFFE0000
FFFFFFFFFFFFFFFFFF8000
FFFFFFFFFFFFFFFFFFC000
FFFFFFFFFFFFFFFFFFF000
FFFFFFFFFFFFFFFFFFF800
FFFFFFFFFFFFFFFFFFF800
FFFFFFFFFFFFFFFFFFFC00
FFFFFFFFFFFFFFFFFFFE00
7FFFFFFFFFFFFFFFFFFE00
7FFC000000000007FFFF00
7FFC000000000000FFFF00
7FFC0000000000003FFF00
7FFC0000000000001FFF00
7FFC0000000000001FFF80
7FFE0000000000000FFF80
7FFE0000000000000FFF80
3FFE0000000000000FFF80
3FFF0000000000000FFF80
3FFF0000000000000FFF80
3FFF8000000000000FFF80
1FFF8000000000000FFF80
1FFFC000000000000FFF80
1FFFE000000000000FFF80
0FFFF000000000001FFF80
0FFFF800000000001FFF80
07FFFC00000000003FFF80
07FFFF00000000007FFF00
03FFFFC000000001FFFF00
03FFFFFE0000000FFFFF00
01FFFFFFFFFFFFFFFFFE00
00FFFFFFFFFFFFFFFFFE00
007FFFFFFFFFFFFFFFFC00
003FFFFFFFFFFFFFFFFC00
001FFFFFFFFFFFFFFFF800
000FFFFFFFFFFFFFFFF000
0007FFFFFFFFFFFFFFF000
0003FFFFFFFFFFFFFFE000
0000FFFFFFFFFFFFFF8000
00003FFFFFFFFFFFFF0000
00000FFFFFFFFFFFFC0000
000001FFFFFFFFFFF00000
0000000FFFFFFFFF000000
ENDCHAR
STARTCHAR seven
ENCODING 55
SWIDTH 756 0
DWIDTH 79 0
BBX 71 76 5 0
BITMAP
FFFFFFFFFFFFFFFFE0
FFFFFFFFFFFFFFFFF8
FFFFFFFFFFFFFFFFFC
FFFFFFFFFFFFFFFFFE
FFFFFFFFFFFFFFFFFE
FFFFFFFFFFFFFFFFFE
FFFFFFFFFFFFFFFFFE
FFFFFFFFFFFFFFFFFE
FFFFFFFFFFFFFFFFFE
FFFFFFFFFFFFFFFFFE
FFFFFFFFFFFFFFFFFC
FFFFFFFFFFFFFFFFFC
FFFFFFFFFFFFFFFFF8
0000000000000FFFF0
0000000000001FFFE0
0000000000003FFFE0
0000000000007FFFC0
000000000000FFFF80
000000000000FFFF00
000000000001FFFE00
000000000003FFFC00
000000000007FFFC00
00000000000FFFF800
00000000001FFFF000
00000000001FFFE000
00000000003FFFC000
00000000007FFFC000
0000000000FFFF8000
0000000001FFFF0000
0000000003FFFE0000
0000000003FFFC0000
0000000007FFFC0000
000000000FFFF80000
000000001FFFF00000
000000003FFFE00000
000000003FFFC00000
000000007FFF800000
00000000FFFF800000
00000001FFFF000000
00000003FFFE000000
00000007FFFC000000
00000007FFF8000000
0000000FFFF8000000
0000001FFFF0000000
0000003FFFE0000000
0000007FFFC0000000
000000FFFF80000000
000000FFFF80000000
000001FFFF00000000
000003FFFE00000000
000007FFFC00000000
00000FFFF800000000
00000FFFF000000000
00001FFFF000000000
00003FFFE000000000
00007FFFC000000000
0000FFFF8000000000
0001FFFF0000000000
0001FFFF0000000000
0003FFFE0000000000
0007FFFC0000000000
000FFFF80000000000
001FFFF00000000000
003FFFF00000000000
003FFFE00000000000
007FFFC00000000000
00FFFF800000000000
01FFFF000000000000
03FFFE000000000000
03FFFE000000000000
07FFFC000000000000
0FFFF8000000000000
1FFFF0000000000000
3FFFE0000000000000
7FFFE0000000000000
FFFFC0000000000000
ENDCHAR
STARTCHAR eight
ENCODING 56
SWIDTH 898 0
DWIDTH 93 0
BBX 83 76 5 0
BITMAP
00000FFFFFFFFFFF000000
0001FFFFFFFFFFFFF00000
0007FFFFFFFFFFFFFE0000
001FFFFFFFFFFFFFFF8000
007FFFFFFFFFFFFFFFC000
00FFFFFFFFFFFFFFFFF000
01FFFFFFFFFFFFFFFFF800
03FFFFFFFFFFFFFFFFFC00
07FFFFFFFFFFFFFFFFFC00
0FFFFFFFFFFFFFFFFFFE00
0FFFFFFFFFFFFFFFFFFF00
1FFFFFFFFFFFFFFFFFFF00
1FFFFFFFFFFFFFFFFFFF00
1FFFFF800000001FFFFF80
3FFFF00000000001FFFF80
3FFFC000000000007FFF80
3FFF8000000000003FFF80
3FFF0000000000001FFFC0
3FFF0000000000000FFFC0
3FFE0000000000000FFFC0
3FFE0000000000000FFFC0
3FFE0000000000000FFFC0
3FFE0000000000000FFFC0
3FFE0000000000000FFF80
3FFE0000000000000FFF80
3FFE0000000000000FFF80
1FFF0000000000000FFF80
1FFF0000000000001FFF00
1FFF0000000000001FFF00
0FFF8000000000003FFF00
07FFE000000000007FFE00
07FFF80000000003FFFC00
03FFFFFFFFFFFFFFFFF800
01FFFFFFFFFFFFFFFFF000
007FFFFFFFFFFFFFFFE000
001FFFFFFFFFFFFFFF8000
001FFFFFFFFFFFFFFF0000
007FFFFFFFFFFFFFFFC000
01FFFFFFFFFFFFFFFFF000
03FFFFFFFFFFFFFFFFF800
07FFFFFFFFFFFFFFFFFC00
0FFFFFFFFFFFFFFFFFFE00
1FFFFFFFFFFFFFFFFFFF00
1FFFF80000000003FFFF80
3FFFC000000000007FFF80
3FFF8000000000001FFFC0
7FFF0000000000000FFFC0
7FFE0000000000000FFFC0
7FFC00000000000007FFE0
7FFC00000000000007FFE0
FFFC00000000000003FFE0
FFFC00000000000003FFE0
FFFC00000000000003FFE0
FFFC00000000000003FFE0
FFFC00000000000003FFE0
FFFC00000000000007FFE0
FFFC00000000000007FFE0
7FFE00000000000007FFE0
7FFF0000000000000FFFE0
7FFF8000000000001FFFC0
7FFFC000000000007FFFC0
3FFFF00000000001FFFFC0
3FFFFF000000001FFFFF80
3FFFFFFFFFFFFFFFFFFF80
1FFFFFFFFFFFFFFFFFFF00
1FFFFFFFFFFFFFFFFFFF00
0FFFFFFFFFFFFFFFFFFE00
07FFFFFFFFFFFFFFFFFE00
03FFFFFFFFFFFFFFFFFC00
01FFFFFFFFFFFFFFFFF800
00FFFFFFFFFFFFFFFFF000
007FFFFFFFFFFFFFFFC000
003FFFFFFFFFFFFFFF8000
000FFFFFFFFFFFFFFE0000
0001FFFFFFFFFFFFF80000
00001FFFFFFFFFFF800000
ENDCHAR
STARTCHAR nine
ENCODING 57
SWIDTH 861 0
DWIDTH 90 0
BBX 81 76 4 0
BITMAP
00007FFFFFFFFC00000000
0003FFFFFFFFFFC0000000
000FFFFFFFFFFFF8000000
003FFFFFFFFFFFFF000000
007FFFFFFFFFFFFFC00000
00FFFFFFFFFFFFFFE00000
01FFFFFFFFFFFFFFF80000
03FFFFFFFFFFFFFFFC0000
07FFFFFFFFFFFFFFFE0000
0FFFFFFFFFFFFFFFFF0000
0FFFFFFFFFFFFFFFFF8000
1FFFFFFFFFFFFFFFFFC000
1FFFFFFFFFFFFFFFFFC000
3FFFFC0000003FFFFFE000
3FFFE000000001FFFFF000
7FFF80000000003FFFF000
7FFF00000000001FFFF800
7FFF000000000007FFF800
7FFE000000000003FFFC00
7FFE000000000001FFFC00
7FFC000000000000FFFC00
FFFC000000000000FFFE00
FFFC0000000000007FFE00
FFFC0000000000007FFE00
FFFC0000000000003FFF00
FFFC0000000000003FFF00
FFFC0000000000003FFF00
7FFC0000000000001FFF00
7FFC0000000000001FFF00
7FFE0000000000001FFF80
7FFE0000000000001FFF80
7FFF0000000000001FFF80
7FFF8000000000000FFF80
3FFFC000000000000FFF80
3FFFF800000000000FFF80
3FFFFFFFFFFFFFFFFFFF80
1FFFFFFFFFFFFFFFFFFF80
1FFFFFFFFFFFFFFFFFFF80
0FFFFFFFFFFFFFFFFFFF80
07FFFFFFFFFFFFFFFFFF80
03FFFFFFFFFFFFFFFFFF80
01FFFFFFFFFFFFFFFFFF80
00FFFFFFFFFFFFFFFFFF80
003FFFFFFFFFFFFFFFFF80
000FFFFFFFFFFFFFFFFF80
0000FFFFFFFFFFFFFFFF80
00000000000000001FFF80
00000000000000001FFF80
00000000000000001FFF00
00000000000000001FFF00
00000000000000003FFF00
00000000000000003FFF00
00000000000000007FFF00
00000000000000007FFE00
0000000000000000FFFE00
0000000000000000FFFE00
0000000000000001FFFC00
0000000000000003FFFC00
0000000000000007FFFC00
000000000000000FFFF800
000000000000003FFFF800
00000000000001FFFFF000
0000000000001FFFFFF000
007FFFFFFFFFFFFFFFE000
007FFFFFFFFFFFFFFFC000
007FFFFFFFFFFFFFFF8000
007FFFFFFFFFFFFFFF8000
007FFFFFFFFFFFFFFF0000
007FFFFFFFFFFFFFFE0000
007FFFFFFFFFFFFFF80000
007FFFFFFFFFFFFFF00000
007FFFFFFFFFFFFFC00000
007FFFFFFFFFFFFF000000
007FFFFFFFFFFFFC000000
007FFFFFFFFFFFE0000000
007FFFFFFFFFFC00000000
ENDCHAR
STARTCHAR colon
ENCODING 58
SWIDTH 262 0
DWIDTH 27 0
BBX 14 49 7 0
BITMAP
0F80
3FE0
7FF0
FFF8
FFF8
FFFC
FFFC
FFFC
FFFC
FFF8
FFF8
7FF0
3FE0
0F80
0000
0000
0000
0000
0000
0000
0000
0000
0000
0000
0000
0000
0000
0000
0000
0000
0000
0000
0000
0000
0000
0F80
3FE0
7FF0
FFF8
FFF8
FFFC
FFFC
FFFC
FFFC
FFF8
FFF8
7FF0
3FE0
0F80
ENDCHAR
STARTCHAR semicolon
ENCODING 59
SWIDTH 262 0
DWIDTH 27 0
BBX 14 60 7 -12
BITMAP
0F80
3FE0
7FF0
FFF8
FFF8
FFFC
FFFC
FFFC
FFFC
FFF8
FFF8
7FF0
3FE0
0F80
0000
0000
0000
0000
0000
0000
0000
0000
0000
0000
0000
0000
0000
0000
0000
0000
0000
0000
0000
FFF8
FFF8
FFF8
FFF8
FFF8
FFF0
FFF0
FFF0
FFF0
FFF0
FFE0
FFE0
FFE0
FFE0
FFE0
FFC0
FFC0
FFC0
FFC0
FFC0
FF80
FF80
FF80
FF80
FF80
FF00
FF00
ENDCHAR
STARTCHAR less
ENCODING 60
SWIDTH 690 0
DWIDTH 72 0
BBX 58 57 7 10
BITMAP
0000000000000040
00000000000001C0
00000000000007C0
0000000000003FC0
000000000000FFC0
000000000003FFC0
00000000001FFFC0
00000000007FFFC0
0000000003FFFFC0
000000000FFFFFC0
000000003FFFFF00
00000001FFFFFC00
00000007FFFFE000
0000001FFFFF8000
000000FFFFFC0000
000003FFFFE00000
00001FFFFF800000
00007FFFFC000000
0001FFFFF0000000
000FFFFF80000000
003FFFFE00000000
00FFFFF000000000
07FFFFC000000000
1FFFFE0000000000
7FFFF80000000000
FFFFC00000000000
FFFE000000000000
FFF8000000000000
FFE0000000000000
FFFC000000000000
FFFF000000000000
7FFFE00000000000
3FFFF80000000000
0FFFFF0000000000
03FFFFC000000000
00FFFFF800000000
001FFFFE00000000
0007FFFFC0000000
0000FFFFF0000000
00003FFFFE000000
00000FFFFFC00000
000001FFFFF00000
0000007FFFFE0000
0000001FFFFF8000
00000003FFFFF000
00000000FFFFFC00
000000003FFFFF80
0000000007FFFFC0
0000000001FFFFC0
00000000003FFFC0
00000000000FFFC0
000000000003FFC0
0000000000007FC0
0000000000001FC0
00000000000007C0
00000000000000C0
0000000000000040
ENDCHAR
STARTCHAR equal
ENCODING 61
SWIDTH 690 0
DWIDTH 72 0
BBX 58 37 7 20
BITMAP
FFFFFFFFFFFFFFC0
FFFFFFFFFFFFFFC0
FFFFFFFFFFFFFFC0
FFFFFFFFFFFFFFC0
FFFFFFFFFFFFFFC0
FFFFFFFFFFFFFFC0
FFFFFFFFFFFFFFC0
FFFFFFFFFFFFFFC0
FFFFFFFFFFFFFFC0
0000000000000000
0000000000000000
0000000000000000
0000000000000000
0000000000000000
0000000000000000
0000000000000000
0000000000000000
0000000000000000
0000000000000000
0000000000000000
0000000000000000
0000000000000000
0000000000000000
0000000000000000
0000000000000000
0000000000000000
0000000000000000
0000000000000000
FFFFFFFFFFFFFFC0
FFFFFFFFFFFFFFC0
FFFFFFFFFFFFFFC0
FFFFFFFFFFFFFFC0
FFFFFFFFFFFFFFC0
FFFFFFFFFFFFFFC0
FFFFFFFFFFFFFFC0
FFFFFFFFFFFFFFC0
FFFFFFFFFFFFFFC0
ENDCHAR
STARTCHAR greater
ENCODING 62
SWIDTH 690 0
DWIDTH 72 0
BBX 58 57 7 10
BITMAP
8000000000000000
E000000000000000
F800000000000000
FE00000000000000
FFC0000000000000
FFF0000000000000
FFFE000000000000
FFFF800000000000
FFFFE00000000000
FFFFFC0000000000
3FFFFF0000000000
0FFFFFC000000000
01FFFFF800000000
007FFFFE00000000
000FFFFFC0000000
0003FFFFF0000000
00007FFFFC000000
00001FFFFF800000
000003FFFFE00000
000000FFFFF80000
0000001FFFFF0000
00000003FFFFC000
00000000FFFFF800
000000001FFFFE00
0000000007FFFF00
0000000000FFFF80
00000000003FFFC0
000000000007FFC0
000000000001FFC0
00000000000FFFC0
00000000007FFFC0
0000000001FFFF80
000000000FFFFF00
000000003FFFFC00
00000001FFFFF000
00000007FFFF8000
0000003FFFFE0000
000000FFFFF80000
000007FFFFC00000
00001FFFFF000000
0000FFFFFC000000
0003FFFFE0000000
001FFFFF80000000
007FFFFC00000000
03FFFFF000000000
0FFFFFC000000000
7FFFFE0000000000
FFFFF80000000000
FFFFE00000000000
FFFF000000000000
FFFC000000000000
FFE0000000000000
FF80000000000000
FE00000000000000
F000000000000000
C000000000000000
8000000000000000
ENDCHAR
STARTCHAR question
ENCODING 63
SWIDTH 776 0
DWIDTH 81 0
BBX 73 76 5 0
BITMAP
FFFFFFFFFFFFFE000000
FFFFFFFFFFFFFFE00000
FFFFFFFFFFFFFFFC0000
FFFFFFFFFFFFFFFE0000
FFFFFFFFFFFFFFFF8000
FFFFFFFFFFFFFFFFC000
FFFFFFFFFFFFFFFFE000
FFFFFFFFFFFFFFFFF000
FFFFFFFFFFFFFFFFF800
FFFFFFFFFFFFFFFFFC00
FFFFFFFFFFFFFFFFFC00
FFFFFFFFFFFFFFFFFE00
FFFFFFFFFFFFFFFFFE00
0000000000000FFFFE00
00000000000001FFFF00
00000000000000FFFF00
000000000000007FFF00
000000000000003FFF00
000000000000003FFF00
000000000000001FFF80
000000000000001FFF80
000000000000001FFF80
000000000000001FFF80
000000000000001FFF00
000000000000001FFF00
000000000000001FFF00
000000000000003FFF00
000000000000003FFF00
000000000000007FFE00
00000000000001FFFE00
00000000000007FFFC00
00001FFFFFFFFFFFFC00
0001FFFFFFFFFFFFF800
0007FFFFFFFFFFFFF800
000FFFFFFFFFFFFFF000
001FFFFFFFFFFFFFE000
003FFFFFFFFFFFFFC000
007FFFFFFFFFFFFF8000
00FFFFFFFFFFFFFE0000
00FFFFFFFFFFFFF80000
01FFFFFFFFFFFFE00000
01FFFFFFFFFFFE000000
01FFF800000000000000
01FFF000000000000000
01FFE000000000000000
01FFE000000000000000
01FFE000000000000000
01FFE000000000000000
01FFE000000000000000
01FFE000000000000000
01FFE000000000000000
00000000000000000000
00000000000000000000
00000000000000000000
00000000000000000000
00000000000000000000
00000000000000000000
00000000000000000000
00000000000000000000
00000000000000000000
00000000000000000000
00000000000000000000
003F0000000000000000
007FC000000000000000
00FFE000000000000000
01FFE000000000000000
03FFF000000000000000
03FFF000000000000000
03FFF000000000000000
03FFF000000000000000
03FFF000000000000000
03FFF000000000000000
01FFE000000000000000
00FFE000000000000000
007FC000000000000000
003F0000000000000000
ENDCHAR
STARTCHAR at
ENCODING 64
SWIDTH 833 0
DWIDTH 87 0
BBX 76 76 4 0
BITMAP
00000000FFFFFFFFFFF0
0000001FFFFFFFFFFFF0
000000FFFFFFFFFFFFF0
000003FFFFFFFFFFFFF0
00000FFFFFFFFFFFFFF0
00003FFFFFFFFFFFFFF0
00007FFFFFFFFFFFFFF0
0001FFFFFFFFFFFFFFF0
0003FFFFFFFFFFFFFFF0
0007FFFFFFFFFFFFFFF0
000FFFFF000000003FF0
001FFFF0000000003FF0
003FFFC0000000003FF0
007FFF00000000003FF0
00FFFC00000000003FF0
00FFF000000000003FF0
01FFE000000000003FF0
03FFC000000000003FF0
03FF8000000000003FF0
07FF0000000000003FF0
07FF0000000000003FF0
0FFE00007FFFFF803FF0
0FFC0003FFFFFF803FF0
1FFC0007FFFFFF803FF0
1FF8001FFFFFFF803FF0
3FF8003FFFFFFF803FF0
3FF0007FFFFFFF803FF0
3FF0007FFFFFFF803FF0
3FF000FFFFFFFF803FF0
7FE000FFF0007F803FF0
7FE001FFC0007F803FF0
7FE001FF80007F803FF0
7FE001FF00007F803FF0
7FE003FF00007F803FF0
7FC003FE00007F803FF0
FFC003FE00007F803FF0
FFC003FE00007F803FF0
FFC003FE00007F803FF0
FFC003FE00007F803FF0
FFC003FE00007F803FF0
FFC003FE00007F803FF0
FFC003FE00007F803FF0
7FE003FF00007F803FF0
7FE001FF00007F803FF0
7FE001FF80007F803FF0
7FE001FFC0007F803FF0
7FE000FFF0007F803FF0
7FF000FFFFFFFFFFFFF0
7FF0007FFFFFFFFFFFF0
3FF0003FFFFFFFFFFFF0
3FF8003FFFFFFFFFFFF0
3FF8001FFFFFFFFFFFF0
1FFC0007FFFFFFFFFFF0
1FFC0003FFFFFFFFFFF0
1FFE00007FFFFFFFFFF0
0FFF0000000000000000
0FFF0000000000000000
07FF8000000000000000
07FFC000000000000000
03FFE000000000000000
01FFF000000000000000
01FFFC00000000000000
00FFFF00000000000000
007FFFC0000000000000
003FFFF0000000000000
001FFFFF000000000000
000FFFFFFFFFFFFFFFF0
0007FFFFFFFFFFFFFFF0
0003FFFFFFFFFFFFFFF0
0000FFFFFFFFFFFFFFF0
00007FFFFFFFFFFFFFF0
00001FFFFFFFFFFFFFF0
000007FFFFFFFFFFFFF0
000000FFFFFFFFFFFFF0
0000001FFFFFFFFFFFF0
00000001FFFFFFFFFFF0
ENDCHAR
STARTCHAR A
ENCODING 65
SWIDTH 989 0
DWIDTH 103 0
BBX 100 77 1 0
BITMAP
000000000000F8000000000000
000000000003FC000000000000
000000000007FE000000000000
00000000000FFF000000000000
00000000000FFF800000000000
00000000001FFF800000000000
00000000001FFFC00000000000
00000000003FFFE00000000000
00000000007FFFE00000000000
00000000007FFFF00000000000
0000000000FFFFF00000000000
0000000000FFFFF80000000000
0000000001FFFFFC0000000000
0000000003FFFFFC0000000000
0000000003FFFFFE0000000000
0000000007FFFFFE0000000000
0000000007FFFFFF0000000000
000000000FFFFFFF8000000000
000000001FFFFFFF8000000000
000000001FFFFFFFC000000000
000000003FFF9FFFC000000000
000000003FFF1FFFE000000000
000000007FFF0FFFF000000000
00000000FFFE07FFF000000000
00000000FFFE07FFF800000000
00000001FFFC03FFF800000000
00000001FFF803FFFC00000000
00000003FFF801FFFE00000000
00000007FFF000FFFE00000000
00000007FFF000FFFF00000000
0000000FFFE0007FFF00000000
0000000FFFC0007FFF80000000
0000001FFFC0003FFFC0000000
0000003FFF80001FFFC0000000
0000003FFF80001FFFE0000000
0000007FFF00000FFFE0000000
0000007FFF00000FFFF0000000
000000FFFE000007FFF8000000
000001FFFC000003FFF8000000
000001FFFC000003FFFC000000
000003FFF8000001FFFC000000
000003FFF8000001FFFE000000
000007FFF0000000FFFF000000
00000FFFE00000007FFF000000
00000FFFE00000007FFF800000
00001FFFC00000003FFF800000
00001FFFC00000003FFFC00000
00003FFF801FFFFFFFFFE00000
00007FFF001FFFFFFFFFE00000
00007FFF003FFFFFFFFFF00000
0000FFFE003FFFFFFFFFF00000
0000FFFE007FFFFFFFFFF80000
0001FFFC00FFFFFFFFFFFC0000
0003FFF800FFFFFFFFFFFC0000
0003FFF801FFFFFFFFFFFE0000
0007FFF001FFFFFFFFFFFE0000
0007FFF003FFFFFFFFFFFF0000
000FFFE007FFFFFFFFFFFF8000
001FFFE000000000007FFF8000
001FFFC000000000003FFFC000
003FFF8000000000001FFFC000
003FFF8000000000001FFFE000
007FFF0000000000000FFFF000
007FFF0000000000000FFFF000
00FFFE00000000000007FFF800
01FFFC00000000000003FFF800
01FFFC00000000000003FFFC00
03FFF800000000000001FFFE00
03FFF800000000000001FFFE00
07FFF000000000000000FFFF00
0FFFE000000000000000FFFF00
0FFFE0000000000000007FFF80
1FFFC0000000000000003FFFC0
1FFFC0000000000000003FFFC0
3FFF80000000000000001FFFE0
7FFF00000000000000001FFFE0
FFFF00000000000000000FFFF0
ENDCHAR
STARTCHAR B
ENCODING 66
SWIDTH 891 0
DWIDTH 93 0
BBX 82 76 6 0
BITMAP
FFFFFFFFFFFFFFFC000000
FFFFFFFFFFFFFFFFE00000
FFFFFFFFFFFFFFFFF80000
FFFFFFFFFFFFFFFFFE0000
FFFFFFFFFFFFFFFFFF8000
FFFFFFFFFFFFFFFFFFC000
FFFFFFFFFFFFFFFFFFE000
FFFFFFFFFFFFFFFFFFF000
FFFFFFFFFFFFFFFFFFF800
FFFFFFFFFFFFFFFFFFFC00
FFFFFFFFFFFFFFFFFFFC00
FFFFFFFFFFFFFFFFFFFE00
FFFFFFFFFFFFFFFFFFFE00
FFFC0000000000FFFFFE00
FFFC000000000007FFFF00
FFFC000000000000FFFF00
FFFC0000000000007FFF00
FFFC0000000000003FFF00
FFFC0000000000003FFF00
FFFC0000000000003FFF00
FFFC0000000000001FFF00
FFFC0000000000001FFF00
FFFC0000000000001FFF00
FFFC0000000000001FFF00
FFFC0000000000001FFF00
FFFC0000000000001FFF00
FFFC0000000000003FFE00
FFFC0000000000003FFE00
FFFC0000000000007FFE00
FFFC0000000000007FFC00
FFFC000000000001FFF800
FFFC000000000007FFF800
FFFC01FFFFFFFFFFFFF000
FFFC01FFFFFFFFFFFFE000
FFFC01FFFFFFFFFFFF8000
FFFC01FFFFFFFFFFFE0000
FFFC01FFFFFFFFFFFE0000
FFFC01FFFFFFFFFFFF8000
FFFC01FFFFFFFFFFFFE000
FFFC01FFFFFFFFFFFFF000
FFFC01FFFFFFFFFFFFF800
FFFC01FFFFFFFFFFFFFC00
FFFC01FFFFFFFFFFFFFE00
FFFC000000000007FFFE00
FFFC000000000000FFFF00
FFFC0000000000007FFF00
FFFC0000000000003FFF80
FFFC0000000000001FFF80
FFFC0000000000001FFF80
FFFC0000000000000FFF80
FFFC0000000000000FFFC0
FFFC0000000000000FFFC0
FFFC0000000000000FFFC0
FFFC0000000000000FFFC0
FFFC0000000000000FFFC0
FFFC0000000000000FFFC0
FFFC0000000000000FFF80
FFFC0000000000001FFF80
FFFC0000000000003FFF80
FFFC0000000000007FFF80
FFFC000000000000FFFF80
FFFC000000000007FFFF00
FFFC0000000000FFFFFF00
FFFFFFFFFFFFFFFFFFFF00
FFFFFFFFFFFFFFFFFFFE00
FFFFFFFFFFFFFFFFFFFC00
FFFFFFFFFFFFFFFFFFFC00
FFFFFFFFFFFFFFFFFFF800
FFFFFFFFFFFFFFFFFFF000
FFFFFFFFFFFFFFFFFFE000
FFFFFFFFFFFFFFFFFFC000
FFFFFFFFFFFFFFFFFF8000
FFFFFFFFFFFFFFFFFE0000
FFFFFFFFFFFFFFFFFC0000
FFFFFFFFFFFFFFFFE00000
FFFFFFFFFFFFFFFE000000
ENDCHAR
STARTCHAR C
ENCODING 67
SWIDTH 829 0
DWIDTH 86 0
BBX 78 76 4 0
BITMAP
00000001FFFFFFFFFFFC
0000003FFFFFFFFFFFFC
000001FFFFFFFFFFFFFC
000007FFFFFFFFFFFFFC
00001FFFFFFFFFFFFFFC
00007FFFFFFFFFFFFFFC
0001FFFFFFFFFFFFFFFC
0003FFFFFFFFFFFFFFFC
0007FFFFFFFFFFFFFFFC
000FFFFFFFFFFFFFFFFC
003FFFFFFFFFFFFFFFFC
003FFFFFFFFFFFFFFFFC
007FFFFFFFFFFFFFFFFC
00FFFFFFE00000000000
01FFFFF8000000000000
03FFFFE0000000000000
03FFFF80000000000000
07FFFE00000000000000
07FFFC00000000000000
0FFFF800000000000000
0FFFF000000000000000
1FFFE000000000000000
1FFFC000000000000000
1FFFC000000000000000
3FFF8000000000000000
3FFF0000000000000000
3FFF0000000000000000
7FFF0000000000000000
7FFE0000000000000000
7FFE0000000000000000
7FFC0000000000000000
7FFC0000000000000000
7FFC0000000000000000
FFFC0000000000000000
FFFC0000000000000000
FFFC0000000000000000
FFFC0000000000000000
FFFC0000000000000000
FFFC0000000000000000
FFFC0000000000000000
FFFC0000000000000000
7FFC0000000000000000
7FFC0000000000000000
7FFC0000000000000000
7FFC0000000000000000
7FFE0000000000000000
7FFE0000000000000000
3FFE0000000000000000
3FFF0000000000000000
3FFF0000000000000000
3FFF8000000000000000
1FFF8000000000000000
1FFFC000000000000000
1FFFC000000000000000
0FFFE000000000000000
0FFFF000000000000000
07FFF800000000000000
07FFFC00000000000000
03FFFF00000000000000
01FFFF80000000000000
01FFFFE0000000000000
00FFFFF8000000000000
007FFFFFE00000000000
003FFFFFFFFFFFFFFFFC
003FFFFFFFFFFFFFFFFC
001FFFFFFFFFFFFFFFFC
000FFFFFFFFFFFFFFFFC
0003FFFFFFFFFFFFFFFC
0001FFFFFFFFFFFFFFFC
0000FFFFFFFFFFFFFFFC
00003FFFFFFFFFFFFFFC
00001FFFFFFFFFFFFFFC
000007FFFFFFFFFFFFFC
000000FFFFFFFFFFFFFC
0000003FFFFFFFFFFFFC
00000001FFFFFFFFFFFC
ENDCHAR
STARTCHAR D
ENCODING 68
SWIDTH 879 0
DWIDTH 91 0
BBX 80 76 7 0
BITMAP
FFFFFFFFFFFFC0000000
FFFFFFFFFFFFFE000000
FFFFFFFFFFFFFFC00000
FFFFFFFFFFFFFFF00000
FFFFFFFFFFFFFFFC0000
FFFFFFFFFFFFFFFF0000
FFFFFFFFFFFFFFFF8000
FFFFFFFFFFFFFFFFE000
FFFFFFFFFFFFFFFFF000
FFFFFFFFFFFFFFFFF800
FFFFFFFFFFFFFFFFFC00
FFFFFFFFFFFFFFFFFE00
FFFFFFFFFFFFFFFFFF00
FFF800000003FFFFFF80
FFF8000000001FFFFF80
FFF80000000003FFFFC0
FFF80000000001FFFFE0
FFF800000000007FFFE0
FFF800000000003FFFF0
FFF800000000000FFFF0
FFF8000000000007FFF8
FFF8000000000007FFF8
FFF8000000000003FFFC
FFF8000000000001FFFC
FFF8000000000001FFFC
FFF8000000000000FFFE
FFF80000000000007FFE
FFF80000000000007FFE
FFF80000000000007FFE
FFF80000000000003FFE
FFF80000000000003FFF
FFF80000000000003FFF
FFF80000000000003FFF
FFF80000000000001FFF
FFF80000000000001FFF
FFF80000000000001FFF
FFF80000000000001FFF
FFF80000000000001FFF
FFF80000000000001FFF
FFF80000000000001FFF
FFF80000000000001FFF
FFF80000000000001FFF
FFF80000000000001FFF
FFF80000000000003FFF
FFF80000000000003FFF
FFF80000000000003FFE
FFF80000000000003FFE
FFF80000000000007FFE
FFF80000000000007FFE
FFF8000000000000FFFC
FFF8000000000000FFFC
FFF8000000000001FFFC
FFF8000000000001FFF8
FFF8000000000003FFF8
FFF8000000000007FFF8
FFF800000000000FFFF0
FFF800000000001FFFF0
FFF800000000003FFFE0
FFF800000000007FFFE0
FFF80000000001FFFFC0
FFF80000000003FFFF80
FFF8000000001FFFFF80
FFF800000003FFFFFF00
FFFFFFFFFFFFFFFFFE00
FFFFFFFFFFFFFFFFFC00
FFFFFFFFFFFFFFFFF800
FFFFFFFFFFFFFFFFF000
FFFFFFFFFFFFFFFFE000
FFFFFFFFFFFFFFFFC000
FFFFFFFFFFFFFFFF0000
FFFFFFFFFFFFFFFE0000
FFFFFFFFFFFFFFF80000
FFFFFFFFFFFFFFE00000
FFFFFFFFFFFFFF800000
FFFFFFFFFFFFFC000000
FFFFFFFFFFFFC0000000
ENDCHAR
STARTCHAR E
ENCODING 69
SWIDTH 759 0
DWIDTH 79 0
BBX 67 76 7 0
BITMAP
FFFFFFFFFFFFFFFFE0
FFFFFFFFFFFFFFFFE0
FFFFFFFFFFFFFFFFE0
FFFFFFFFFFFFFFFFE0
FFFFFFFFFFFFFFFFE0
FFFFFFFFFFFFFFFFE0
FFFFFFFFFFFFFFFFE0
FFFFFFFFFFFFFFFFE0
FFFFFFFFFFFFFFFFE0
FFFFFFFFFFFFFFFFE0
FFFFFFFFFFFFFFFFE0
FFFFFFFFFFFFFFFFE0
FFFFFFFFFFFFFFFFE0
FFF800000000000000
FFF800000000000000
FFF800000000000000
FFF800000000000000
FFF800000000000000
FFF800000000000000
FFF800000000000000
FFF800000000000000
FFF800000000000000
FFF800000000000000
FFF800000000000000
FFF800000000000000
FFF800000000000000
FFF800000000000000
FFF800000000000000
FFF800000000000000
FFF800000000000000
FFF800000000000000
FFF800000000000000
FFF803FFFFFFFFFF00
FFF803FFFFFFFFFF00
FFF803FFFFFFFFFF00
FFF803FFFFFFFFFF00
FFF803FFFFFFFFFF00
FFF803FFFFFFFFFF00
FFF803FFFFFFFFFF00
FFF803FFFFFFFFFF00
FFF803FFFFFFFFFF00
FFF803FFFFFFFFFF00
FFF803FFFFFFFFFF00
FFF800000000000000
FFF800000000000000
FFF800000000000000
FFF800000000000000
FFF800000000000000
FFF800000000000000
FFF800000000000000
FFF800000000000000
FFF800000000000000
FFF800000000000000
FFF800000000000000
FFF800000000000000
FFF800000000000000
FFF800000000000000
FFF800000000000000
FFF800000000000000
FFF800000000000000
FFF800000000000000
FFF800000000000000
FFF800000000000000
FFFFFFFFFFFFFFFFE0
FFFFFFFFFFFFFFFFE0
FFFFFFFFFFFFFFFFE0
FFFFFFFFFFFFFFFFE0
FFFFFFFFFFFFFFFFE0
FFFFFFFFFFFFFFFFE0
FFFFFFFFFFFFFFFFE0
FFFFFFFFFFFFFFFFE0
FFFFFFFFFFFFFFFFE0
FFFFFFFFFFFFFFFFE0
FFFFFFFFFFFFFFFFE0
FFFFFFFFFFFFFFFFE0
FFFFFFFFFFFFFFFFE0
ENDCHAR
STARTCHAR F
ENCODING 70
SWIDTH 705 0
DWIDTH 73 0
BBX 64 76 7 0
BITMAP
FFFFFFFFFFFFFFFF
FFFFFFFFFFFFFFFF
FFFFFFFFFFFFFFFF
FFFFFFFFFFFFFFFF
FFFFFFFFFFFFFFFF
FFFFFFFFFFFFFFFF
FFFFFFFFFFFFFFFF
FFFFFFFFFFFFFFFF
FFFFFFFFFFFFFFFF
FFFFFFFFFFFFFFFF
FFFFFFFFFFFFFFFF
FFFFFFFFFFFFFFFF
FFFFFFFFFFFFFFFF
FFF8000000000000
FFF8000000000000
FFF8000000000000
FFF8000000000000
FFF8000000000000
FFF8000000000000
FFF8000000000000
FFF8000000000000
FFF8000000000000
FFF8000000000000
FFF8000000000000
FFF8000000000000
FFF8000000000000
FFF8000000000000
FFF8000000000000
FFF8000000000000
FFF8000000000000
FFF8000000000000
FFF8000000000000
FFF8000000000000
FFF803FFFFFFFFF8
FFF803FFFFFFFFF8
FFF803FFFFFFFFF8
FFF803FFFFFFFFF8
FFF803FFFFFFFFF8
FFF803FFFFFFFFF8
FFF803FFFFFFFFF8
FFF803FFFFFFFFF8
FFF803FFFFFFFFF8
FFF803FFFFFFFFF8
FFF803FFFFFFFFF8
FFF803FFFFFFFFF8
FFF8000000000000
FFF8000000000000
FFF8000000000000
FFF8000000000000
FFF8000000000000
FFF8000000000000
FFF8000000000000
FFF8000000000000
FFF8000000000000
FFF8000000000000
FFF8000000000000
FFF8000000000000
FFF8000000000000
FFF8000000000000
FFF8000000000000
FFF8000000000000
FFF8000000000000
FFF8000000000000
FFF8000000000000
FFF8000000000000
FFF8000000000000
FFF8000000000000
FFF8000000000000
FFF8000000000000
FFF8000000000000
FFF8000000000000
FFF8000000000000
FFF8000000000000
FFF8000000000000
FFF8000000000000
FFF8000000000000
ENDCHAR
STARTCHAR G
ENCODING 71
SWIDTH 888 0
DWIDTH 92 0
BBX 83 76 4 0
BITMAP
00000001FFFFFFFFFFFC00
0000003FFFFFFFFFFFFC00
000001FFFFFFFFFFFFFC00
000007FFFFFFFFFFFFFC00
00001FFFFFFFFFFFFFFC00
00007FFFFFFFFFFFFFFC00
0001FFFFFFFFFFFFFFFC00
0003FFFFFFFFFFFFFFFC00
0007FFFFFFFFFFFFFFFC00
000FFFFFFFFFFFFFFFFC00
003FFFFFFFFFFFFFFFFC00
003FFFFFFFFFFFFFFFFC00
007FFFFFFFFFFFFFFFFC00
00FFFFFFE0000000000000
01FFFFF800000000000000
03FFFFE000000000000000
03FFFF8000000000000000
07FFFE0000000000000000
07FFFC0000000000000000
0FFFF80000000000000000
0FFFF00000000000000000
1FFFE00000000000000000
1FFFC00000000000000000
1FFFC00000000000000000
3FFF800000000000000000
3FFF000000000000000000
3FFF000000000000000000
7FFF000000000000000000
7FFE000000000000000000
7FFE000000000000000000
7FFC000000000000000000
7FFC000000000000000000
7FFC00001FFFFFFFFFFFE0
FFFC00001FFFFFFFFFFFE0
FFFC00001FFFFFFFFFFFE0
FFFC00001FFFFFFFFFFFE0
FFFC00001FFFFFFFFFFFE0
FFFC00001FFFFFFFFFFFE0
FFFC00001FFFFFFFFFFFE0
FFFC00001FFFFFFFFFFFE0
FFFC00001FFFFFFFFFFFE0
7FFC00001FFFFFFFFFFFE0
7FFC00001FFFFFFFFFFFE0
7FFC00000000000007FFE0
7FFC00000000000007FFE0
7FFE00000000000007FFE0
7FFE00000000000007FFE0
3FFE00000000000007FFE0
3FFF00000000000007FFE0
3FFF00000000000007FFE0
3FFF80000000000007FFE0
1FFF80000000000007FFE0
1FFFC0000000000007FFE0
1FFFC0000000000007FFE0
0FFFE0000000000007FFE0
0FFFF0000000000007FFE0
07FFF8000000000007FFE0
07FFFC000000000007FFE0
03FFFF000000000007FFE0
01FFFF800000000007FFE0
01FFFFE00000000007FFE0
00FFFFF80000000007FFE0
007FFFFFE000000007FFE0
003FFFFFFFFFFFFFFFFFE0
003FFFFFFFFFFFFFFFFFE0
001FFFFFFFFFFFFFFFFFE0
000FFFFFFFFFFFFFFFFFE0
0003FFFFFFFFFFFFFFFFE0
0001FFFFFFFFFFFFFFFFE0
0000FFFFFFFFFFFFFFFFE0
00003FFFFFFFFFFFFFFFE0
00001FFFFFFFFFFFFFFFE0
000007FFFFFFFFFFFFFFE0
000000FFFFFFFFFFFFFFE0
0000003FFFFFFFFFFFFFE0
00000001FFFFFFFFFFFFE0
ENDCHAR
STARTCHAR H
ENCODING 72
SWIDTH 838 0
DWIDTH 87 0
BBX 74 76 7 0
BITMAP
FFF800000000000FFFC0
FFF800000000000FFFC0
FFF800000000000FFFC0
FFF800000000000FFFC0
FFF800000000000FFFC0
FFF800000000000FFFC0
FFF800000000000FFFC0
FFF800000000000FFFC0
FFF800000000000FFFC0
FFF800000000000FFFC0
FFF800000000000FFFC0
FFF800000000000FFFC0
FFF800000000000FFFC0
FFF800000000000FFFC0
FFF800000000000FFFC0
FFF800000000000FFFC0
FFF800000000000FFFC0
FFF800000000000FFFC0
FFF800000000000FFFC0
FFF800000000000FFFC0
FFF800000000000FFFC0
FFF800000000000FFFC0
FFF800000000000FFFC0
FFF800000000000FFFC0
FFF800000000000FFFC0
FFF800000000000FFFC0
FFF800000000000FFFC0
FFF800000000000FFFC0
FFF800000000000FFFC0
FFF800000000000FFFC0
FFF800000000000FFFC0
FFF803FFFFFFFFFFFFC0
FFF803FFFFFFFFFFFFC0
FFF803FFFFFFFFFFFFC0
FFF803FFFFFFFFFFFFC0
FFF803FFFFFFFFFFFFC0
FFF803FFFFFFFFFFFFC0
FFF803FFFFFFFFFFFFC0
FFF803FFFFFFFFFFFFC0
FFF803FFFFFFFFFFFFC0
FFF803FFFFFFFFFFFFC0
FFF803FFFFFFFFFFFFC0
FFF803FFFFFFFFFFFFC0
FFF800000000000FFFC0
FFF800000000000FFFC0
FFF800000000000FFFC0
FFF800000000000FFFC0
FFF800000000000FFFC0
FFF800000000000FFFC0
FFF800000000000FFFC0
FFF800000000000FFFC0
FFF800000000000FFFC0
FFF800000000000FFFC0
FFF800000000000FFFC0
FFF800000000000FFFC0
FFF800000000000FFFC0
FFF800000000000FFFC0
FFF800000000000FFFC0
FFF800000000000FFFC0
FFF800000000000FFFC0
FFF800000000000FFFC0
FFF800000000000FFFC0
FFF800000000000FFFC0
FFF800000000000FFFC0
FFF800000000000FFFC0
FFF800000000000FFFC0
FFF800000000000FFFC0
FFF800000000000FFFC0
FFF800000000000FFFC0
FFF800000000000FFFC0
FFF800000000000FFFC0
FFF800000000000FFFC0
FFF800000000000FFFC0
FFF800000000000FFFC0
FFF800000000000FFFC0
FFF800000000000FFFC0
ENDCHAR
STARTCHAR I
ENCODING 73
SWIDTH 267 0
DWIDTH 28 0
BBX 13 76 7 0
BITMAP
FFF8
FFF8
FFF8
FFF8
FFF8
FFF8
FFF8
FFF8
FFF8
FFF8
FFF8
FFF8
FFF8
FFF8
FFF8
FFF8
FFF8
FFF8
FFF8
FFF8
FFF8
FFF8
FFF8
FFF8
FFF8
FFF8
FFF8
FFF8
FFF8
FFF8
FFF8
FFF8
FFF8
FFF8
FFF8
FFF8
FFF8
FFF8
FFF8
FFF8
FFF8
FFF8
FFF8
FFF8
FFF8
FFF8
FFF8
FFF8
FFF8
FFF8
FFF8
FFF8
FFF8
FFF8
FFF8
FFF8
FFF8
FFF8
FFF8
FFF8
FFF8
FFF8
FFF8
FFF8
FFF8
FFF8
FFF8
FFF8
FFF8
FFF8
FFF8
FFF8
FFF8
FFF8
FFF8
FFF8
ENDCHAR
STARTCHAR J
ENCODING 74
SWIDTH 708 0
DWIDTH 74 0
BBX 66 76 2 0
BITMAP
00000000000007FFC0
00000000000007FFC0
00000000000007FFC0
00000000000007FFC0
00000000000007FFC0
00000000000007FFC0
00000000000007FFC0
00000000000007FFC0
00000000000007FFC0
00000000000007FFC0
00000000000007FFC0
00000000000007FFC0
00000000000007FFC0
00000000000007FFC0
00000000000007FFC0
00000000000007FFC0
00000000000007FFC0
00000000000007FFC0
00000000000007FFC0
00000000000007FFC0
00000000000007FFC0
00000000000007FFC0
00000000000007FFC0
00000000000007FFC0
00000000000007FFC0
00000000000007FFC0
00000000000007FFC0
00000000000007FFC0
00000000000007FFC0
00000000000007FFC0
00000000000007FFC0
00000000000007FFC0
00000000000007FFC0
00000000000007FFC0
00000000000007FFC0
00000000000007FFC0
00000000000007FFC0
00000000000007FFC0
00000000000007FFC0
00000000000007FFC0
00000000000007FFC0
00000000000007FFC0
00000000000007FFC0
00000000000007FFC0
00000000000007FFC0
00000000000007FFC0
00000000000007FFC0
0000000000000FFFC0
0000000000000FFFC0
0000000000000FFFC0
0000000000000FFF80
0000000000001FFF80
0000000000001FFF80
0000000000003FFF80
0000000000003FFF80
0000000000007FFF00
000000000000FFFF00
000000000001FFFF00
000000000003FFFE00
00000000000FFFFE00
00000000003FFFFC00
0000000001FFFFFC00
000000007FFFFFF800
FFFFFFFFFFFFFFF800
FFFFFFFFFFFFFFF000
FFFFFFFFFFFFFFE000
FFFFFFFFFFFFFFC000
FFFFFFFFFFFFFF8000
FFFFFFFFFFFFFF0000
FFFFFFFFFFFFFE0000
FFFFFFFFFFFFF80000
FFFFFFFFFFFFE00000
FFFFFFFFFFFF800000
FFFFFFFFFFFC000000
FFFFFFFFFFE0000000
FFFFFFFFF800000000
ENDCHAR
STARTCHAR K
ENCODING 75
SWIDTH 875 0
DWIDTH 91 0
BBX 82 76 7 0
BITMAP
FFF800000000000FFFFF00
FFF800000000003FFFFC00
FFF800000000007FFFF800
FFF80000000000FFFFF000
FFF80000000003FFFFC000
FFF80000000007FFFF8000
FFF8000000000FFFFF0000
FFF8000000003FFFFC0000
FFF8000000007FFFF80000
FFF800000000FFFFF00000
FFF800000001FFFFC00000
FFF800000007FFFF800000
FFF80000000FFFFF000000
FFF80000001FFFFC000000
FFF80000007FFFF8000000
FFF8000000FFFFF0000000
FFF8000001FFFFC0000000
FFF8000003FFFF80000000
FFF800000FFFFF00000000
FFF800001FFFFC00000000
FFF800003FFFF800000000
FFF80000FFFFF000000000
FFF80001FFFFC000000000
FFF80003FFFF8000000000
FFF8000FFFFF0000000000
FFF8001FFFFC0000000000
FFF8003FFFF80000000000
FFF8007FFFF00000000000
FFF801FFFFC00000000000
FFF803FFFF800000000000
FFF807FFFF000000000000
FFF81FFFFC000000000000
FFF83FFFF8000000000000
FFF83FFFF0000000000000
FFF87FFFC0000000000000
FFF87FFF80000000000000
FFF87FFF00000000000000
FFF87FFE00000000000000
FFF87FFF80000000000000
FFF87FFFC0000000000000
FFF83FFFE0000000000000
FFF83FFFF8000000000000
FFF81FFFFC000000000000
FFF807FFFE000000000000
FFF803FFFF800000000000
FFF801FFFFC00000000000
FFF800FFFFE00000000000
FFF8003FFFF80000000000
FFF8001FFFFC0000000000
FFF8000FFFFE0000000000
FFF80003FFFF8000000000
FFF80001FFFFC000000000
FFF80000FFFFE000000000
FFF800007FFFF000000000
FFF800001FFFFC00000000
FFF800000FFFFE00000000
FFF8000007FFFF00000000
FFF8000003FFFFC0000000
FFF8000000FFFFE0000000
FFF80000007FFFF0000000
FFF80000003FFFFC000000
FFF80000000FFFFE000000
FFF800000007FFFF000000
FFF800000003FFFFC00000
FFF800000001FFFFE00000
FFF8000000007FFFF00000
FFF8000000003FFFFC0000
FFF8000000001FFFFE0000
FFF8000000000FFFFF0000
FFF80000000003FFFFC000
FFF80000000001FFFFE000
FFF80000000000FFFFF000
FFF800000000007FFFF800
FFF800000000001FFFFE00
FFF800000000000FFFFF00
FFF8000000000007FFFFC0
ENDCHAR
STARTCHAR L
ENCODING 76
SWIDTH 707 0
DWIDTH 74 0
BBX 64 76 7 0
BITMAP
FFF8000000000000
FFF8000000000000
FFF8000000000000
FFF8000000000000
FFF8000000000000
FFF8000000000000
FFF8000000000000
FFF8000000000000
FFF8000000000000
FFF8000000000000
FFF8000000000000
FFF8000000000000
FFF8000000000000
FFF8000000000000
FFF8000000000000
FFF8000000000000
FFF8000000000000
FFF8000000000000
FFF8000000000000
FFF8000000000000
FFF8000000000000
FFF8000000000000
FFF8000000000000
FFF8000000000000
FFF8000000000000
FFF8000000000000
FFF8000000000000
FFF8000000000000
FFF8000000000000
FFF8000000000000
FFF8000000000000
FFF8000000000000
FFF8000000000000
FFF8000000000000
FFF8000000000000
FFF8000000000000
FFF8000000000000
FFF8000000000000
FFF8000000000000
FFF8000000000000
FFF8000000000000
FFF8000000000000
FFF8000000000000
FFF8000000000000
FFF8000000000000
FFF8000000000000
FFF8000000000000
FFF8000000000000
FFF8000000000000
FFF8000000000000
FFF8000000000000
FFF8000000000000
FFF8000000000000
FFF8000000000000
FFF8000000000000
FFF8000000000000
FFF8000000000000
FFF8000000000000
FFF8000000000000
FFF8000000000000
FFF8000000000000
FFF8000000000000
FFF8000000000000
FFFFFFFFFFFFFFFF
FFFFFFFFFFFFFFFF
FFFFFFFFFFFFFFFF
FFFFFFFFFFFFFFFF
FFFFFFFFFFFFFFFF
FFFFFFFFFFFFFFFF
FFFFFFFFFFFFFFFF
FFFFFFFFFFFFFFFF
FFFFFFFFFFFFFFFF
FFFFFFFFFFFFFFFF
FFFFFFFFFFFFFFFF
FFFFFFFFFFFFFFFF
FFFFFFFFFFFFFFFF
ENDCHAR
STARTCHAR M
ENCODING 77
SWIDTH 1115 0
DWIDTH 116 0
BBX 112 77 2 -1
BITMAP
000000F80000000000001F800000
000003FE0000000000003FC00000
000007FF0000000000007FE00000
000007FF800000000000FFF00000
00000FFF800000000000FFF00000
00000FFFC00000000001FFF00000
00000FFFC00000000001FFF80000
00001FFFE00000000003FFF80000
00001FFFE00000000003FFF80000
00001FFFE00000000003FFFC0000
00001FFFF00000000007FFFC0000
00003FFFF00000000007FFFC0000
00003FFFF8000000000FFFFC0000
00003FFFF8000000000FFFFE0000
00007FFFFC000000001FFFFE0000
00007FFFFC000000001FFFFE0000
00007FFFFC000000003FFFFE0000
00007FFFFE000000003FFFFF0000
0000FFFFFE000000003FFFFF0000
0000FFFFFF000000007FFFFF0000
0000FFFFFF000000007FFFFF8000
0001FFFFFF80000000FFFFFF8000
0001FFFFFF80000000FFFFFF8000
0001FFFFFFC0000001FFFFFF8000
0001FFFFFFC0000001FFF7FFC000
0003FFE7FFC0000001FFE7FFC000
0003FFE7FFE0000003FFE7FFC000
0003FFE3FFE0000003FFC7FFC000
0003FFE3FFF0000007FFC3FFE000
0007FFC1FFF0000007FFC3FFE000
0007FFC1FFF800000FFF83FFE000
0007FFC1FFF800000FFF83FFF000
000FFF80FFF800001FFF01FFF000
000FFF80FFFC00001FFF01FFF000
000FFF807FFC00001FFE01FFF000
000FFF807FFE00003FFE00FFF800
001FFF003FFE00003FFC00FFF800
001FFF003FFF00007FFC00FFF800
001FFF001FFF00007FFC00FFFC00
001FFF001FFF8000FFF8007FFC00
003FFE001FFF8000FFF8007FFC00
003FFE000FFF8001FFF0007FFC00
003FFE000FFFC001FFF0007FFE00
007FFC0007FFC001FFE0003FFE00
007FFC0007FFE003FFE0003FFE00
007FFC0003FFE003FFE0003FFE00
007FFC0003FFF007FFC0001FFF00
00FFF80001FFF007FFC0001FFF00
00FFF80001FFF00FFF80001FFF00
00FFF80001FFF80FFF80001FFF80
00FFF80000FFF80FFF00000FFF80
01FFF00000FFFC1FFF00000FFF80
01FFF000007FFC1FFE00000FFF80
01FFF000007FFE3FFE00000FFFC0
03FFE000003FFE3FFE000007FFC0
03FFE000003FFF7FFC000007FFC0
03FFE000003FFF7FFC000007FFC0
03FFE000001FFFFFF8000003FFE0
07FFC000001FFFFFF8000003FFE0
07FFC000000FFFFFF0000003FFE0
07FFC000000FFFFFF0000003FFF0
0FFF80000007FFFFE0000001FFF0
0FFF80000007FFFFE0000001FFF0
0FFF80000003FFFFE0000001FFF0
0FFF80000003FFFFC0000000FFF8
1FFF00000003FFFFC0000000FFF8
1FFF00000001FFFF80000000FFF8
1FFF00000001FFFF80000000FFF8
1FFF00000000FFFF000000007FFC
3FFE00000000FFFF000000007FFC
3FFE000000007FFE000000007FFC
3FFE000000007FFE000000007FFE
7FFC000000007FFE000000003FFE
7FFC000000003FFC000000003FFE
7FFC000000001FF8000000003FFE
7FFC000000000FF0000000001FFF
80000000000007E0000000000000
ENDCHAR
STARTCHAR N
ENCODING 78
SWIDTH 873 0
DWIDTH 91 0
BBX 79 76 6 0
BITMAP
0FC00000000000003FFE
1FE00000000000003FFE
3FF00000000000003FFE
7FF80000000000003FFE
7FFC0000000000003FFE
FFFE0000000000003FFE
FFFF0000000000003FFE
FFFFC000000000003FFE
FFFFE000000000003FFE
FFFFF000000000003FFE
FFFFF800000000003FFE
FFFFFC00000000003FFE
FFFFFE00000000003FFE
FFFFFF00000000003FFE
FFFFFF80000000003FFE
FFFFFFC0000000003FFE
FFFFFFE0000000003FFE
FFFFFFF0000000003FFE
FFFFFFF8000000003FFE
FFFFFFFC000000003FFE
FFFFFFFE000000003FFE
FFFFFFFF000000003FFE
FFFBFFFF800000003FFE
FFF9FFFFC00000003FFE
FFF8FFFFE00000003FFE
FFF87FFFF00000003FFE
FFF83FFFF80000003FFE
FFF81FFFFC0000003FFE
FFF80FFFFE0000003FFE
FFF807FFFF0000003FFE
FFF803FFFF8000003FFE
FFF801FFFFC000003FFE
FFF800FFFFE000003FFE
FFF8007FFFF000003FFE
FFF8003FFFF800003FFE
FFF8001FFFFC00003FFE
FFF8000FFFFE00003FFE
FFF80007FFFF00003FFE
FFF80003FFFF80003FFE
FFF80001FFFFC0003FFE
FFF80000FFFFE0003FFE
FFF800007FFFF0003FFE
FFF800001FFFF8003FFE
FFF800000FFFFC003FFE
FFF8000007FFFE003FFE
FFF8000003FFFF003FFE
FFF8000001FFFF803FFE
FFF8000000FFFFC03FFE
FFF80000007FFFE03FFE
FFF80000003FFFF03FFE
FFF80000001FFFF83FFE
FFF80000000FFFFC3FFE
FFF800000007FFFE3FFE
FFF800000003FFFF3FFE
FFF800000001FFFFBFFE
FFF800000000FFFFFFFE
FFF8000000007FFFFFFE
FFF8000000003FFFFFFE
FFF8000000001FFFFFFE
FFF8000000000FFFFFFE
FFF80000000007FFFFFE
FFF80000000003FFFFFE
FFF80000000001FFFFFE
FFF80000000000FFFFFE
FFF800000000007FFFFE
FFF800000000003FFFFE
FFF800000000001FFFFE
FFF800000000000FFFFE
FFF8000000000007FFFE
FFF8000000000003FFFC
FFF8000000000001FFFC
FFF8000000000000FFFC
FFF80000000000007FFC
FFF80000000000003FF8
FFF80000000000001FF0
FFF800000000000007E0
ENDCHAR
STARTCHAR O
ENCODING 79
SWIDTH 968 0
DWIDTH 101 0
BBX 93 76 4 0
BITMAP
00000001FFFFFFFC00000000
0000003FFFFFFFFFE0000000
000001FFFFFFFFFFFC000000
000007FFFFFFFFFFFF000000
00001FFFFFFFFFFFFFC00000
00007FFFFFFFFFFFFFF00000
0001FFFFFFFFFFFFFFFC0000
0003FFFFFFFFFFFFFFFE0000
0007FFFFFFFFFFFFFFFF0000
000FFFFFFFFFFFFFFFFF8000
003FFFFFFFFFFFFFFFFFC000
003FFFFFFFFFFFFFFFFFE000
007FFFFFFFFFFFFFFFFFF000
00FFFFFFE000003FFFFFF800
01FFFFF800000001FFFFFC00
03FFFFE0000000003FFFFC00
03FFFF80000000000FFFFE00
07FFFE000000000007FFFF00
07FFFC000000000001FFFF00
0FFFF8000000000000FFFF80
0FFFF00000000000007FFF80
1FFFE00000000000003FFFC0
1FFFC00000000000001FFFC0
1FFFC00000000000001FFFC0
3FFF800000000000000FFFE0
3FFF000000000000000FFFE0
3FFF0000000000000007FFE0
7FFF0000000000000007FFE0
7FFE0000000000000003FFF0
7FFE0000000000000003FFF0
7FFC0000000000000003FFF0
7FFC0000000000000001FFF0
7FFC0000000000000001FFF0
FFFC0000000000000001FFF0
FFFC0000000000000001FFF0
FFFC0000000000000001FFF0
FFFC0000000000000001FFF8
FFFC0000000000000001FFF8
FFFC0000000000000001FFF0
FFFC0000000000000001FFF0
FFFC0000000000000001FFF0
7FFC0000000000000001FFF0
7FFC0000000000000001FFF0
7FFC0000000000000001FFF0
7FFC0000000000000001FFF0
7FFE0000000000000003FFF0
7FFE0000000000000003FFF0
3FFE0000000000000003FFE0
3FFF0000000000000007FFE0
3FFF0000000000000007FFE0
3FFF800000000000000FFFE0
1FFF800000000000000FFFC0
1FFFC00000000000001FFFC0
1FFFC00000000000003FFF80
0FFFE00000000000003FFF80
0FFFF00000000000007FFF00
07FFF8000000000000FFFF00
07FFFC000000000001FFFE00
03FFFF000000000007FFFE00
01FFFF80000000000FFFFC00
01FFFFE0000000003FFFFC00
00FFFFF800000001FFFFF800
007FFFFFE000003FFFFFF000
003FFFFFFFFFFFFFFFFFE000
003FFFFFFFFFFFFFFFFFC000
001FFFFFFFFFFFFFFFFF8000
000FFFFFFFFFFFFFFFFF0000
0003FFFFFFFFFFFFFFFE0000
0001FFFFFFFFFFFFFFFC0000
0000FFFFFFFFFFFFFFF80000
00003FFFFFFFFFFFFFE00000
00001FFFFFFFFFFFFF800000
000007FFFFFFFFFFFE000000
000000FFFFFFFFFFF8000000
0000003FFFFFFFFFC0000000
00000001FFFFFFFC00000000
ENDCHAR
STARTCHAR P
ENCODING 80
SWIDTH 867 0
DWIDTH 90 0
BBX 80 76 7 0
BITMAP
FFFFFFFFFFFFFFE00000
FFFFFFFFFFFFFFFE0000
FFFFFFFFFFFFFFFFC000
FFFFFFFFFFFFFFFFF000
FFFFFFFFFFFFFFFFFC00
FFFFFFFFFFFFFFFFFE00
FFFFFFFFFFFFFFFFFF00
FFFFFFFFFFFFFFFFFF80
FFFFFFFFFFFFFFFFFFC0
FFFFFFFFFFFFFFFFFFE0
FFFFFFFFFFFFFFFFFFF0
FFFFFFFFFFFFFFFFFFF0
FFFFFFFFFFFFFFFFFFF8
FFF80000000000FFFFF8
FFF800000000000FFFFC
FFF8000000000007FFFC
FFF8000000000001FFFE
FFF8000000000000FFFE
FFF80000000000007FFE
FFF80000000000007FFF
FFF80000000000003FFF
FFF80000000000003FFF
FFF80000000000001FFF
FFF80000000000001FFF
FFF80000000000001FFF
FFF80000000000001FFF
FFF80000000000001FFF
FFF80000000000001FFF
FFF80000000000001FFF
FFF80000000000001FFF
FFF80000000000001FFF
FFF80000000000001FFF
FFF80000000000001FFF
FFF80000000000003FFF
FFF80000000000003FFF
FFF80000000000007FFE
FFF80000000000007FFE
FFF8000000000000FFFE
FFF8000000000001FFFC
FFF8000000000007FFFC
FFF800000000000FFFFC
FFF80000000000FFFFF8
FFF803FFFFFFFFFFFFF8
FFF803FFFFFFFFFFFFF0
FFF803FFFFFFFFFFFFE0
FFF803FFFFFFFFFFFFE0
FFF803FFFFFFFFFFFFC0
FFF803FFFFFFFFFFFF80
FFF803FFFFFFFFFFFF00
FFF803FFFFFFFFFFFE00
FFF803FFFFFFFFFFF800
FFF803FFFFFFFFFFE000
FFF803FFFFFFFFFF8000
FFF803FFFFFFFFFE0000
FFF803FFFFFFFFE00000
FFF80000000000000000
FFF80000000000000000
FFF80000000000000000
FFF80000000000000000
FFF80000000000000000
FFF80000000000000000
FFF80000000000000000
FFF80000000000000000
FFF80000000000000000
FFF80000000000000000
FFF80000000000000000
FFF80000000000000000
FFF80000000000000000
FFF80000000000000000
FFF80000000000000000
FFF80000000000000000
FFF80000000000000000
FFF80000000000000000
FFF80000000000000000
FFF80000000000000000
FFF80000000000000000
ENDCHAR
STARTCHAR Q
ENCODING 81
SWIDTH 968 0
DWIDTH 101 0
BBX 96 76 4 0
BITMAP
00000001FFFFFFFC00000000
0000003FFFFFFFFFE0000000
000001FFFFFFFFFFFC000000
000007FFFFFFFFFFFF000000
00001FFFFFFFFFFFFFC00000
00007FFFFFFFFFFFFFF00000
0001FFFFFFFFFFFFFFFC0000
0003FFFFFFFFFFFFFFFE0000
0007FFFFFFFFFFFFFFFF0000
000FFFFFFFFFFFFFFFFF8000
003FFFFFFFFFFFFFFFFFC000
003FFFFFFFFFFFFFFFFFE000
007FFFFFFFFFFFFFFFFFF000
00FFFFFFE000003FFFFFF800
01FFFFF800000001FFFFFC00
03FFFFE0000000003FFFFC00
03FFFF80000000000FFFFE00
07FFFE000000000007FFFF00
07FFFC000000000001FFFF00
0FFFF8000000000000FFFF80
0FFFF00000000000007FFF80
1FFFE00000000000003FFFC0
1FFFC00000000000001FFFC0
1FFFC00000000000001FFFC0
3FFF800000000000000FFFE0
3FFF000000000000000FFFE0
3FFF0000000000000007FFE0
7FFF0000000000000007FFE0
7FFE0000000000000003FFF0
7FFE0000000000000003FFF0
7FFC0000000000000003FFF0
7FFC0000000000000001FFF0
7FFC0000000000000001FFF0
FFFC0000000000000001FFF0
FFFC0000000000000001FFF0
FFFC0000000000000001FFF0
FFFC0000000000000001FFF8
FFFC0000000000000001FFF8
FFFC0000000000000001FFF0
FFFC0000000000000001FFF0
FFFC0000000000000001FFF0
7FFC0000000000000001FFF0
7FFC0000000000000001FFF0
7FFC0000000000000001FFF0
7FFC0000008000000001FFF0
7FFE0000007FFFE00003FFF0
7FFE0000001FFFF00003FFF0
3FFE0000000FFFF80003FFE0
3FFF00000007FFFC0007FFE0
3FFF00000003FFFE0007FFE0
3FFF80000000FFFF800FFFE0
1FFF800000007FFFC00FFFC0
1FFFC00000003FFFE01FFFC0
1FFFC00000001FFFF03FFF80
0FFFE000000007FFF83FFF80
0FFFF000000003FFFC7FFF00
07FFF800000001FFFFFFFF00
07FFFC00000000FFFFFFFE00
03FFFF000000003FFFFFFE00
01FFFF800000001FFFFFFC00
01FFFFE00000000FFFFFFC00
00FFFFF800000003FFFFF800
007FFFFFE000001FFFFFF000
003FFFFFFFFFFFFFFFFFE000
003FFFFFFFFFFFFFFFFFC000
001FFFFFFFFFFFFFFFFFE000
000FFFFFFFFFFFFFFFFFF000
0003FFFFFFFFFFFFFFFFF800
0001FFFFFFFFFFFFFFFFFE00
0000FFFFFFFFFFFFFFFFFF00
00003FFFFFFFFFFFFFFFFF80
00001FFFFFFFFFFFFFFFFFC0
000007FFFFFFFFFFFF1FFFF0
000000FFFFFFFFFFF80FFFF8
0000003FFFFFFFFFC007FFFC
00000001FFFFFFFC0003FFFF
ENDCHAR
STARTCHAR R
ENCODING 82
SWIDTH 921 0
DWIDTH 96 0
BBX 88 76 7 0
BITMAP
FFFFFFFFFFFFFFF0000000
FFFFFFFFFFFFFFFF000000
FFFFFFFFFFFFFFFFE00000
FFFFFFFFFFFFFFFFF80000
FFFFFFFFFFFFFFFFFC0000
FFFFFFFFFFFFFFFFFF0000
FFFFFFFFFFFFFFFFFF8000
FFFFFFFFFFFFFFFFFFC000
FFFFFFFFFFFFFFFFFFE000
FFFFFFFFFFFFFFFFFFF000
FFFFFFFFFFFFFFFFFFF000
FFFFFFFFFFFFFFFFFFF800
FFFFFFFFFFFFFFFFFFFC00
FFF800000000007FFFFC00
FFF8000000000007FFFE00
FFF8000000000001FFFE00
FFF8000000000000FFFF00
FFF80000000000007FFF00
FFF80000000000003FFF00
FFF80000000000003FFF00
FFF80000000000001FFF80
FFF80000000000001FFF80
FFF80000000000000FFF80
FFF80000000000000FFF80
FFF80000000000000FFF80
FFF80000000000000FFF80
FFF80000000000000FFF80
FFF80000000000000FFF80
FFF80000000000000FFF80
FFF80000000000000FFF80
FFF80000000000000FFF80
FFF80000000000000FFF80
FFF80000000000000FFF80
FFF80000000000000FFF80
FFF80000000000001FFF80
FFF80000000000001FFF80
FFF80000000000003FFF00
FFF80000000000003FFF00
FFF80000000000007FFF00
FFF8000000000000FFFE00
FFF8000000000001FFFE00
FFF8000000000007FFFC00
FFF800000000001FFFFC00
FFF803FFFFFFFFFFFFF800
FFF803FFFFFFFFFFFFF800
FFF803FFFFFFFFFFFFF000
FFF803FFFFFFFFFFFFE000
FFF803FFFFFFFFFFFFC000
FFF803FFFFFFFFFFFF8000
FFF803FFFFFFFFFFFF0000
FFF803FFFFFFFFFFFE0000
FFF803FFFFFFFFFFF80000
FFF803FFFFFFFFFFE00000
FFF803FFFFFFFFFFC00000
FFF803FFFFFFFFFFE00000
FFF8000000001FFFF00000
FFF8000000000FFFF80000
FFF80000000007FFFC0000
FFF80000000003FFFE0000
FFF80000000001FFFF0000
FFF80000000000FFFF8000
FFF800000000007FFFC000
FFF800000000007FFFE000
FFF800000000003FFFF000
FFF800000000001FFFF800
FFF800000000000FFFFC00
FFF8000000000007FFFE00
FFF8000000000003FFFF00
FFF8000000000001FFFF80
FFF8000000000000FFFFC0
FFF80000000000007FFFE0
FFF80000000000003FFFF0
FFF80000000000001FFFF8
FFF80000000000001FFFFC
FFF80000000000000FFFFE
FFF800000000000007FFFF
ENDCHAR
STARTCHAR S
ENCODING 83
SWIDTH 880 0
DWIDTH 92 0
BBX 82 76 5 0
BITMAP
00003FFFFFFFFFFFFFFC00
0003FFFFFFFFFFFFFFFC00
000FFFFFFFFFFFFFFFFC00
003FFFFFFFFFFFFFFFFC00
00FFFFFFFFFFFFFFFFFC00
01FFFFFFFFFFFFFFFFFC00
03FFFFFFFFFFFFFFFFFC00
07FFFFFFFFFFFFFFFFFC00
0FFFFFFFFFFFFFFFFFFC00
0FFFFFFFFFFFFFFFFFFC00
1FFFFFFFFFFFFFFFFFFC00
3FFFFFFFFFFFFFFFFFFC00
3FFFFFFFFFFFFFFFFFFC00
3FFFF80000000000000000
7FFFC00000000000000000
7FFF800000000000000000
7FFF000000000000000000
7FFE000000000000000000
7FFE000000000000000000
FFFE000000000000000000
FFFC000000000000000000
FFFC000000000000000000
FFFC000000000000000000
FFFC000000000000000000
7FFC000000000000000000
7FFC000000000000000000
7FFE000000000000000000
7FFE000000000000000000
7FFF000000000000000000
3FFF800000000000000000
3FFFC00000000000000000
1FFFF00000000000000000
1FFFFFFFFFFFFFFF800000
0FFFFFFFFFFFFFFFF80000
0FFFFFFFFFFFFFFFFE0000
07FFFFFFFFFFFFFFFF8000
03FFFFFFFFFFFFFFFFE000
01FFFFFFFFFFFFFFFFF000
00FFFFFFFFFFFFFFFFF800
003FFFFFFFFFFFFFFFFC00
000FFFFFFFFFFFFFFFFC00
0003FFFFFFFFFFFFFFFE00
00003FFFFFFFFFFFFFFF00
0000000000000003FFFF00
00000000000000007FFF00
00000000000000003FFF80
00000000000000001FFF80
00000000000000000FFF80
000000000000000007FF80
000000000000000007FF80
000000000000000007FFC0
000000000000000007FFC0
000000000000000007FFC0
000000000000000007FFC0
000000000000000007FFC0
000000000000000007FFC0
000000000000000007FFC0
00000000000000000FFF80
00000000000000000FFF80
00000000000000001FFF80
00000000000000003FFF80
0000000000000000FFFF80
0000000000000007FFFF00
3FFFFFFFFFFFFFFFFFFF00
3FFFFFFFFFFFFFFFFFFF00
3FFFFFFFFFFFFFFFFFFE00
3FFFFFFFFFFFFFFFFFFC00
3FFFFFFFFFFFFFFFFFFC00
3FFFFFFFFFFFFFFFFFF800
3FFFFFFFFFFFFFFFFFF000
3FFFFFFFFFFFFFFFFFE000
3FFFFFFFFFFFFFFFFFC000
3FFFFFFFFFFFFFFFFF0000
3FFFFFFFFFFFFFFFFE0000
3FFFFFFFFFFFFFFFF00000
3FFFFFFFFFFFFFFF000000
ENDCHAR
STARTCHAR T
ENCODING 84
SWIDTH 720 0
DWIDTH 75 0
BBX 71 76 2 0
BITMAP
FFFFFFFFFFFFFFFFFE
FFFFFFFFFFFFFFFFFE
FFFFFFFFFFFFFFFFFE
FFFFFFFFFFFFFFFFFE
FFFFFFFFFFFFFFFFFE
FFFFFFFFFFFFFFFFFE
FFFFFFFFFFFFFFFFFE
FFFFFFFFFFFFFFFFFE
FFFFFFFFFFFFFFFFFE
FFFFFFFFFFFFFFFFFE
FFFFFFFFFFFFFFFFFE
FFFFFFFFFFFFFFFFFE
FFFFFFFFFFFFFFFFFE
00000007FFC0000000
00000007FFC0000000
00000007FFC0000000
00000007FFC0000000
00000007FFC0000000
00000007FFC0000000
00000007FFC0000000
00000007FFC0000000
00000007FFC0000000
00000007FFC0000000
00000007FFC0000000
00000007FFC0000000
00000007FFC0000000
00000007FFC0000000
00000007FFC0000000
00000007FFC0000000
00000007FFC0000000
00000007FFC0000000
00000007FFC0000000
00000007FFC0000000
00000007FFC0000000
00000007FFC0000000
00000007FFC0000000
00000007FFC0000000
00000007FFC0000000
00000007FFC0000000
00000007FFC0000000
00000007FFC0000000
00000007FFC0000000
00000007FFC0000000
00000007FFC0000000
00000007FFC0000000
00000007FFC0000000
00000007FFC0000000
00000007FFC0000000
00000007FFC0000000
00000007FFC0000000
00000007FFC0000000
00000007FFC0000000
00000007FFC0000000
00000007FFC0000000
00000007FFC0000000
00000007FFC0000000
00000007FFC0000000
00000007FFC0000000
00000007FFC0000000
00000007FFC0000000
00000007FFC0000000
00000007FFC0000000
00000007FFC0000000
00000007FFC0000000
00000007FFC0000000
00000007FFC0000000
00000007FFC0000000
00000007FFC0000000
00000007FFC0000000
00000007FFC0000000
00000007FFC0000000
00000007FFC0000000
00000007FFC0000000
00000007FFC0000000
00000007FFC0000000
00000007FFC0000000
ENDCHAR
STARTCHAR U
ENCODING 85
SWIDTH 889 0
DWIDTH 92 0
BBX 82 77 5 -1
BITMAP
FFFC00000000000007FFC0
FFFC00000000000007FFC0
FFFC00000000000007FFC0
FFFC00000000000007FFC0
FFFC00000000000007FFC0
FFFC00000000000007FFC0
FFFC00000000000007FFC0
FFFC00000000000007FFC0
FFFC00000000000007FFC0
FFFC00000000000007FFC0
FFFC00000000000007FFC0
FFFC00000000000007FFC0
FFFC00000000000007FFC0
FFFC00000000000007FFC0
FFFC00000000000007FFC0
FFFC00000000000007FFC0
FFFC00000000000007FFC0
FFFC00000000000007FFC0
FFFC00000000000007FFC0
FFFC00000000000007FFC0
FFFC00000000000007FFC0
FFFC00000000000007FFC0
FFFC00000000000007FFC0
FFFC00000000000007FFC0
FFFC00000000000007FFC0
FFFC00000000000007FFC0
FFFC00000000000007FFC0
FFFC00000000000007FFC0
FFFC00000000000007FFC0
FFFC00000000000007FFC0
FFFC00000000000007FFC0
FFFC00000000000007FFC0
FFFC00000000000007FFC0
FFFC00000000000007FFC0
FFFC00000000000007FFC0
FFFC00000000000007FFC0
FFFC00000000000007FFC0
FFFC00000000000007FFC0
FFFC00000000000007FFC0
FFFC00000000000007FFC0
FFFC00000000000007FFC0
FFFC00000000000007FFC0
FFFC00000000000007FFC0
FFFC00000000000007FFC0
FFFC00000000000007FFC0
FFFC00000000000007FFC0
7FFC00000000000007FFC0
7FFC00000000000007FFC0
7FFC00000000000007FFC0
7FFE0000000000000FFFC0
7FFE0000000000000FFFC0
7FFE0000000000000FFF80
7FFF0000000000000FFF80
7FFF0000000000001FFF80
3FFF0000000000001FFF80
3FFF8000000000003FFF80
3FFFC000000000003FFF00
1FFFC000000000007FFF00
1FFFE00000000000FFFF00
1FFFF80000000003FFFE00
0FFFFC0000000007FFFE00
0FFFFF000000001FFFFC00
07FFFFE0000000FFFFFC00
07FFFFFF80003FFFFFF800
03FFFFFFFFFFFFFFFFF000
01FFFFFFFFFFFFFFFFF000
00FFFFFFFFFFFFFFFFE000
00FFFFFFFFFFFFFFFFC000
003FFFFFFFFFFFFFFF8000
001FFFFFFFFFFFFFFF0000
000FFFFFFFFFFFFFFC0000
0003FFFFFFFFFFFFF80000
0001FFFFFFFFFFFFE00000
00003FFFFFFFFFFF800000
00000FFFFFFFFFFC000000
000000FFFFFFFFE0000000
00000007FFFFF800000000
ENDCHAR
STARTCHAR V
ENCODING 86
SWIDTH 989 0
DWIDTH 103 0
BBX 100 77 1 -1
BITMAP
FFFF800000000000000007FFF0
7FFF80000000000000000FFFE0
3FFFC0000000000000000FFFE0
1FFFE0000000000000001FFFC0
1FFFE0000000000000003FFFC0
0FFFF0000000000000003FFF80
0FFFF0000000000000007FFF00
07FFF8000000000000007FFF00
03FFFC00000000000000FFFE00
03FFFC00000000000000FFFE00
01FFFE00000000000001FFFC00
01FFFE00000000000003FFF800
00FFFF00000000000003FFF800
007FFF00000000000007FFF000
007FFF80000000000007FFF000
003FFFC000000000000FFFE000
003FFFC000000000001FFFC000
001FFFE000000000001FFFC000
000FFFE000000000003FFF8000
000FFFF000000000003FFF8000
0007FFF800000000007FFF0000
0007FFF800000000007FFE0000
0003FFFC0000000000FFFE0000
0001FFFC0000000001FFFC0000
0001FFFE0000000001FFFC0000
0000FFFE0000000003FFF80000
0000FFFF0000000003FFF00000
00007FFF8000000007FFF00000
00007FFF800000000FFFE00000
00003FFFC00000000FFFE00000
00001FFFC00000001FFFC00000
00001FFFE00000001FFF800000
00000FFFF00000003FFF800000
00000FFFF00000003FFF000000
000007FFF80000007FFF000000
000003FFF8000000FFFE000000
000003FFFC000000FFFC000000
000001FFFC000001FFFC000000
000001FFFE000001FFF8000000
000000FFFF000003FFF8000000
0000007FFF000003FFF0000000
0000007FFF800007FFE0000000
0000003FFF80000FFFE0000000
0000003FFFC0000FFFC0000000
0000001FFFE0001FFFC0000000
0000000FFFE0001FFF80000000
0000000FFFF0003FFF00000000
00000007FFF0007FFF00000000
00000007FFF8007FFE00000000
00000003FFF800FFFE00000000
00000001FFFC00FFFC00000000
00000001FFFE01FFF800000000
00000000FFFE01FFF800000000
00000000FFFF03FFF000000000
000000007FFF07FFF000000000
000000003FFF87FFE000000000
000000003FFFCFFFC000000000
000000001FFFCFFFC000000000
000000001FFFFFFF8000000000
000000000FFFFFFF8000000000
0000000007FFFFFF0000000000
0000000007FFFFFE0000000000
0000000003FFFFFE0000000000
0000000003FFFFFC0000000000
0000000001FFFFFC0000000000
0000000000FFFFF80000000000
0000000000FFFFF00000000000
00000000007FFFF00000000000
00000000007FFFE00000000000
00000000003FFFE00000000000
00000000001FFFC00000000000
00000000001FFF800000000000
00000000000FFF800000000000
00000000000FFF000000000000
000000000007FE000000000000
000000000003FC000000000000
000000000000F8000000000000
ENDCHAR
STARTCHAR W
ENCODING 87
SWIDTH 1268 0
DWIDTH 132 0
BBX 129 77 1 -1
BITMAP
FFFF800001FFFE000000000000003FFF80
7FFF800001FFFE000000000000003FFF80
3FFFC00000FFFF000000000000007FFF00
3FFFC00000FFFF000000000000007FFE00
1FFFE000007FFF80000000000000FFFE00
1FFFE000007FFF80000000000000FFFC00
0FFFF000003FFFC0000000000001FFFC00
0FFFF000003FFFC0000000000001FFF800
07FFF800001FFFE0000000000003FFF800
03FFF800000FFFE0000000000003FFF000
03FFFC00000FFFF0000000000007FFF000
01FFFC000007FFF000000000000FFFE000
01FFFE000007FFF800000000000FFFE000
00FFFE000003FFF800000000001FFFC000
00FFFF000003FFFC00000000001FFFC000
007FFF000001FFFC00000000003FFF8000
007FFF800001FFFE00000000003FFF0000
003FFF800000FFFE00000000007FFF0000
003FFFC00000FFFF00000000007FFE0000
001FFFC000007FFF0000000000FFFE0000
001FFFE000007FFF8000000000FFFC0000
000FFFE000003FFF8000000001FFFC0000
0007FFF000003FFFC000000001FFF80000
0007FFF800001FFFC000000003FFF80000
0003FFF800001FFFE000000003FFF00000
0003FFFC00000FFFE000000007FFF00000
0001FFFC00000FFFF000000007FFE00000
0001FFFE000007FFF00000000FFFE00000
0000FFFE000007FFF80000000FFFC00000
0000FFFF000003FFF80000001FFF800000
00007FFF000003FFFC0000001FFF800000
00007FFF800001FFFC0000003FFF000000
00003FFF800001FFFE0000007FFF000000
00003FFFC00000FFFE0000007FFE000000
00001FFFC00000FFFF000000FFFE000000
00000FFFE000007FFF000000FFFC000000
00000FFFE000007FFF800001FFFC000000
000007FFF000003FFF800001FFF8000000
000007FFF000003FFFC00003FFF8000000
000003FFF800003FFFC00003FFF0000000
000003FFF800007FFFE00007FFF0000000
000001FFFC0000FFFFE00007FFE0000000
000001FFFC0000FFFFF0000FFFE0000000
000000FFFE0001FFFFF0000FFFC0000000
000000FFFE0001FFFFF8001FFF80000000
0000007FFF0003FFFFF8001FFF80000000
0000007FFF8003FFFFFC003FFF00000000
0000003FFF8007FFFFFC003FFF00000000
0000001FFFC007FFFFFE007FFE00000000
0000001FFFC00FFFFFFE007FFE00000000
0000000FFFE01FFFFFFF00FFFC00000000
0000000FFFE01FFFFFFF00FFFC00000000
00000007FFF03FFF3FFF81FFF800000000
00000007FFF03FFF3FFF83FFF800000000
00000003FFF87FFE1FFFC3FFF000000000
00000003FFF87FFE1FFFC7FFF000000000
00000001FFFCFFFC0FFFE7FFE000000000
00000001FFFDFFF80FFFEFFFC000000000
00000000FFFFFFF807FFFFFFC000000000
00000000FFFFFFF007FFFFFF8000000000
000000007FFFFFF003FFFFFF8000000000
000000007FFFFFE001FFFFFF0000000000
000000003FFFFFE001FFFFFF0000000000
000000001FFFFFC000FFFFFE0000000000
000000001FFFFFC000FFFFFE0000000000
000000000FFFFF80007FFFFC0000000000
000000000FFFFF80007FFFFC0000000000
0000000007FFFF00003FFFF80000000000
0000000007FFFF00003FFFF80000000000
0000000003FFFE00001FFFF00000000000
0000000003FFFC00001FFFE00000000000
0000000001FFFC00000FFFE00000000000
0000000001FFF800000FFFC00000000000
0000000000FFF8000007FFC00000000000
00000000007FF0000003FF800000000000
00000000003FE0000001FF000000000000
00000000001F800000007C000000000000
ENDCHAR
STARTCHAR X
ENCODING 88
SWIDTH 1000 0
DWIDTH 104 0
BBX 99 76 2 0
BITMAP
1FFFFC00000000000003FFFF00
07FFFE00000000000007FFFC00
03FFFF0000000000000FFFF800
01FFFF8000000000001FFFF000
00FFFFC000000000003FFFE000
007FFFE000000000007FFFC000
003FFFF00000000000FFFF8000
001FFFF80000000001FFFF0000
000FFFFC0000000003FFFE0000
0007FFFE0000000007FFFC0000
0003FFFF000000000FFFF80000
0001FFFF800000001FFFF00000
0000FFFFC00000003FFFE00000
00007FFFE00000007FFFC00000
00003FFFF0000000FFFF800000
00001FFFF8000001FFFF000000
00000FFFFC000003FFFE000000
000007FFFE000007FFFC000000
000003FFFF00000FFFF8000000
000001FFFF80001FFFF0000000
000000FFFFC0003FFFE0000000
0000007FFFE0007FFFC0000000
0000003FFFF000FFFF80000000
0000001FFFF801FFFF00000000
0000000FFFFE03FFFC00000000
00000007FFFF07FFF800000000
00000001FFFF8FFFF000000000
00000000FFFFDFFFE000000000
000000007FFFFFFFC000000000
000000003FFFFFFF8000000000
000000001FFFFFFF0000000000
000000000FFFFFFE0000000000
0000000007FFFFFC0000000000
0000000003FFFFF80000000000
0000000001FFFFF00000000000
0000000000FFFFE00000000000
00000000007FFFC00000000000
0000000000FFFFE00000000000
0000000001FFFFF00000000000
0000000003FFFFF80000000000
0000000007FFFFFC0000000000
000000000FFFFFFE0000000000
000000001FFFFFFF0000000000
000000003FFFFFFF8000000000
000000007FFFFFFFC000000000
00000000FFFF7FFFE000000000
00000001FFFE3FFFF800000000
00000003FFFC1FFFFC00000000
0000000FFFF80FFFFE00000000
0000001FFFF007FFFF00000000
0000003FFFE001FFFF80000000
0000007FFFC000FFFFC0000000
000000FFFF80007FFFE0000000
000001FFFF00003FFFF0000000
000003FFFE00001FFFF8000000
000007FFFC00000FFFFC000000
00000FFFF8000007FFFE000000
00001FFFF0000003FFFF000000
00003FFFE0000001FFFF800000
00007FFFC0000000FFFFC00000
0000FFFF800000007FFFE00000
0001FFFF000000003FFFF00000
0003FFFE000000001FFFF80000
0007FFFC000000000FFFFC0000
000FFFF80000000007FFFE0000
001FFFF00000000003FFFF0000
003FFFE00000000001FFFF8000
007FFFC00000000000FFFFC000
00FFFF8000000000007FFFE000
01FFFF0000000000003FFFF000
03FFFE0000000000001FFFF800
07FFFC0000000000000FFFFC00
0FFFF800000000000007FFFE00
1FFFF000000000000003FFFF80
3FFFE000000000000001FFFFC0
FFFFC000000000000000FFFFE0
ENDCHAR
STARTCHAR Y
ENCODING 89
SWIDTH 926 0
DWIDTH 96 0
BBX 94 76 1 0
BITMAP
FFFFE000000000000007FFFC
3FFFE00000000000000FFFF8
3FFFF00000000000001FFFF0
1FFFF80000000000003FFFE0
0FFFFC0000000000007FFFC0
07FFFE000000000000FFFF80
03FFFF000000000000FFFF00
01FFFF000000000001FFFF00
00FFFF800000000003FFFE00
00FFFFC00000000007FFFC00
007FFFE0000000000FFFF800
003FFFF0000000001FFFF000
001FFFF8000000001FFFE000
000FFFFC000000003FFFC000
0007FFFC000000007FFFC000
0003FFFE00000000FFFF8000
0003FFFF00000001FFFF0000
0001FFFF80000003FFFE0000
0000FFFFC0000007FFFC0000
00007FFFE0000007FFF80000
00003FFFE000000FFFF00000
00001FFFF000001FFFF00000
00001FFFF800003FFFE00000
00000FFFFC00007FFFC00000
000007FFFE0000FFFF800000
000003FFFF0000FFFF000000
000001FFFF0001FFFE000000
000000FFFF8003FFFE000000
0000007FFFC007FFFC000000
0000007FFFE00FFFF8000000
0000003FFFF01FFFF0000000
0000001FFFF81FFFE0000000
0000000FFFF83FFFC0000000
00000007FFFC7FFF80000000
00000003FFFEFFFF80000000
00000001FFFFFFFF00000000
00000001FFFFFFFE00000000
00000000FFFFFFFC00000000
000000007FFFFFF800000000
000000003FFFFFF000000000
000000001FFFFFE000000000
000000000FFFFFE000000000
0000000007FFFFC000000000
0000000007FFFF8000000000
0000000003FFFF0000000000
0000000001FFFE0000000000
0000000000FFFC0000000000
0000000000FFFC0000000000
0000000000FFFC0000000000
0000000000FFFC0000000000
0000000000FFFC0000000000
0000000000FFFC0000000000
0000000000FFFC0000000000
0000000000FFFC0000000000
0000000000FFFC0000000000
0000000000FFFC0000000000
0000000000FFFC0000000000
0000000000FFFC0000000000
0000000000FFFC0000000000
0000000000FFFC0000000000
0000000000FFFC0000000000
0000000000FFFC0000000000
0000000000FFFC0000000000
0000000000FFFC0000000000
0000000000FFFC0000000000
0000000000FFFC0000000000
0000000000FFFC0000000000
0000000000FFFC0000000000
0000000000FFFC0000000000
0000000000FFFC0000000000
0000000000FFFC0000000000
0000000000FFFC0000000000
0000000000FFFC0000000000
0000000000FFFC0000000000
0000000000FFFC0000000000
0000000000FFFC0000000000
ENDCHAR
STARTCHAR Z
ENCODING 90
SWIDTH 802 0
DWIDTH 83 0
BBX 75 76 4 0
BITMAP
7FFFFFFFFFFFFFFFFC00
7FFFFFFFFFFFFFFFFF00
7FFFFFFFFFFFFFFFFF80
7FFFFFFFFFFFFFFFFFC0
7FFFFFFFFFFFFFFFFFC0
7FFFFFFFFFFFFFFFFFE0
7FFFFFFFFFFFFFFFFFE0
7FFFFFFFFFFFFFFFFFE0
7FFFFFFFFFFFFFFFFFC0
7FFFFFFFFFFFFFFFFFC0
7FFFFFFFFFFFFFFFFFC0
7FFFFFFFFFFFFFFFFF80
7FFFFFFFFFFFFFFFFF00
00000000000007FFFE00
0000000000000FFFFC00
0000000000001FFFF800
0000000000003FFFF000
0000000000007FFFE000
000000000000FFFFC000
000000000001FFFF8000
000000000003FFFF0000
000000000007FFFE0000
00000000000FFFFC0000
00000000001FFFF80000
00000000003FFFF00000
00000000007FFFE00000
0000000000FFFFC00000
0000000001FFFF800000
0000000003FFFF000000
0000000007FFFE000000
000000000FFFFC000000
000000001FFFF8000000
000000003FFFF0000000
000000007FFFE0000000
00000000FFFFC0000000
00000001FFFF80000000
00000003FFFF00000000
00000007FFFE00000000
0000000FFFFC00000000
0000001FFFF800000000
0000003FFFF000000000
0000007FFFE000000000
000000FFFFC000000000
000001FFFF8000000000
000003FFFF0000000000
000007FFFE0000000000
00000FFFFC0000000000
00001FFFF80000000000
00003FFFF00000000000
00007FFFE00000000000
0000FFFFC00000000000
0001FFFF800000000000
0003FFFF000000000000
0007FFFE000000000000
000FFFFC000000000000
001FFFF8000000000000
003FFFF0000000000000
007FFFE0000000000000
00FFFFC0000000000000
01FFFF80000000000000
03FFFF00000000000000
07FFFE00000000000000
0FFFFC00000000000000
1FFFFFFFFFFFFFFFFFC0
3FFFFFFFFFFFFFFFFFC0
7FFFFFFFFFFFFFFFFFC0
7FFFFFFFFFFFFFFFFFC0
FFFFFFFFFFFFFFFFFFC0
FFFFFFFFFFFFFFFFFFC0
FFFFFFFFFFFFFFFFFFC0
FFFFFFFFFFFFFFFFFFC0
FFFFFFFFFFFFFFFFFFC0
7FFFFFFFFFFFFFFFFFC0
3FFFFFFFFFFFFFFFFFC0
1FFFFFFFFFFFFFFFFFC0
07FFFFFFFFFFFFFFFFC0
ENDCHAR
STARTCHAR bracketleft
ENCODING 91
SWIDTH 333 0
DWIDTH 35 0
BBX 18 96 10 -9
BITMAP
FFFFC0
FFFFC0
FFFFC0
FFFFC0
FFFFC0
FFFFC0
FFFFC0
FFFFC0
FFFFC0
FF8000
FF8000
FF8000
FF8000
FF8000
FF8000
FF8000
FF8000
FF8000
FF8000
FF8000
FF8000
FF8000
FF8000
FF8000
FF8000
FF8000
FF8000
FF8000
FF8000
FF8000
FF8000
FF8000
FF8000
FF8000
FF8000
FF8000
FF8000
FF8000
FF8000
FF8000
FF8000
FF8000
FF8000
FF8000
FF8000
FF8000
FF8000
FF8000
FF8000
FF8000
FF8000
FF8000
FF8000
FF8000
FF8000
FF8000
FF8000
FF8000
FF8000
FF8000
FF8000
FF8000
FF8000
FF8000
FF8000
FF8000
FF8000
FF8000
FF8000
FF8000
FF8000
FF8000
FF8000
FF8000
FF8000
FF8000
FF8000
FF8000
FF8000
FF8000
FF8000
FF8000
FF8000
FF8000
FF8000
FF8000
FF8000
FF8000
FFFFC0
FFFFC0
FFFFC0
FFFFC0
FFFFC0
FFFFC0
FFFFC0
FFFFC0
ENDCHAR
STARTCHAR backslash
ENCODING 92
SWIDTH 445 0
DWIDTH 46 0
BBX 44 76 1 0
BITMAP
FF8000000000
7F8000000000
7FC000000000
3FC000000000
3FE000000000
1FE000000000
1FF000000000
1FF000000000
0FF800000000
0FF800000000
07FC00000000
07FC00000000
03FE00000000
03FE00000000
01FF00000000
01FF00000000
00FF00000000
00FF80000000
007F80000000
007FC0000000
007FC0000000
003FE0000000
003FE0000000
001FF0000000
001FF0000000
000FF8000000
000FF8000000
0007FC000000
0007FC000000
0003FE000000
0003FE000000
0001FE000000
0001FF000000
0001FF000000
0000FF800000
0000FF800000
00007FC00000
00007FC00000
00003FE00000
00003FE00000
00001FF00000
00001FF00000
00000FF80000
00000FF80000
000007FC0000
000007FC0000
000007FC0000
000003FE0000
000003FE0000
000001FF0000
000001FF0000
000000FF8000
000000FF8000
0000007FC000
0000007FC000
0000003FE000
0000003FE000
0000001FF000
0000001FF000
0000001FF800
0000000FF800
0000000FF800
00000007FC00
00000007FC00
00000003FE00
00000003FE00
00000001FF00
00000001FF00
00000000FF80
00000000FF80
000000007FC0
000000007FC0
000000007FE0
000000003FE0
000000003FF0
000000001FF0
ENDCHAR
STARTCHAR bracketright
ENCODING 93
SWIDTH 333 0
DWIDTH 35 0
BBX 17 96 7 -9
BITMAP
FFFF80
FFFF80
FFFF80
FFFF80
FFFF80
FFFF80
FFFF80
FFFF80
FFFF80
007F80
007F80
007F80
007F80
007F80
007F80
007F80
007F80
007F80
007F80
007F80
007F80
007F80
007F80
007F80
007F80
007F80
007F80
007F80
007F80
007F80
007F80
007F80
007F80
007F80
007F80
007F80
007F80
007F80
007F80
007F80
007F80
007F80
007F80
007F80
007F80
007F80
007F80
007F80
007F80
007F80
007F80
007F80
007F80
007F80
007F80
007F80
007F80
007F80
007F80
007F80
007F80
007F80
007F80
007F80
007F80
007F80
007F80
007F80
007F80
007F80
007F80
007F80
007F80
007F80
007F80
007F80
007F80
007F80
007F80
007F80
007F80
007F80
007F80
007F80
007F80
007F80
007F80
007F80
FFFF80
FFFF80
FFFF80
FFFF80
FFFF80
FFFF80
FFFF80
FFFF80
ENDCHAR
STARTCHAR asciicircum
ENCODING 94
SWIDTH 559 0
DWIDTH 58 0
BBX 45 46 7 30
BITMAP
00000F000000
00001FC00000
00003FE00000
00007FE00000
00007FF00000
0000FFF00000
0000FFF00000
0000FFF80000
0001FFF80000
0001FFFC0000
0003FFFC0000
0003FFFC0000
0003FFFE0000
0007F9FE0000
0007F9FF0000
000FF8FF0000
000FF0FF0000
001FF0FF8000
001FE07F8000
001FE07FC000
003FE03FC000
003FC03FE000
007FC03FE000
007F801FE000
00FF801FF000
00FF800FF000
00FF000FF800
01FF000FF800
01FE0007FC00
03FE0007FC00
03FC0003FC00
07FC0003FE00
07FC0003FE00
07F80001FF00
0FF80001FF00
0FF00000FF00
1FF00000FF80
1FF00000FF80
1FE000007FC0
3FE000007FC0
3FC000003FE0
7FC000003FE0
7FC000003FE0
FF8000001FF0
FF8000001FF0
FF0000000FF8
ENDCHAR
STARTCHAR underscore
ENCODING 95
SWIDTH 668 0
DWIDTH 69 0
BBX 70 6 0 -17
BITMAP
FFFFFFFFFFFFFFFFFC
FFFFFFFFFFFFFFFFFC
FFFFFFFFFFFFFFFFFC
FFFFFFFFFFFFFFFFFC
FFFFFFFFFFFFFFFFFC
FFFFFFFFFFFFFFFFFC
ENDCHAR
STARTCHAR grave
ENCODING 96
SWIDTH 362 0
DWIDTH 38 0
BBX 26 14 6 81
BITMAP
80000000
F0000000
FE000000
FFC00000
FFFC0000
FFFF8000
FFFFF000
FFFFFE00
FFFFFFC0
0FFFFFC0
00FFFFC0
0007FFC0
00003FC0
000003C0
ENDCHAR
STARTCHAR a
ENCODING 97
SWIDTH 989 0
DWIDTH 103 0
BBX 100 77 1 0
BITMAP
000000000000F8000000000000
000000000003FC000000000000
000000000007FE000000000000
00000000000FFF000000000000
00000000000FFF800000000000
00000000001FFF800000000000
00000000001FFFC00000000000
00000000003FFFE00000000000
00000000007FFFE00000000000
00000000007FFFF00000000000
0000000000FFFFF00000000000
0000000000FFFFF80000000000
0000000001FFFFFC0000000000
0000000003FFFFFC0000000000
0000000003FFFFFE0000000000
0000000007FFFFFE0000000000
0000000007FFFFFF0000000000
000000000FFFFFFF8000000000
000000001FFFFFFF8000000000
000000001FFFFFFFC000000000
000000003FFF9FFFC000000000
000000003FFF1FFFE000000000
000000007FFF0FFFF000000000
00000000FFFE07FFF000000000
00000000FFFE07FFF800000000
00000001FFFC03FFF800000000
00000001FFF803FFFC00000000
00000003FFF801FFFE00000000
00000007FFF000FFFE00000000
00000007FFF000FFFF00000000
0000000FFFE0007FFF00000000
0000000FFFC0007FFF80000000
0000001FFFC0003FFFC0000000
0000003FFF80001FFFC0000000
0000003FFF80001FFFE0000000
0000007FFF00000FFFE0000000
0000007FFF00000FFFF0000000
000000FFFE000007FFF8000000
000001FFFC000003FFF8000000
000001FFFC000003FFFC000000
000003FFF8000001FFFC000000
000003FFF8000001FFFE000000
000007FFF0000000FFFF000000
00000FFFE00000007FFF000000
00000FFFE00000007FFF800000
00001FFFC00000003FFF800000
00001FFFC00000003FFFC00000
00003FFF801FFFFFFFFFE00000
00007FFF001FFFFFFFFFE00000
00007FFF003FFFFFFFFFF00000
0000FFFE003FFFFFFFFFF00000
0000FFFE007FFFFFFFFFF80000
0001FFFC00FFFFFFFFFFFC0000
0003FFF800FFFFFFFFFFFC0000
0003FFF801FFFFFFFFFFFE0000
0007FFF001FFFFFFFFFFFE0000
0007FFF003FFFFFFFFFFFF0000
000FFFE007FFFFFFFFFFFF8000
001FFFE000000000007FFF8000
001FFFC000000000003FFFC000
003FFF8000000000001FFFC000
003FFF8000000000001FFFE000
007FFF0000000000000FFFF000
007FFF0000000000000FFFF000
00FFFE00000000000007FFF800
01FFFC00000000000003FFF800
01FFFC00000000000003FFFC00
03FFF800000000000001FFFE00
03FFF800000000000001FFFE00
07FFF000000000000000FFFF00
0FFFE000000000000000FFFF00
0FFFE0000000000000007FFF80
1FFFC0000000000000003FFFC0
1FFFC0000000000000003FFFC0
3FFF80000000000000001FFFE0
7FFF00000000000000001FFFE0
FFFF00000000000000000FFFF0
ENDCHAR
STARTCHAR b
ENCODING 98
SWIDTH 891 0
DWIDTH 93 0
BBX 82 76 6 0
BITMAP
FFFFFFFFFFFFFFFC000000
FFFFFFFFFFFFFFFFE00000
FFFFFFFFFFFFFFFFF80000
FFFFFFFFFFFFFFFFFE0000
FFFFFFFFFFFFFFFFFF8000
FFFFFFFFFFFFFFFFFFC000
FFFFFFFFFFFFFFFFFFE000
FFFFFFFFFFFFFFFFFFF000
FFFFFFFFFFFFFFFFFFF800
FFFFFFFFFFFFFFFFFFFC00
FFFFFFFFFFFFFFFFFFFC00
FFFFFFFFFFFFFFFFFFFE00
FFFFFFFFFFFFFFFFFFFE00
FFFC0000000000FFFFFE00
FFFC000000000007FFFF00
FFFC000000000000FFFF00
FFFC0000000000007FFF00
FFFC0000000000003FFF00
FFFC0000000000003FFF00
FFFC0000000000003FFF00
FFFC0000000000001FFF00
FFFC0000000000001FFF00
FFFC0000000000001FFF00
FFFC0000000000001FFF00
FFFC0000000000001FFF00
FFFC0000000000001FFF00
FFFC0000000000003FFE00
FFFC0000000000003FFE00
FFFC0000000000007FFE00
FFFC0000000000007FFC00
FFFC000000000001FFF800
FFFC000000000007FFF800
FFFC01FFFFFFFFFFFFF000
FFFC01FFFFFFFFFFFFE000
FFFC01FFFFFFFFFFFF8000
FFFC01FFFFFFFFFFFE0000
FFFC01FFFFFFFFFFFE0000
FFFC01FFFFFFFFFFFF8000
FFFC01FFFFFFFFFFFFE000
FFFC01FFFFFFFFFFFFF000
FFFC01FFFFFFFFFFFFF800
FFFC01FFFFFFFFFFFFFC00
FFFC01FFFFFFFFFFFFFE00
FFFC000000000007FFFE00
FFFC000000000000FFFF00
FFFC0000000000007FFF00
FFFC0000000000003FFF80
FFFC0000000000001FFF80
FFFC0000000000001FFF80
FFFC0000000000000FFF80
FFFC0000000000000FFFC0
FFFC0000000000000FFFC0
FFFC0000000000000FFFC0
FFFC0000000000000FFFC0
FFFC0000000000000FFFC0
FFFC0000000000000FFFC0
FFFC0000000000000FFF80
FFFC0000000000001FFF80
FFFC0000000000003FFF80
FFFC0000000000007FFF80
FFFC000000000000FFFF80
FFFC000000000007FFFF00
FFFC0000000000FFFFFF00
FFFFFFFFFFFFFFFFFFFF00
FFFFFFFFFFFFFFFFFFFE00
FFFFFFFFFFFFFFFFFFFC00
FFFFFFFFFFFFFFFFFFFC00
FFFFFFFFFFFFFFFFFFF800
FFFFFFFFFFFFFFFFFFF000
FFFFFFFFFFFFFFFFFFE000
FFFFFFFFFFFFFFFFFFC000
FFFFFFFFFFFFFFFFFF8000
FFFFFFFFFFFFFFFFFE0000
FFFFFFFFFFFFFFFFFC0000
FFFFFFFFFFFFFFFFE00000
FFFFFFFFFFFFFFFE000000
ENDCHAR
STARTCHAR c
ENCODING 99
SWIDTH 829 0
DWIDTH 86 0
BBX 78 76 4 0
BITMAP
00000001FFFFFFFFFFFC
0000003FFFFFFFFFFFFC
000001FFFFFFFFFFFFFC
000007FFFFFFFFFFFFFC
00001FFFFFFFFFFFFFFC
00007FFFFFFFFFFFFFFC
0001FFFFFFFFFFFFFFFC
0003FFFFFFFFFFFFFFFC
0007FFFFFFFFFFFFFFFC
000FFFFFFFFFFFFFFFFC
003FFFFFFFFFFFFFFFFC
003FFFFFFFFFFFFFFFFC
007FFFFFFFFFFFFFFFFC
00FFFFFFE00000000000
01FFFFF8000000000000
03FFFFE0000000000000
03FFFF80000000000000
07FFFE00000000000000
07FFFC00000000000000
0FFFF800000000000000
0FFFF000000000000000
1FFFE000000000000000
1FFFC000000000000000
1FFFC000000000000000
3FFF8000000000000000
3FFF0000000000000000
3FFF0000000000000000
7FFF0000000000000000
7FFE0000000000000000
7FFE0000000000000000
7FFC0000000000000000
7FFC0000000000000000
7FFC0000000000000000
FFFC0000000000000000
FFFC0000000000000000
FFFC0000000000000000
FFFC0000000000000000
FFFC0000000000000000
FFFC0000000000000000
FFFC0000000000000000
FFFC0000000000000000
7FFC0000000000000000
7FFC0000000000000000
7FFC0000000000000000
7FFC0000000000000000
7FFE0000000000000000
7FFE0000000000000000
3FFE0000000000000000
3FFF0000000000000000
3FFF0000000000000000
3FFF8000000000000000
1FFF8000000000000000
1FFFC000000000000000
1FFFC000000000000000
0FFFE000000000000000
0FFFF000000000000000
07FFF800000000000000
07FFFC00000000000000
03FFFF00000000000000
01FFFF80000000000000
01FFFFE0000000000000
00FFFFF8000000000000
007FFFFFE00000000000
003FFFFFFFFFFFFFFFFC
003FFFFFFFFFFFFFFFFC
001FFFFFFFFFFFFFFFFC
000FFFFFFFFFFFFFFFFC
0003FFFFFFFFFFFFFFFC
0001FFFFFFFFFFFFFFFC
0000FFFFFFFFFFFFFFFC
00003FFFFFFFFFFFFFFC
00001FFFFFFFFFFFFFFC
000007FFFFFFFFFFFFFC
000000FFFFFFFFFFFFFC
0000003FFFFFFFFFFFFC
00000001FFFFFFFFFFFC
ENDCHAR
STARTCHAR d
ENCODING 100
SWIDTH 879 0
DWIDTH 91 0
BBX 80 76 7 0
BITMAP
FFFFFFFFFFFFC0000000
FFFFFFFFFFFFFE000000
FFFFFFFFFFFFFFC00000
FFFFFFFFFFFFFFF00000
FFFFFFFFFFFFFFFC0000
FFFFFFFFFFFFFFFF0000
FFFFFFFFFFFFFFFF8000
FFFFFFFFFFFFFFFFE000
FFFFFFFFFFFFFFFFF000
FFFFFFFFFFFFFFFFF800
FFFFFFFFFFFFFFFFFC00
FFFFFFFFFFFFFFFFFE00
FFFFFFFFFFFFFFFFFF00
FFF800000003FFFFFF80
FFF8000000001FFFFF80
FFF80000000003FFFFC0
FFF80000000001FFFFE0
FFF800000000007FFFE0
FFF800000000003FFFF0
FFF800000000000FFFF0
FFF8000000000007FFF8
FFF8000000000007FFF8
FFF8000000000003FFFC
FFF8000000000001FFFC
FFF8000000000001FFFC
FFF8000000000000FFFE
FFF80000000000007FFE
FFF80000000000007FFE
FFF80000000000007FFE
FFF80000000000003FFE
FFF80000000000003FFF
FFF80000000000003FFF
FFF80000000000003FFF
FFF80000000000001FFF
FFF80000000000001FFF
FFF80000000000001FFF
FFF80000000000001FFF
FFF80000000000001FFF
FFF80000000000001FFF
FFF80000000000001FFF
FFF80000000000001FFF
FFF80000000000001FFF
FFF80000000000001FFF
FFF80000000000003FFF
FFF80000000000003FFF
FFF80000000000003FFE
FFF80000000000003FFE
FFF80000000000007FFE
FFF80000000000007FFE
FFF8000000000000FFFC
FFF8000000000000FFFC
FFF8000000000001FFFC
FFF8000000000001FFF8
FFF8000000000003FFF8
FFF8000000000007FFF8
FFF800000000000FFFF0
FFF800000000001FFFF0
FFF800000000003FFFE0
FFF800000000007FFFE0
FFF80000000001FFFFC0
FFF80000000003FFFF80
FFF8000000001FFFFF80
FFF800000003FFFFFF00
FFFFFFFFFFFFFFFFFE00
FFFFFFFFFFFFFFFFFC00
FFFFFFFFFFFFFFFFF800
FFFFFFFFFFFFFFFFF000
FFFFFFFFFFFFFFFFE000
FFFFFFFFFFFFFFFFC000
FFFFFFFFFFFFFFFF0000
FFFFFFFFFFFFFFFE0000
FFFFFFFFFFFFFFF80000
FFFFFFFFFFFFFFE00000
FFFFFFFFFFFFFF800000
FFFFFFFFFFFFFC000000
FFFFFFFFFFFFC0000000
ENDCHAR
STARTCHAR e
ENCODING 101
SWIDTH 759 0
DWIDTH 79 0
BBX 67 76 7 0
BITMAP
FFFFFFFFFFFFFFFFE0
FFFFFFFFFFFFFFFFE0
FFFFFFFFFFFFFFFFE0
FFFFFFFFFFFFFFFFE0
FFFFFFFFFFFFFFFFE0
FFFFFFFFFFFFFFFFE0
FFFFFFFFFFFFFFFFE0
FFFFFFFFFFFFFFFFE0
FFFFFFFFFFFFFFFFE0
FFFFFFFFFFFFFFFFE0
FFFFFFFFFFFFFFFFE0
FFFFFFFFFFFFFFFFE0
FFFFFFFFFFFFFFFFE0
FFF800000000000000
FFF800000000000000
FFF800000000000000
FFF800000000000000
FFF800000000000000
FFF800000000000000
FFF800000000000000
FFF800000000000000
FFF800000000000000
FFF800000000000000
FFF800000000000000
FFF800000000000000
FFF800000000000000
FFF800000000000000
FFF800000000000000
FFF800000000000000
FFF800000000000000
FFF800000000000000
FFF800000000000000
FFF803FFFFFFFFFF00
FFF803FFFFFFFFFF00
FFF803FFFFFFFFFF00
FFF803FFFFFFFFFF00
FFF803FFFFFFFFFF00
FFF803FFFFFFFFFF00
FFF803FFFFFFFFFF00
FFF803FFFFFFFFFF00
FFF803FFFFFFFFFF00
FFF803FFFFFFFFFF00
FFF803FFFFFFFFFF00
FFF800000000000000
FFF800000000000000
FFF800000000000000
FFF800000000000000
FFF800000000000000
FFF800000000000000
FFF800000000000000
FFF800000000000000
FFF800000000000000
FFF800000000000000
FFF800000000000000
FFF800000000000000
FFF800000000000000
FFF800000000000000
FFF800000000000000
FFF800000000000000
FFF800000000000000
FFF800000000000000
FFF800000000000000
FFF800000000000000
FFFFFFFFFFFFFFFFE0
FFFFFFFFFFFFFFFFE0
FFFFFFFFFFFFFFFFE0
FFFFFFFFFFFFFFFFE0
FFFFFFFFFFFFFFFFE0
FFFFFFFFFFFFFFFFE0
FFFFFFFFFFFFFFFFE0
FFFFFFFFFFFFFFFFE0
FFFFFFFFFFFFFFFFE0
FFFFFFFFFFFFFFFFE0
FFFFFFFFFFFFFFFFE0
FFFFFFFFFFFFFFFFE0
FFFFFFFFFFFFFFFFE0
ENDCHAR
STARTCHAR f
ENCODING 102
SWIDTH 705 0
DWIDTH 73 0
BBX 64 76 7 0
BITMAP
FFFFFFFFFFFFFFFF
FFFFFFFFFFFFFFFF
FFFFFFFFFFFFFFFF
FFFFFFFFFFFFFFFF
FFFFFFFFFFFFFFFF
FFFFFFFFFFFFFFFF
FFFFFFFFFFFFFFFF
FFFFFFFFFFFFFFFF
FFFFFFFFFFFFFFFF
FFFFFFFFFFFFFFFF
FFFFFFFFFFFFFFFF
FFFFFFFFFFFFFFFF
FFFFFFFFFFFFFFFF
FFF8000000000000
FFF8000000000000
FFF8000000000000
FFF8000000000000
FFF8000000000000
FFF8000000000000
FFF8000000000000
FFF8000000000000
FFF8000000000000
FFF8000000000000
FFF8000000000000
FFF8000000000000
FFF8000000000000
FFF8000000000000
FFF8000000000000
FFF8000000000000
FFF8000000000000
FFF8000000000000
FFF8000000000000
FFF8000000000000
FFF803FFFFFFFFF8
FFF803FFFFFFFFF8
FFF803FFFFFFFFF8
FFF803FFFFFFFFF8
FFF803FFFFFFFFF8
FFF803FFFFFFFFF8
FFF803FFFFFFFFF8
FFF803FFFFFFFFF8
FFF803FFFFFFFFF8
FFF803FFFFFFFFF8
FFF803FFFFFFFFF8
FFF803FFFFFFFFF8
FFF8000000000000
FFF8000000000000
FFF8000000000000
FFF8000000000000
FFF8000000000000
FFF8000000000000
FFF8000000000000
FFF8000000000000
FFF8000000000000
FFF8000000000000
FFF8000000000000
FFF8000000000000
FFF8000000000000
FFF8000000000000
FFF8000000000000
FFF8000000000000
FFF8000000000000
FFF8000000000000
FFF8000000000000
FFF8000000000000
FFF8000000000000
FFF8000000000000
FFF8000000000000
FFF8000000000000
FFF8000000000000
FFF8000000000000
FFF8000000000000
FFF8000000000000
FFF8000000000000
FFF8000000000000
FFF8000000000000
ENDCHAR
STARTCHAR g
ENCODING 103
SWIDTH 888 0
DWIDTH 92 0
BBX 83 76 4 0
BITMAP
00000001FFFFFFFFFFFC00
0000003FFFFFFFFFFFFC00
000001FFFFFFFFFFFFFC00
000007FFFFFFFFFFFFFC00
00001FFFFFFFFFFFFFFC00
00007FFFFFFFFFFFFFFC00
0001FFFFFFFFFFFFFFFC00
0003FFFFFFFFFFFFFFFC00
0007FFFFFFFFFFFFFFFC00
000FFFFFFFFFFFFFFFFC00
003FFFFFFFFFFFFFFFFC00
003FFFFFFFFFFFFFFFFC00
007FFFFFFFFFFFFFFFFC00
00FFFFFFE0000000000000
01FFFFF800000000000000
03FFFFE000000000000000
03FFFF8000000000000000
07FFFE0000000000000000
07FFFC0000000000000000
0FFFF80000000000000000
0FFFF00000000000000000
1FFFE00000000000000000
1FFFC00000000000000000
1FFFC00000000000000000
3FFF800000000000000000
3FFF000000000000000000
3FFF000000000000000000
7FFF000000000000000000
7FFE000000000000000000
7FFE000000000000000000
7FFC000000000000000000
7FFC000000000000000000
7FFC00001FFFFFFFFFFFE0
FFFC00001FFFFFFFFFFFE0
FFFC00001FFFFFFFFFFFE0
FFFC00001FFFFFFFFFFFE0
FFFC00001FFFFFFFFFFFE0
FFFC00001FFFFFFFFFFFE0
FFFC00001FFFFFFFFFFFE0
FFFC00001FFFFFFFFFFFE0
FFFC00001FFFFFFFFFFFE0
7FFC00001FFFFFFFFFFFE0
7FFC00001FFFFFFFFFFFE0
7FFC00000000000007FFE0
7FFC00000000000007FFE0
7FFE00000000000007FFE0
7FFE00000000000007FFE0
3FFE00000000000007FFE0
3FFF00000000000007FFE0
3FFF00000000000007FFE0
3FFF80000000000007FFE0
1FFF80000000000007FFE0
1FFFC0000000000007FFE0
1FFFC0000000000007FFE0
0FFFE0000000000007FFE0
0FFFF0000000000007FFE0
07FFF8000000000007FFE0
07FFFC000000000007FFE0
03FFFF000000000007FFE0
01FFFF800000000007FFE0
01FFFFE00000000007FFE0
00FFFFF80000000007FFE0
007FFFFFE000000007FFE0
003FFFFFFFFFFFFFFFFFE0
003FFFFFFFFFFFFFFFFFE0
001FFFFFFFFFFFFFFFFFE0
000FFFFFFFFFFFFFFFFFE0
0003FFFFFFFFFFFFFFFFE0
0001FFFFFFFFFFFFFFFFE0
0000FFFFFFFFFFFFFFFFE0
00003FFFFFFFFFFFFFFFE0
00001FFFFFFFFFFFFFFFE0
000007FFFFFFFFFFFFFFE0
000000FFFFFFFFFFFFFFE0
0000003FFFFFFFFFFFFFE0
00000001FFFFFFFFFFFFE0
ENDCHAR
STARTCHAR h
ENCODING 104
SWIDTH 838 0
DWIDTH 87 0
BBX 74 76 7 0
BITMAP
FFF800000000000FFFC0
FFF800000000000FFFC0
FFF800000000000FFFC0
FFF800000000000FFFC0
FFF800000000000FFFC0
FFF800000000000FFFC0
FFF800000000000FFFC0
FFF800000000000FFFC0
FFF800000000000FFFC0
FFF800000000000FFFC0
FFF800000000000FFFC0
FFF800000000000FFFC0
FFF800000000000FFFC0
FFF800000000000FFFC0
FFF800000000000FFFC0
FFF800000000000FFFC0
FFF800000000000FFFC0
FFF800000000000FFFC0
FFF800000000000FFFC0
FFF800000000000FFFC0
FFF800000000000FFFC0
FFF800000000000FFFC0
FFF800000000000FFFC0
FFF800000000000FFFC0
FFF800000000000FFFC0
FFF800000000000FFFC0
FFF800000000000FFFC0
FFF800000000000FFFC0
FFF800000000000FFFC0
FFF800000000000FFFC0
FFF800000000000FFFC0
FFF803FFFFFFFFFFFFC0
FFF803FFFFFFFFFFFFC0
FFF803FFFFFFFFFFFFC0
FFF803FFFFFFFFFFFFC0
FFF803FFFFFFFFFFFFC0
FFF803FFFFFFFFFFFFC0
FFF803FFFFFFFFFFFFC0
FFF803FFFFFFFFFFFFC0
FFF803FFFFFFFFFFFFC0
FFF803FFFFFFFFFFFFC0
FFF803FFFFFFFFFFFFC0
FFF803FFFFFFFFFFFFC0
FFF800000000000FFFC0
FFF800000000000FFFC0
FFF800000000000FFFC0
FFF800000000000FFFC0
FFF800000000000FFFC0
FFF800000000000FFFC0
FFF800000000000FFFC0
FFF800000000000FFFC0
FFF800000000000FFFC0
FFF800000000000FFFC0
FFF800000000000FFFC0
FFF800000000000FFFC0
FFF800000000000FFFC0
FFF800000000000FFFC0
FFF800000000000FFFC0
FFF800000000000FFFC0
FFF800000000000FFFC0
FFF800000000000FFFC0
FFF800000000000FFFC0
FFF800000000000FFFC0
FFF800000000000FFFC0
FFF800000000000FFFC0
FFF800000000000FFFC0
FFF800000000000FFFC0
FFF800000000000FFFC0
FFF800000000000FFFC0
FFF800000000000FFFC0
FFF800000000000FFFC0
FFF800000000000FFFC0
FFF800000000000FFFC0
FFF800000000000FFFC0
FFF800000000000FFFC0
FFF800000000000FFFC0
ENDCHAR
STARTCHAR i
ENCODING 105
SWIDTH 267 0
DWIDTH 28 0
BBX 13 76 7 0
BITMAP
FFF8
FFF8
FFF8
FFF8
FFF8
FFF8
FFF8
FFF8
FFF8
FFF8
FFF8
FFF8
FFF8
FFF8
FFF8
FFF8
FFF8
FFF8
FFF8
FFF8
FFF8
FFF8
FFF8
FFF8
FFF8
FFF8
FFF8
FFF8
FFF8
FFF8
FFF8
FFF8
FFF8
FFF8
FFF8
FFF8
FFF8
FFF8
FFF8
FFF8
FFF8
FFF8
FFF8
FFF8
FFF8
FFF8
FFF8
FFF8
FFF8
FFF8
FFF8
FFF8
FFF8
FFF8
FFF8
FFF8
FFF8
FFF8
FFF8
FFF8
FFF8
FFF8
FFF8
FFF8
FFF8
FFF8
FFF8
FFF8
FFF8
FFF8
FFF8
FFF8
FFF8
FFF8
FFF8
FFF8
ENDCHAR
STARTCHAR j
ENCODING 106
SWIDTH 708 0
DWIDTH 74 0
BBX 66 76 2 0
BITMAP
00000000000007FFC0
00000000000007FFC0
00000000000007FFC0
00000000000007FFC0
00000000000007FFC0
00000000000007FFC0
00000000000007FFC0
00000000000007FFC0
00000000000007FFC0
00000000000007FFC0
00000000000007FFC0
00000000000007FFC0
00000000000007FFC0
00000000000007FFC0
00000000000007FFC0
00000000000007FFC0
00000000000007FFC0
00000000000007FFC0
00000000000007FFC0
00000000000007FFC0
00000000000007FFC0
00000000000007FFC0
00000000000007FFC0
00000000000007FFC0
00000000000007FFC0
00000000000007FFC0
00000000000007FFC0
00000000000007FFC0
00000000000007FFC0
00000000000007FFC0
00000000000007FFC0
00000000000007FFC0
00000000000007FFC0
00000000000007FFC0
00000000000007FFC0
00000000000007FFC0
00000000000007FFC0
00000000000007FFC0
00000000000007FFC0
00000000000007FFC0
00000000000007FFC0
00000000000007FFC0
00000000000007FFC0
00000000000007FFC0
00000000000007FFC0
00000000000007FFC0
00000000000007FFC0
0000000000000FFFC0
0000000000000FFFC0
0000000000000FFFC0
0000000000000FFF80
0000000000001FFF80
0000000000001FFF80
0000000000003FFF80
0000000000003FFF80
0000000000007FFF00
000000000000FFFF00
000000000001FFFF00
000000000003FFFE00
00000000000FFFFE00
00000000003FFFFC00
0000000001FFFFFC00
000000007FFFFFF800
FFFFFFFFFFFFFFF800
FFFFFFFFFFFFFFF000
FFFFFFFFFFFFFFE000
FFFFFFFFFFFFFFC000
FFFFFFFFFFFFFF8000
FFFFFFFFFFFFFF0000
FFFFFFFFFFFFFE0000
FFFFFFFFFFFFF80000
FFFFFFFFFFFFE00000
FFFFFFFFFFFF800000
FFFFFFFFFFFC000000
FFFFFFFFFFE0000000
FFFFFFFFF800000000
ENDCHAR
STARTCHAR k
ENCODING 107
SWIDTH 875 0
DWIDTH 91 0
BBX 82 76 7 0
BITMAP
FFF800000000000FFFFF00
FFF800000000003FFFFC00
FFF800000000007FFFF800
FFF80000000000FFFFF000
FFF80000000003FFFFC000
FFF80000000007FFFF8000
FFF8000000000FFFFF0000
FFF8000000003FFFFC0000
FFF8000000007FFFF80000
FFF800000000FFFFF00000
FFF800000001FFFFC00000
FFF800000007FFFF800000
FFF80000000FFFFF000000
FFF80000001FFFFC000000
FFF80000007FFFF8000000
FFF8000000FFFFF0000000
FFF8000001FFFFC0000000
FFF8000003FFFF80000000
FFF800000FFFFF00000000
FFF800001FFFFC00000000
FFF800003FFFF800000000
FFF80000FFFFF000000000
FFF80001FFFFC000000000
FFF80003FFFF8000000000
FFF8000FFFFF0000000000
FFF8001FFFFC0000000000
FFF8003FFFF80000000000
FFF8007FFFF00000000000
FFF801FFFFC00000000000
FFF803FFFF800000000000
FFF807FFFF000000000000
FFF81FFFFC000000000000
FFF83FFFF8000000000000
FFF83FFFF0000000000000
FFF87FFFC0000000000000
FFF87FFF80000000000000
FFF87FFF00000000000000
FFF87FFE00000000000000
FFF87FFF80000000000000
FFF87FFFC0000000000000
FFF83FFFE0000000000000
FFF83FFFF8000000000000
FFF81FFFFC000000000000
FFF807FFFE000000000000
FFF803FFFF800000000000
FFF801FFFFC00000000000
FFF800FFFFE00000000000
FFF8003FFFF80000000000
FFF8001FFFFC0000000000
FFF8000FFFFE0000000000
FFF80003FFFF8000000000
FFF80001FFFFC000000000
FFF80000FFFFE000000000
FFF800007FFFF000000000
FFF800001FFFFC00000000
FFF800000FFFFE00000000
FFF8000007FFFF00000000
FFF8000003FFFFC0000000
FFF8000000FFFFE0000000
FFF80000007FFFF0000000
FFF80000003FFFFC000000
FFF80000000FFFFE000000
FFF800000007FFFF000000
FFF800000003FFFFC00000
FFF800000001FFFFE00000
FFF8000000007FFFF00000
FFF8000000003FFFFC0000
FFF8000000001FFFFE0000
FFF8000000000FFFFF0000
FFF80000000003FFFFC000
FFF80000000001FFFFE000
FFF80000000000FFFFF000
FFF800000000007FFFF800
FFF800000000001FFFFE00
FFF800000000000FFFFF00
FFF8000000000007FFFFC0
ENDCHAR
STARTCHAR l
ENCODING 108
SWIDTH 707 0
DWIDTH 74 0
BBX 64 76 7 0
BITMAP
FFF8000000000000
FFF8000000000000
FFF8000000000000
FFF8000000000000
FFF8000000000000
FFF8000000000000
FFF8000000000000
FFF8000000000000
FFF8000000000000
FFF8000000000000
FFF8000000000000
FFF8000000000000
FFF8000000000000
FFF8000000000000
FFF8000000000000
FFF8000000000000
FFF8000000000000
FFF8000000000000
FFF8000000000000
FFF8000000000000
FFF8000000000000
FFF8000000000000
FFF8000000000000
FFF8000000000000
FFF8000000000000
FFF8000000000000
FFF8000000000000
FFF8000000000000
FFF8000000000000
FFF8000000000000
FFF8000000000000
FFF8000000000000
FFF8000000000000
FFF8000000000000
FFF8000000000000
FFF8000000000000
FFF8000000000000
FFF8000000000000
FFF8000000000000
FFF8000000000000
FFF8000000000000
FFF8000000000000
FFF8000000000000
FFF8000000000000
FFF8000000000000
FFF8000000000000
FFF8000000000000
FFF8000000000000
FFF8000000000000
FFF8000000000000
FFF8000000000000
FFF8000000000000
FFF8000000000000
FFF8000000000000
FFF8000000000000
FFF8000000000000
FFF8000000000000
FFF8000000000000
FFF8000000000000
FFF8000000000000
FFF8000000000000
FFF8000000000000
FFF8000000000000
FFFFFFFFFFFFFFFF
FFFFFFFFFFFFFFFF
FFFFFFFFFFFFFFFF
FFFFFFFFFFFFFFFF
FFFFFFFFFFFFFFFF
FFFFFFFFFFFFFFFF
FFFFFFFFFFFFFFFF
FFFFFFFFFFFFFFFF
FFFFFFFFFFFFFFFF
FFFFFFFFFFFFFFFF
FFFFFFFFFFFFFFFF
FFFFFFFFFFFFFFFF
FFFFFFFFFFFFFFFF
ENDCHAR
STARTCHAR m
ENCODING 109
SWIDTH 1115 0
DWIDTH 116 0
BBX 112 77 2 -1
BITMAP
000000F80000000000001F800000
000003FE0000000000003FC00000
000007FF0000000000007FE00000
000007FF800000000000FFF00000
00000FFF800000000000FFF00000
00000FFFC00000000001FFF00000
00000FFFC00000000001FFF80000
00001FFFE00000000003FFF80000
00001FFFE00000000003FFF80000
00001FFFE00000000003FFFC0000
00001FFFF00000000007FFFC0000
00003FFFF00000000007FFFC0000
00003FFFF8000000000FFFFC0000
00003FFFF8000000000FFFFE0000
00007FFFFC000000001FFFFE0000
00007FFFFC000000001FFFFE0000
00007FFFFC000000003FFFFE0000
00007FFFFE000000003FFFFF0000
0000FFFFFE000000003FFFFF0000
0000FFFFFF000000007FFFFF0000
0000FFFFFF000000007FFFFF8000
0001FFFFFF80000000FFFFFF8000
0001FFFFFF80000000FFFFFF8000
0001FFFFFFC0000001FFFFFF8000
0001FFFFFFC0000001FFF7FFC000
0003FFE7FFC0000001FFE7FFC000
0003FFE7FFE0000003FFE7FFC000
0003FFE3FFE0000003FFC7FFC000
0003FFE3FFF0000007FFC3FFE000
0007FFC1FFF0000007FFC3FFE000
0007FFC1FFF800000FFF83FFE000
0007FFC1FFF800000FFF83FFF000
000FFF80FFF800001FFF01FFF000
000FFF80FFFC00001FFF01FFF000
000FFF807FFC00001FFE01FFF000
000FFF807FFE00003FFE00FFF800
001FFF003FFE00003FFC00FFF800
001FFF003FFF00007FFC00FFF800
001FFF001FFF00007FFC00FFFC00
001FFF001FFF8000FFF8007FFC00
003FFE001FFF8000FFF8007FFC00
003FFE000FFF8001FFF0007FFC00
003FFE000FFFC001FFF0007FFE00
007FFC0007FFC001FFE0003FFE00
007FFC0007FFE003FFE0003FFE00
007FFC0003FFE003FFE0003FFE00
007FFC0003FFF007FFC0001FFF00
00FFF80001FFF007FFC0001FFF00
00FFF80001FFF00FFF80001FFF00
00FFF80001FFF80FFF80001FFF80
00FFF80000FFF80FFF00000FFF80
01FFF00000FFFC1FFF00000FFF80
01FFF000007FFC1FFE00000FFF80
01FFF000007FFE3FFE00000FFFC0
03FFE000003FFE3FFE000007FFC0
03FFE000003FFF7FFC000007FFC0
03FFE000003FFF7FFC000007FFC0
03FFE000001FFFFFF8000003FFE0
07FFC000001FFFFFF8000003FFE0
07FFC000000FFFFFF0000003FFE0
07FFC000000FFFFFF0000003FFF0
0FFF80000007FFFFE0000001FFF0
0FFF80000007FFFFE0000001FFF0
0FFF80000003FFFFE0000001FFF0
0FFF80000003FFFFC0000000FFF8
1FFF00000003FFFFC0000000FFF8
1FFF00000001FFFF80000000FFF8
1FFF00000001FFFF80000000FFF8
1FFF00000000FFFF000000007FFC
3FFE00000000FFFF000000007FFC
3FFE000000007FFE000000007FFC
3FFE000000007FFE000000007FFE
7FFC000000007FFE000000003FFE
7FFC000000003FFC000000003FFE
7FFC000000001FF8000000003FFE
7FFC000000000FF0000000001FFF
80000000000007E0000000000000
ENDCHAR
STARTCHAR n
ENCODING 110
SWIDTH 873 0
DWIDTH 91 0
BBX 79 76 6 0
BITMAP
0FC00000000000003FFE
1FE00000000000003FFE
3FF00000000000003FFE
7FF80000000000003FFE
7FFC0000000000003FFE
FFFE0000000000003FFE
FFFF0000000000003FFE
FFFFC000000000003FFE
FFFFE000000000003FFE
FFFFF000000000003FFE
FFFFF800000000003FFE
FFFFFC00000000003FFE
FFFFFE00000000003FFE
FFFFFF00000000003FFE
FFFFFF80000000003FFE
FFFFFFC0000000003FFE
FFFFFFE0000000003FFE
FFFFFFF0000000003FFE
FFFFFFF8000000003FFE
FFFFFFFC000000003FFE
FFFFFFFE000000003FFE
FFFFFFFF000000003FFE
FFFBFFFF800000003FFE
FFF9FFFFC00000003FFE
FFF8FFFFE00000003FFE
FFF87FFFF00000003FFE
FFF83FFFF80000003FFE
FFF81FFFFC0000003FFE
FFF80FFFFE0000003FFE
FFF807FFFF0000003FFE
FFF803FFFF8000003FFE
FFF801FFFFC000003FFE
FFF800FFFFE000003FFE
FFF8007FFFF000003FFE
FFF8003FFFF800003FFE
FFF8001FFFFC00003FFE
FFF8000FFFFE00003FFE
FFF80007FFFF00003FFE
FFF80003FFFF80003FFE
FFF80001FFFFC0003FFE
FFF80000FFFFE0003FFE
FFF800007FFFF0003FFE
FFF800001FFFF8003FFE
FFF800000FFFFC003FFE
FFF8000007FFFE003FFE
FFF8000003FFFF003FFE
FFF8000001FFFF803FFE
FFF8000000FFFFC03FFE
FFF80000007FFFE03FFE
FFF80000003FFFF03FFE
FFF80000001FFFF83FFE
FFF80000000FFFFC3FFE
FFF800000007FFFE3FFE
FFF800000003FFFF3FFE
FFF800000001FFFFBFFE
FFF800000000FFFFFFFE
FFF8000000007FFFFFFE
FFF8000000003FFFFFFE
FFF8000000001FFFFFFE
FFF8000000000FFFFFFE
FFF80000000007FFFFFE
FFF80000000003FFFFFE
FFF80000000001FFFFFE
FFF80000000000FFFFFE
FFF800000000007FFFFE
FFF800000000003FFFFE
FFF800000000001FFFFE
FFF800000000000FFFFE
FFF8000000000007FFFE
FFF8000000000003FFFC
FFF8000000000001FFFC
FFF8000000000000FFFC
FFF80000000000007FFC
FFF80000000000003FF8
FFF80000000000001FF0
FFF800000000000007E0
ENDCHAR
STARTCHAR o
ENCODING 111
SWIDTH 968 0
DWIDTH 101 0
BBX 93 76 4 0
BITMAP
00000001FFFFFFFC00000000
0000003FFFFFFFFFE0000000
000001FFFFFFFFFFFC000000
000007FFFFFFFFFFFF000000
00001FFFFFFFFFFFFFC00000
00007FFFFFFFFFFFFFF00000
0001FFFFFFFFFFFFFFFC0000
0003FFFFFFFFFFFFFFFE0000
0007FFFFFFFFFFFFFFFF0000
000FFFFFFFFFFFFFFFFF8000
003FFFFFFFFFFFFFFFFFC000
003FFFFFFFFFFFFFFFFFE000
007FFFFFFFFFFFFFFFFFF000
00FFFFFFE000003FFFFFF800
01FFFFF800000001FFFFFC00
03FFFFE0000000003FFFFC00
03FFFF80000000000FFFFE00
07FFFE000000000007FFFF00
07FFFC000000000001FFFF00
0FFFF8000000000000FFFF80
0FFFF00000000000007FFF80
1FFFE00000000000003FFFC0
1FFFC00000000000001FFFC0
1FFFC00000000000001FFFC0
3FFF800000000000000FFFE0
3FFF000000000000000FFFE0
3FFF0000000000000007FFE0
7FFF0000000000000007FFE0
7FFE0000000000000003FFF0
7FFE0000000000000003FFF0
7FFC0000000000000003FFF0
7FFC0000000000000001FFF0
7FFC0000000000000001FFF0
FFFC0000000000000001FFF0
FFFC0000000000000001FFF0
FFFC0000000000000001FFF0
FFFC0000000000000001FFF8
FFFC0000000000000001FFF8
FFFC0000000000000001FFF0
FFFC0000000000000001FFF0
FFFC0000000000000001FFF0
7FFC0000000000000001FFF0
7FFC0000000000000001FFF0
7FFC0000000000000001FFF0
7FFC0000000000000001FFF0
7FFE0000000000000003FFF0
7FFE0000000000000003FFF0
3FFE0000000000000003FFE0
3FFF0000000000000007FFE0
3FFF0000000000000007FFE0
3FFF800000000000000FFFE0
1FFF800000000000000FFFC0
1FFFC00000000000001FFFC0
1FFFC00000000000003FFF80
0FFFE00000000000003FFF80
0FFFF00000000000007FFF00
07FFF8000000000000FFFF00
07FFFC000000000001FFFE00
03FFFF000000000007FFFE00
01FFFF80000000000FFFFC00
01FFFFE0000000003FFFFC00
00FFFFF800000001FFFFF800
007FFFFFE000003FFFFFF000
003FFFFFFFFFFFFFFFFFE000
003FFFFFFFFFFFFFFFFFC000
001FFFFFFFFFFFFFFFFF8000
000FFFFFFFFFFFFFFFFF0000
0003FFFFFFFFFFFFFFFE0000
0001FFFFFFFFFFFFFFFC0000
0000FFFFFFFFFFFFFFF80000
00003FFFFFFFFFFFFFE00000
00001FFFFFFFFFFFFF800000
000007FFFFFFFFFFFE000000
000000FFFFFFFFFFF8000000
0000003FFFFFFFFFC0000000
00000001FFFFFFFC00000000
ENDCHAR
STARTCHAR p
ENCODING 112
SWIDTH 867 0
DWIDTH 90 0
BBX 80 76 7 0
BITMAP
FFFFFFFFFFFFFFE00000
FFFFFFFFFFFFFFFE0000
FFFFFFFFFFFFFFFFC000
FFFFFFFFFFFFFFFFF000
FFFFFFFFFFFFFFFFFC00
FFFFFFFFFFFFFFFFFE00
FFFFFFFFFFFFFFFFFF00
FFFFFFFFFFFFFFFFFF80
FFFFFFFFFFFFFFFFFFC0
FFFFFFFFFFFFFFFFFFE0
FFFFFFFFFFFFFFFFFFF0
FFFFFFFFFFFFFFFFFFF0
FFFFFFFFFFFFFFFFFFF8
FFF80000000000FFFFF8
FFF800000000000FFFFC
FFF8000000000007FFFC
FFF8000000000001FFFE
FFF8000000000000FFFE
FFF80000000000007FFE
FFF80000000000007FFF
FFF80000000000003FFF
FFF80000000000003FFF
FFF80000000000001FFF
FFF80000000000001FFF
FFF80000000000001FFF
FFF80000000000001FFF
FFF80000000000001FFF
FFF80000000000001FFF
FFF80000000000001FFF
FFF80000000000001FFF
FFF80000000000001FFF
FFF80000000000001FFF
FFF80000000000001FFF
FFF80000000000003FFF
FFF80000000000003FFF
FFF80000000000007FFE
FFF80000000000007FFE
FFF8000000000000FFFE
FFF8000000000001FFFC
FFF8000000000007FFFC
FFF800000000000FFFFC
FFF80000000000FFFFF8
FFF803FFFFFFFFFFFFF8
FFF803FFFFFFFFFFFFF0
FFF803FFFFFFFFFFFFE0
FFF803FFFFFFFFFFFFE0
FFF803FFFFFFFFFFFFC0
FFF803FFFFFFFFFFFF80
FFF803FFFFFFFFFFFF00
FFF803FFFFFFFFFFFE00
FFF803FFFFFFFFFFF800
FFF803FFFFFFFFFFE000
FFF803FFFFFFFFFF8000
FFF803FFFFFFFFFE0000
FFF803FFFFFFFFE00000
FFF80000000000000000
FFF80000000000000000
FFF80000000000000000
FFF80000000000000000
FFF80000000000000000
FFF80000000000000000
FFF80000000000000000
FFF80000000000000000
FFF80000000000000000
FFF80000000000000000
FFF80000000000000000
FFF80000000000000000
FFF80000000000000000
FFF80000000000000000
FFF80000000000000000
FFF80000000000000000
FFF80000000000000000
FFF80000000000000000
FFF80000000000000000
FFF80000000000000000
FFF80000000000000000
ENDCHAR
STARTCHAR q
ENCODING 113
SWIDTH 968 0
DWIDTH 101 0
BBX 96 76 4 0
BITMAP
00000001FFFFFFFC00000000
0000003FFFFFFFFFE0000000
000001FFFFFFFFFFFC000000
000007FFFFFFFFFFFF000000
00001FFFFFFFFFFFFFC00000
00007FFFFFFFFFFFFFF00000
0001FFFFFFFFFFFFFFFC0000
0003FFFFFFFFFFFFFFFE0000
0007FFFFFFFFFFFFFFFF0000
000FFFFFFFFFFFFFFFFF8000
003FFFFFFFFFFFFFFFFFC000
003FFFFFFFFFFFFFFFFFE000
007FFFFFFFFFFFFFFFFFF000
00FFFFFFE000003FFFFFF800
01FFFFF800000001FFFFFC00
03FFFFE0000000003FFFFC00
03FFFF80000000000FFFFE00
07FFFE000000000007FFFF00
07FFFC000000000001FFFF00
0FFFF8000000000000FFFF80
0FFFF00000000000007FFF80
1FFFE00000000000003FFFC0
1FFFC00000000000001FFFC0
1FFFC00000000000001FFFC0
3FFF800000000000000FFFE0
3FFF000000000000000FFFE0
3FFF0000000000000007FFE0
7FFF0000000000000007FFE0
7FFE0000000000000003FFF0
7FFE0000000000000003FFF0
7FFC0000000000000003FFF0
7FFC0000000000000001FFF0
7FFC0000000000000001FFF0
FFFC0000000000000001FFF0
FFFC0000000000000001FFF0
FFFC0000000000000001FFF0
FFFC0000000000000001FFF8
FFFC0000000000000001FFF8
FFFC0000000000000001FFF0
FFFC0000000000000001FFF0
FFFC0000000000000001FFF0
7FFC0000000000000001FFF0
7FFC0000000000000001FFF0
7FFC0000000000000001FFF0
7FFC0000008000000001FFF0
7FFE0000007FFFE00003FFF0
7FFE0000001FFFF00003FFF0
3FFE0000000FFFF80003FFE0
3FFF00000007FFFC0007FFE0
3FFF00000003FFFE0007FFE0
3FFF80000000FFFF800FFFE0
1FFF800000007FFFC00FFFC0
1FFFC00000003FFFE01FFFC0
1FFFC00000001FFFF03FFF80
0FFFE000000007FFF83FFF80
0FFFF000000003FFFC7FFF00
07FFF800000001FFFFFFFF00
07FFFC00000000FFFFFFFE00
03FFFF000000003FFFFFFE00
01FFFF800000001FFFFFFC00
01FFFFE00000000FFFFFFC00
00FFFFF800000003FFFFF800
007FFFFFE000001FFFFFF000
003FFFFFFFFFFFFFFFFFE000
003FFFFFFFFFFFFFFFFFC000
001FFFFFFFFFFFFFFFFFE000
000FFFFFFFFFFFFFFFFFF000
0003FFFFFFFFFFFFFFFFF800
0001FFFFFFFFFFFFFFFFFE00
0000FFFFFFFFFFFFFFFFFF00
00003FFFFFFFFFFFFFFFFF80
00001FFFFFFFFFFFFFFFFFC0
000007FFFFFFFFFFFF1FFFF0
000000FFFFFFFFFFF80FFFF8
0000003FFFFFFFFFC007FFFC
00000001FFFFFFFC0003FFFF
ENDCHAR
STARTCHAR r
ENCODING 114
SWIDTH 921 0
DWIDTH 96 0
BBX 88 76 7 0
BITMAP
FFFFFFFFFFFFFFF0000000
FFFFFFFFFFFFFFFF000000
FFFFFFFFFFFFFFFFE00000
FFFFFFFFFFFFFFFFF80000
FFFFFFFFFFFFFFFFFC0000
FFFFFFFFFFFFFFFFFF0000
FFFFFFFFFFFFFFFFFF8000
FFFFFFFFFFFFFFFFFFC000
FFFFFFFFFFFFFFFFFFE000
FFFFFFFFFFFFFFFFFFF000
FFFFFFFFFFFFFFFFFFF000
FFFFFFFFFFFFFFFFFFF800
FFFFFFFFFFFFFFFFFFFC00
FFF800000000007FFFFC00
FFF8000000000007FFFE00
FFF8000000000001FFFE00
FFF8000000000000FFFF00
FFF80000000000007FFF00
FFF80000000000003FFF00
FFF80000000000003FFF00
FFF80000000000001FFF80
FFF80000000000001FFF80
FFF80000000000000FFF80
FFF80000000000000FFF80
FFF80000000000000FFF80
FFF80000000000000FFF80
FFF80000000000000FFF80
FFF80000000000000FFF80
FFF80000000000000FFF80
FFF80000000000000FFF80
FFF80000000000000FFF80
FFF80000000000000FFF80
FFF80000000000000FFF80
FFF80000000000000FFF80
FFF80000000000001FFF80
FFF80000000000001FFF80
FFF80000000000003FFF00
FFF80000000000003FFF00
FFF80000000000007FFF00
FFF8000000000000FFFE00
FFF8000000000001FFFE00
FFF8000000000007FFFC00
FFF800000000001FFFFC00
FFF803FFFFFFFFFFFFF800
FFF803FFFFFFFFFFFFF800
FFF803FFFFFFFFFFFFF000
FFF803FFFFFFFFFFFFE000
FFF803FFFFFFFFFFFFC000
FFF803FFFFFFFFFFFF8000
FFF803FFFFFFFFFFFF0000
FFF803FFFFFFFFFFFE0000
FFF803FFFFFFFFFFF80000
FFF803FFFFFFFFFFE00000
FFF803FFFFFFFFFFC00000
FFF803FFFFFFFFFFE00000
FFF8000000001FFFF00000
FFF8000000000FFFF80000
FFF80000000007FFFC0000
FFF80000000003FFFE0000
FFF80000000001FFFF0000
FFF80000000000FFFF8000
FFF800000000007FFFC000
FFF800000000007FFFE000
FFF800000000003FFFF000
FFF800000000001FFFF800
FFF800000000000FFFFC00
FFF8000000000007FFFE00
FFF8000000000003FFFF00
FFF8000000000001FFFF80
FFF8000000000000FFFFC0
FFF80000000000007FFFE0
FFF80000000000003FFFF0
FFF80000000000001FFFF8
FFF80000000000001FFFFC
FFF80000000000000FFFFE
FFF800000000000007FFFF
ENDCHAR
STARTCHAR s
ENCODING 115
SWIDTH 880 0
DWIDTH 92 0
BBX 82 76 5 0
BITMAP
00003FFFFFFFFFFFFFFC00
0003FFFFFFFFFFFFFFFC00
000FFFFFFFFFFFFFFFFC00
003FFFFFFFFFFFFFFFFC00
00FFFFFFFFFFFFFFFFFC00
01FFFFFFFFFFFFFFFFFC00
03FFFFFFFFFFFFFFFFFC00
07FFFFFFFFFFFFFFFFFC00
0FFFFFFFFFFFFFFFFFFC00
0FFFFFFFFFFFFFFFFFFC00
1FFFFFFFFFFFFFFFFFFC00
3FFFFFFFFFFFFFFFFFFC00
3FFFFFFFFFFFFFFFFFFC00
3FFFF80000000000000000
7FFFC00000000000000000
7FFF800000000000000000
7FFF000000000000000000
7FFE000000000000000000
7FFE000000000000000000
FFFE000000000000000000
FFFC000000000000000000
FFFC000000000000000000
FFFC000000000000000000
FFFC000000000000000000
7FFC000000000000000000
7FFC000000000000000000
7FFE000000000000000000
7FFE000000000000000000
7FFF000000000000000000
3FFF800000000000000000
3FFFC00000000000000000
1FFFF00000000000000000
1FFFFFFFFFFFFFFF800000
0FFFFFFFFFFFFFFFF80000
0FFFFFFFFFFFFFFFFE0000
07FFFFFFFFFFFFFFFF8000
03FFFFFFFFFFFFFFFFE000
01FFFFFFFFFFFFFFFFF000
00FFFFFFFFFFFFFFFFF800
003FFFFFFFFFFFFFFFFC00
000FFFFFFFFFFFFFFFFC00
0003FFFFFFFFFFFFFFFE00
00003FFFFFFFFFFFFFFF00
0000000000000003FFFF00
00000000000000007FFF00
00000000000000003FFF80
00000000000000001FFF80
00000000000000000FFF80
000000000000000007FF80
000000000000000007FF80
000000000000000007FFC0
000000000000000007FFC0
000000000000000007FFC0
000000000000000007FFC0
000000000000000007FFC0
000000000000000007FFC0
000000000000000007FFC0
00000000000000000FFF80
00000000000000000FFF80
00000000000000001FFF80
00000000000000003FFF80
0000000000000000FFFF80
0000000000000007FFFF00
3FFFFFFFFFFFFFFFFFFF00
3FFFFFFFFFFFFFFFFFFF00
3FFFFFFFFFFFFFFFFFFE00
3FFFFFFFFFFFFFFFFFFC00
3FFFFFFFFFFFFFFFFFFC00
3FFFFFFFFFFFFFFFFFF800
3FFFFFFFFFFFFFFFFFF000
3FFFFFFFFFFFFFFFFFE000
3FFFFFFFFFFFFFFFFFC000
3FFFFFFFFFFFFFFFFF0000
3FFFFFFFFFFFFFFFFE0000
3FFFFFFFFFFFFFFFF00000
3FFFFFFFFFFFFFFF000000
ENDCHAR
STARTCHAR t
ENCODING 116
SWIDTH 720 0
DWIDTH 75 0
BBX 71 76 2 0
BITMAP
FFFFFFFFFFFFFFFFFE
FFFFFFFFFFFFFFFFFE
FFFFFFFFFFFFFFFFFE
FFFFFFFFFFFFFFFFFE
FFFFFFFFFFFFFFFFFE
FFFFFFFFFFFFFFFFFE
FFFFFFFFFFFFFFFFFE
FFFFFFFFFFFFFFFFFE
FFFFFFFFFFFFFFFFFE
FFFFFFFFFFFFFFFFFE
FFFFFFFFFFFFFFFFFE
FFFFFFFFFFFFFFFFFE
FFFFFFFFFFFFFFFFFE
00000007FFC0000000
00000007FFC0000000
00000007FFC0000000
00000007FFC0000000
00000007FFC0000000
00000007FFC0000000
00000007FFC0000000
00000007FFC0000000
00000007FFC0000000
00000007FFC0000000
00000007FFC0000000
00000007FFC0000000
00000007FFC0000000
00000007FFC0000000
00000007FFC0000000
00000007FFC0000000
00000007FFC0000000
00000007FFC0000000
00000007FFC0000000
00000007FFC0000000
00000007FFC0000000
00000007FFC0000000
00000007FFC0000000
00000007FFC0000000
00000007FFC0000000
00000007FFC0000000
00000007FFC0000000
00000007FFC0000000
00000007FFC0000000
00000007FFC0000000
00000007FFC0000000
00000007FFC0000000
00000007FFC0000000
00000007FFC0000000
00000007FFC0000000
00000007FFC0000000
00000007FFC0000000
00000007FFC0000000
00000007FFC0000000
00000007FFC0000000
00000007FFC0000000
00000007FFC0000000
00000007FFC0000000
00000007FFC0000000
00000007FFC0000000
00000007FFC0000000
00000007FFC0000000
00000007FFC0000000
00000007FFC0000000
00000007FFC0000000
00000007FFC0000000
00000007FFC0000000
00000007FFC0000000
00000007FFC0000000
00000007FFC0000000
00000007FFC0000000
00000007FFC0000000
00000007FFC0000000
00000007FFC0000000
00000007FFC0000000
00000007FFC0000000
00000007FFC0000000
00000007FFC0000000
ENDCHAR
STARTCHAR u
ENCODING 117
SWIDTH 889 0
DWIDTH 92 0
BBX 82 77 5 -1
BITMAP
FFFC00000000000007FFC0
FFFC00000000000007FFC0
FFFC00000000000007FFC0
FFFC00000000000007FFC0
FFFC00000000000007FFC0
FFFC00000000000007FFC0
FFFC00000000000007FFC0
FFFC00000000000007FFC0
FFFC00000000000007FFC0
FFFC00000000000007FFC0
FFFC00000000000007FFC0
FFFC00000000000007FFC0
FFFC00000000000007FFC0
FFFC00000000000007FFC0
FFFC00000000000007FFC0
FFFC00000000000007FFC0
FFFC00000000000007FFC0
FFFC00000000000007FFC0
FFFC00000000000007FFC0
FFFC00000000000007FFC0
FFFC00000000000007FFC0
FFFC00000000000007FFC0
FFFC00000000000007FFC0
FFFC00000000000007FFC0
FFFC00000000000007FFC0
FFFC00000000000007FFC0
FFFC00000000000007FFC0
FFFC00000000000007FFC0
FFFC00000000000007FFC0
FFFC00000000000007FFC0
FFFC00000000000007FFC0
FFFC00000000000007FFC0
FFFC00000000000007FFC0
FFFC00000000000007FFC0
FFFC00000000000007FFC0
FFFC00000000000007FFC0
FFFC00000000000007FFC0
FFFC00000000000007FFC0
FFFC00000000000007FFC0
FFFC00000000000007FFC0
FFFC00000000000007FFC0
FFFC00000000000007FFC0
FFFC00000000000007FFC0
FFFC00000000000007FFC0
FFFC00000000000007FFC0
FFFC00000000000007FFC0
7FFC00000000000007FFC0
7FFC00000000000007FFC0
7FFC00000000000007FFC0
7FFE0000000000000FFFC0
7FFE0000000000000FFFC0
7FFE0000000000000FFF80
7FFF0000000000000FFF80
7FFF0000000000001FFF80
3FFF0000000000001FFF80
3FFF8000000000003FFF80
3FFFC000000000003FFF00
1FFFC000000000007FFF00
1FFFE00000000000FFFF00
1FFFF80000000003FFFE00
0FFFFC0000000007FFFE00
0FFFFF000000001FFFFC00
07FFFFE0000000FFFFFC00
07FFFFFF80003FFFFFF800
03FFFFFFFFFFFFFFFFF000
01FFFFFFFFFFFFFFFFF000
00FFFFFFFFFFFFFFFFE000
00FFFFFFFFFFFFFFFFC000
003FFFFFFFFFFFFFFF8000
001FFFFFFFFFFFFFFF0000
000FFFFFFFFFFFFFFC0000
0003FFFFFFFFFFFFF80000
0001FFFFFFFFFFFFE00000
00003FFFFFFFFFFF800000
00000FFFFFFFFFFC000000
000000FFFFFFFFE0000000
00000007FFFFF800000000
ENDCHAR
STARTCHAR v
ENCODING 118
SWIDTH 989 0
DWIDTH 103 0
BBX 100 77 1 -1
BITMAP
FFFF800000000000000007FFF0
7FFF80000000000000000FFFE0
3FFFC0000000000000000FFFE0
1FFFE0000000000000001FFFC0
1FFFE0000000000000003FFFC0
0FFFF0000000000000003FFF80
0FFFF0000000000000007FFF00
07FFF8000000000000007FFF00
03FFFC00000000000000FFFE00
03FFFC00000000000000FFFE00
01FFFE00000000000001FFFC00
01FFFE00000000000003FFF800
00FFFF00000000000003FFF800
007FFF00000000000007FFF000
007FFF80000000000007FFF000
003FFFC000000000000FFFE000
003FFFC000000000001FFFC000
001FFFE000000000001FFFC000
000FFFE000000000003FFF8000
000FFFF000000000003FFF8000
0007FFF800000000007FFF0000
0007FFF800000000007FFE0000
0003FFFC0000000000FFFE0000
0001FFFC0000000001FFFC0000
0001FFFE0000000001FFFC0000
0000FFFE0000000003FFF80000
0000FFFF0000000003FFF00000
00007FFF8000000007FFF00000
00007FFF800000000FFFE00000
00003FFFC00000000FFFE00000
00001FFFC00000001FFFC00000
00001FFFE00000001FFF800000
00000FFFF00000003FFF800000
00000FFFF00000003FFF000000
000007FFF80000007FFF000000
000003FFF8000000FFFE000000
000003FFFC000000FFFC000000
000001FFFC000001FFFC000000
000001FFFE000001FFF8000000
000000FFFF000003FFF8000000
0000007FFF000003FFF0000000
0000007FFF800007FFE0000000
0000003FFF80000FFFE0000000
0000003FFFC0000FFFC0000000
0000001FFFE0001FFFC0000000
0000000FFFE0001FFF80000000
0000000FFFF0003FFF00000000
00000007FFF0007FFF00000000
00000007FFF8007FFE00000000
00000003FFF800FFFE00000000
00000001FFFC00FFFC00000000
00000001FFFE01FFF800000000
00000000FFFE01FFF800000000
00000000FFFF03FFF000000000
000000007FFF07FFF000000000
000000003FFF87FFE000000000
000000003FFFCFFFC000000000
000000001FFFCFFFC000000000
000000001FFFFFFF8000000000
000000000FFFFFFF8000000000
0000000007FFFFFF0000000000
0000000007FFFFFE0000000000
0000000003FFFFFE0000000000
0000000003FFFFFC0000000000
0000000001FFFFFC0000000000
0000000000FFFFF80000000000
0000000000FFFFF00000000000
00000000007FFFF00000000000
00000000007FFFE00000000000
00000000003FFFE00000000000
00000000001FFFC00000000000
00000000001FFF800000000000
00000000000FFF800000000000
00000000000FFF000000000000
000000000007FE000000000000
000000000003FC000000000000
000000000000F8000000000000
ENDCHAR
STARTCHAR w
ENCODING 119
SWIDTH 1268 0
DWIDTH 132 0
BBX 129 77 1 -1
BITMAP
FFFF800001FFFE000000000000003FFF80
7FFF800001FFFE000000000000003FFF80
3FFFC00000FFFF000000000000007FFF00
3FFFC00000FFFF000000000000007FFE00
1FFFE000007FFF80000000000000FFFE00
1FFFE000007FFF80000000000000FFFC00
0FFFF000003FFFC0000000000001FFFC00
0FFFF000003FFFC0000000000001FFF800
07FFF800001FFFE0000000000003FFF800
03FFF800000FFFE0000000000003FFF000
03FFFC00000FFFF0000000000007FFF000
01FFFC000007FFF000000000000FFFE000
01FFFE000007FFF800000000000FFFE000
00FFFE000003FFF800000000001FFFC000
00FFFF000003FFFC00000000001FFFC000
007FFF000001FFFC00000000003FFF8000
007FFF800001FFFE00000000003FFF0000
003FFF800000FFFE00000000007FFF0000
003FFFC00000FFFF00000000007FFE0000
001FFFC000007FFF0000000000FFFE0000
001FFFE000007FFF8000000000FFFC0000
000FFFE000003FFF8000000001FFFC0000
0007FFF000003FFFC000000001FFF80000
0007FFF800001FFFC000000003FFF80000
0003FFF800001FFFE000000003FFF00000
0003FFFC00000FFFE000000007FFF00000
0001FFFC00000FFFF000000007FFE00000
0001FFFE000007FFF00000000FFFE00000
0000FFFE000007FFF80000000FFFC00000
0000FFFF000003FFF80000001FFF800000
00007FFF000003FFFC0000001FFF800000
00007FFF800001FFFC0000003FFF000000
00003FFF800001FFFE0000007FFF000000
00003FFFC00000FFFE0000007FFE000000
00001FFFC00000FFFF000000FFFE000000
00000FFFE000007FFF000000FFFC000000
00000FFFE000007FFF800001FFFC000000
000007FFF000003FFF800001FFF8000000
000007FFF000003FFFC00003FFF8000000
000003FFF800003FFFC00003FFF0000000
000003FFF800007FFFE00007FFF0000000
000001FFFC0000FFFFE00007FFE0000000
000001FFFC0000FFFFF0000FFFE0000000
000000FFFE0001FFFFF0000FFFC0000000
000000FFFE0001FFFFF8001FFF80000000
0000007FFF0003FFFFF8001FFF80000000
0000007FFF8003FFFFFC003FFF00000000
0000003FFF8007FFFFFC003FFF00000000
0000001FFFC007FFFFFE007FFE00000000
0000001FFFC00FFFFFFE007FFE00000000
0000000FFFE01FFFFFFF00FFFC00000000
0000000FFFE01FFFFFFF00FFFC00000000
00000007FFF03FFF3FFF81FFF800000000
00000007FFF03FFF3FFF83FFF800000000
00000003FFF87FFE1FFFC3FFF000000000
00000003FFF87FFE1FFFC7FFF000000000
00000001FFFCFFFC0FFFE7FFE000000000
00000001FFFDFFF80FFFEFFFC000000000
00000000FFFFFFF807FFFFFFC000000000
00000000FFFFFFF007FFFFFF8000000000
000000007FFFFFF003FFFFFF8000000000
000000007FFFFFE001FFFFFF0000000000
000000003FFFFFE001FFFFFF0000000000
000000001FFFFFC000FFFFFE0000000000
000000001FFFFFC000FFFFFE0000000000
000000000FFFFF80007FFFFC0000000000
000000000FFFFF80007FFFFC0000000000
0000000007FFFF00003FFFF80000000000
0000000007FFFF00003FFFF80000000000
0000000003FFFE00001FFFF00000000000
0000000003FFFC00001FFFE00000000000
0000000001FFFC00000FFFE00000000000
0000000001FFF800000FFFC00000000000
0000000000FFF8000007FFC00000000000
00000000007FF0000003FF800000000000
00000000003FE0000001FF000000000000
00000000001F800000007C000000000000
ENDCHAR
STARTCHAR x
ENCODING 120
SWIDTH 1000 0
DWIDTH 104 0
BBX 99 76 2 0
BITMAP
1FFFFC00000000000003FFFF00
07FFFE00000000000007FFFC00
03FFFF0000000000000FFFF800
01FFFF8000000000001FFFF000
00FFFFC000000000003FFFE000
007FFFE000000000007FFFC000
003FFFF00000000000FFFF8000
001FFFF80000000001FFFF0000
000FFFFC0000000003FFFE0000
0007FFFE0000000007FFFC0000
0003FFFF000000000FFFF80000
0001FFFF800000001FFFF00000
0000FFFFC00000003FFFE00000
00007FFFE00000007FFFC00000
00003FFFF0000000FFFF800000
00001FFFF8000001FFFF000000
00000FFFFC000003FFFE000000
000007FFFE000007FFFC000000
000003FFFF00000FFFF8000000
000001FFFF80001FFFF0000000
000000FFFFC0003FFFE0000000
0000007FFFE0007FFFC0000000
0000003FFFF000FFFF80000000
0000001FFFF801FFFF00000000
0000000FFFFE03FFFC00000000
00000007FFFF07FFF800000000
00000001FFFF8FFFF000000000
00000000FFFFDFFFE000000000
000000007FFFFFFFC000000000
000000003FFFFFFF8000000000
000000001FFFFFFF0000000000
000000000FFFFFFE0000000000
0000000007FFFFFC0000000000
0000000003FFFFF80000000000
0000000001FFFFF00000000000
0000000000FFFFE00000000000
00000000007FFFC00000000000
0000000000FFFFE00000000000
0000000001FFFFF00000000000
0000000003FFFFF80000000000
0000000007FFFFFC0000000000
000000000FFFFFFE0000000000
000000001FFFFFFF0000000000
000000003FFFFFFF8000000000
000000007FFFFFFFC000000000
00000000FFFF7FFFE000000000
00000001FFFE3FFFF800000000
00000003FFFC1FFFFC00000000
0000000FFFF80FFFFE00000000
0000001FFFF007FFFF00000000
0000003FFFE001FFFF80000000
0000007FFFC000FFFFC0000000
000000FFFF80007FFFE0000000
000001FFFF00003FFFF0000000
000003FFFE00001FFFF8000000
000007FFFC00000FFFFC000000
00000FFFF8000007FFFE000000
00001FFFF0000003FFFF000000
00003FFFE0000001FFFF800000
00007FFFC0000000FFFFC00000
0000FFFF800000007FFFE00000
0001FFFF000000003FFFF00000
0003FFFE000000001FFFF80000
0007FFFC000000000FFFFC0000
000FFFF80000000007FFFE0000
001FFFF00000000003FFFF0000
003FFFE00000000001FFFF8000
007FFFC00000000000FFFFC000
00FFFF8000000000007FFFE000
01FFFF0000000000003FFFF000
03FFFE0000000000001FFFF800
07FFFC0000000000000FFFFC00
0FFFF800000000000007FFFE00
1FFFF000000000000003FFFF80
3FFFE000000000000001FFFFC0
FFFFC000000000000000FFFFE0
ENDCHAR
STARTCHAR y
ENCODING 121
SWIDTH 926 0
DWIDTH 96 0
BBX 94 76 1 0
BITMAP
FFFFE000000000000007FFFC
3FFFE00000000000000FFFF8
3FFFF00000000000001FFFF0
1FFFF80000000000003FFFE0
0FFFFC0000000000007FFFC0
07FFFE000000000000FFFF80
03FFFF000000000000FFFF00
01FFFF000000000001FFFF00
00FFFF800000000003FFFE00
00FFFFC00000000007FFFC00
007FFFE0000000000FFFF800
003FFFF0000000001FFFF000
001FFFF8000000001FFFE000
000FFFFC000000003FFFC000
0007FFFC000000007FFFC000
0003FFFE00000000FFFF8000
0003FFFF00000001FFFF0000
0001FFFF80000003FFFE0000
0000FFFFC0000007FFFC0000
00007FFFE0000007FFF80000
00003FFFE000000FFFF00000
00001FFFF000001FFFF00000
00001FFFF800003FFFE00000
00000FFFFC00007FFFC00000
000007FFFE0000FFFF800000
000003FFFF0000FFFF000000
000001FFFF0001FFFE000000
000000FFFF8003FFFE000000
0000007FFFC007FFFC000000
0000007FFFE00FFFF8000000
0000003FFFF01FFFF0000000
0000001FFFF81FFFE0000000
0000000FFFF83FFFC0000000
00000007FFFC7FFF80000000
00000003FFFEFFFF80000000
00000001FFFFFFFF00000000
00000001FFFFFFFE00000000
00000000FFFFFFFC00000000
000000007FFFFFF800000000
000000003FFFFFF000000000
000000001FFFFFE000000000
000000000FFFFFE000000000
0000000007FFFFC000000000
0000000007FFFF8000000000
0000000003FFFF0000000000
0000000001FFFE0000000000
0000000000FFFC0000000000
0000000000FFFC0000000000
0000000000FFFC0000000000
0000000000FFFC0000000000
0000000000FFFC0000000000
0000000000FFFC0000000000
0000000000FFFC0000000000
0000000000FFFC0000000000
0000000000FFFC0000000000
0000000000FFFC0000000000
0000000000FFFC0000000000
0000000000FFFC0000000000
0000000000FFFC0000000000
0000000000FFFC0000000000
0000000000FFFC0000000000
0000000000FFFC0000000000
0000000000FFFC0000000000
0000000000FFFC0000000000
0000000000FFFC0000000000
0000000000FFFC0000000000
0000000000FFFC0000000000
0000000000FFFC0000000000
0000000000FFFC0000000000
0000000000FFFC0000000000
0000000000FFFC0000000000
0000000000FFFC0000000000
0000000000FFFC0000000000
0000000000FFFC0000000000
0000000000FFFC0000000000
0000000000FFFC0000000000
ENDCHAR
STARTCHAR z
ENCODING 122
SWIDTH 802 0
DWIDTH 83 0
BBX 75 76 4 0
BITMAP
7FFFFFFFFFFFFFFFFC00
7FFFFFFFFFFFFFFFFF00
7FFFFFFFFFFFFFFFFF80
7FFFFFFFFFFFFFFFFFC0
7FFFFFFFFFFFFFFFFFC0
7FFFFFFFFFFFFFFFFFE0
7FFFFFFFFFFFFFFFFFE0
7FFFFFFFFFFFFFFFFFE0
7FFFFFFFFFFFFFFFFFC0
7FFFFFFFFFFFFFFFFFC0
7FFFFFFFFFFFFFFFFFC0
7FFFFFFFFFFFFFFFFF80
7FFFFFFFFFFFFFFFFF00
00000000000007FFFE00
0000000000000FFFFC00
0000000000001FFFF800
0000000000003FFFF000
0000000000007FFFE000
000000000000FFFFC000
000000000001FFFF8000
000000000003FFFF0000
000000000007FFFE0000
00000000000FFFFC0000
00000000001FFFF80000
00000000003FFFF00000
00000000007FFFE00000
0000000000FFFFC00000
0000000001FFFF800000
0000000003FFFF000000
0000000007FFFE000000
000000000FFFFC000000
000000001FFFF8000000
000000003FFFF0000000
000000007FFFE0000000
00000000FFFFC0000000
00000001FFFF80000000
00000003FFFF00000000
00000007FFFE00000000
0000000FFFFC00000000
0000001FFFF800000000
0000003FFFF000000000
0000007FFFE000000000
000000FFFFC000000000
000001FFFF8000000000
000003FFFF0000000000
000007FFFE0000000000
00000FFFFC0000000000
00001FFFF80000000000
00003FFFF00000000000
00007FFFE00000000000
0000FFFFC00000000000
0001FFFF800000000000
0003FFFF000000000000
0007FFFE000000000000
000FFFFC000000000000
001FFFF8000000000000
003FFFF0000000000000
007FFFE0000000000000
00FFFFC0000000000000
01FFFF80000000000000
03FFFF00000000000000
07FFFE00000000000000
0FFFFC00000000000000
1FFFFFFFFFFFFFFFFFC0
3FFFFFFFFFFFFFFFFFC0
7FFFFFFFFFFFFFFFFFC0
7FFFFFFFFFFFFFFFFFC0
FFFFFFFFFFFFFFFFFFC0
FFFFFFFFFFFFFFFFFFC0
FFFFFFFFFFFFFFFFFFC0
FFFFFFFFFFFFFFFFFFC0
FFFFFFFFFFFFFFFFFFC0
7FFFFFFFFFFFFFFFFFC0
3FFFFFFFFFFFFFFFFFC0
1FFFFFFFFFFFFFFFFFC0
07FFFFFFFFFFFFFFFFC0
ENDCHAR
STARTCHAR braceleft
ENCODING 123
SWIDTH 337 0
DWIDTH 35 0
BBX 22 96 6 -9
BITMAP
0003FC
001FFC
003FFC
007FFC
00FFFC
01FFFC
01FFFC
03FFE0
03FF80
03FF00
03FE00
03FE00
03FE00
03FC00
03FC00
03FC00
03FC00
03FC00
03FC00
03FC00
03FC00
03FC00
03FC00
03FC00
03FC00
03FC00
03FC00
03FC00
03FC00
03FC00
03FC00
03FC00
03FC00
03FC00
03FC00
03FC00
03FC00
03FC00
03FC00
03FC00
03FC00
03FC00
03FC00
07FC00
0FFC00
FFFC00
FFF800
FFF000
FFC000
FFF000
FFF800
FFFC00
0FFC00
07FC00
03FC00
03FC00
03FC00
03FC00
03FC00
03FC00
03FC00
03FC00
03FC00
03FC00
03FC00
03FC00
03FC00
03FC00
03FC00
03FC00
03FC00
03FC00
03FC00
03FC00
03FC00
03FC00
03FC00
03FC00
03FC00
03FC00
03FC00
03FC00
03FC00
03FC00
03FE00
03FE00
03FE00
03FF00
03FFC0
01FFFC
01FFFC
00FFFC
007FFC
003FFC
001FFC
0003FC
ENDCHAR
STARTCHAR bar
ENCODING 124
SWIDTH 297 0
DWIDTH 31 0
BBX 7 96 12 -9
BITMAP
FE
FE
FE
FE
FE
FE
FE
FE
FE
FE
FE
FE
FE
FE
FE
FE
FE
FE
FE
FE
FE
FE
FE
FE
FE
FE
FE
FE
FE
FE
FE
FE
FE
FE
FE
FE
FE
FE
FE
FE
FE
FE
FE
FE
FE
FE
FE
FE
FE
FE
FE
FE
FE
FE
FE
FE
FE
FE
FE
FE
FE
FE
FE
FE
FE
FE
FE
FE
FE
FE
FE
FE
FE
FE
FE
FE
FE
FE
FE
FE
FE
FE
FE
FE
FE
FE
FE
FE
FE
FE
FE
FE
FE
FE
FE
FE
ENDCHAR
STARTCHAR braceright
ENCODING 125
SWIDTH 337 0
DWIDTH 35 0
BBX 22 96 6 -9
BITMAP
FF8000
FFF000
FFF800
FFFC00
FFFE00
FFFE00
FFFF00
0FFF00
03FF80
01FF80
00FF80
00FF80
00FF80
00FF80
00FF80
00FF80
00FF80
00FF80
00FF80
00FF80
00FF80
00FF80
00FF80
00FF80
00FF80
00FF80
00FF80
00FF80
00FF80
00FF80
00FF80
00FF80
00FF80
00FF80
00FF80
00FF80
00FF80
00FF80
00FF80
00FF80
00FF80
00FF80
007F80
007F80
007FE0
007FFC
003FFC
001FFC
000FFC
001FFC
003FFC
007FFC
007FE0
007F80
007F80
00FF80
00FF80
00FF80
00FF80
00FF80
00FF80
00FF80
00FF80
00FF80
00FF80
00FF80
00FF80
00FF80
00FF80
00FF80
00FF80
00FF80
00FF80
00FF80
00FF80
00FF80
00FF80
00FF80
00FF80
00FF80
00FF80
00FF80
00FF80
00FF80
00FF80
00FF80
00FF80
01FF80
0FFF00
FFFF00
FFFF00
FFFE00
FFFC00
FFF800
FFF000
FF8000
ENDCHAR
STARTCHAR asciitilde
ENCODING 126
SWIDTH 691 0
DWIDTH 72 0
BBX 58 16 7 31
BITMAP
003FF00000000000
03FFFE0000000040
0FFFFFC000000040
3FFFFFF8000001C0
7FFFFFFF000007C0
FFFFFFFFE0001FC0
FFFFFFFFFC00FFC0
FFFFFFFFFFFFFFC0
FFFFFFFFFFFFFFC0
FFC00FFFFFFFFFC0
FE0001FFFFFFFFC0
F800003FFFFFFF80
E0000007FFFFFF00
80000000FFFFFC00
800000001FFFF000
0000000003FF0000
ENDCHAR
STARTCHAR nonbreakingspace
ENCODING 160
SWIDTH 294 0
DWIDTH 31 0
BBX 1 1 0 0
BITMAP
00
ENDCHAR
STARTCHAR exclamdown
ENCODING 161
SWIDTH 298 0
DWIDTH 31 0
BBX 14 76 9 0
BITMAP
0FC0
3FE0
7FF0
FFF8
FFF8
FFFC
FFFC
FFFC
FFFC
FFF8
FFF8
7FF0
3FE0
0FC0
0000
0000
0000
0000
0000
0000
0000
0000
0000
0000
7FF8
7FF8
7FF8
7FF8
7FF8
7FF8
7FF8
7FF8
7FF8
7FF8
7FF8
7FF8
7FF8
7FF8
7FF8
7FF8
7FF8
7FF8
7FF8
7FF8
7FF8
7FF8
7FF8
7FF8
7FF8
7FF8
7FF8
7FF8
7FF8
7FF8
7FF8
7FF8
7FF8
7FF8
7FF8
7FF8
7FF8
7FF8
7FF8
7FF8
7FF8
7FF8
7FF8
7FF8
7FF8
7FF8
7FF8
7FF8
7FF8
7FF8
7FF8
7FF8
ENDCHAR
STARTCHAR cent
ENCODING 162
SWIDTH 692 0
DWIDTH 72 0
BBX 63 76 4 0
BITMAP
0000000007E00000
0000000007E00000
0000000007E00000
0000000007E00000
0000000007E00000
0000000007E00000
0000000007E00000
000000FFFFFFFFFE
00000FFFFFFFFFFE
00007FFFFFFFFFFE
0001FFFFFFFFFFFE
0007FFFFFFFFFFFE
000FFFFFFFFFFFFE
001FFFFFFFFFFFFE
003FFFFFFFFFFFFE
007FFFFFFFFFFFFE
00FFFFFFFFFFFFFE
01FFFFFFFFFFFFFE
03FFFF8007E00000
07FFFC0007E00000
07FFF00007E00000
0FFFE00007E00000
0FFF800007E00000
1FFF000007E00000
1FFF000007E00000
3FFE000007E00000
3FFC000007E00000
3FF8000007E00000
7FF8000007E00000
7FF8000007E00000
7FF0000007E00000
7FF0000007E00000
7FF0000007E00000
7FE0000007E00000
FFE0000007E00000
FFE0000007E00000
FFE0000007E00000
FFE0000007E00000
FFE0000007E00000
FFE0000007E00000
FFE0000007E00000
7FE0000007E00000
7FE0000007E00000
7FF0000007E00000
7FF0000007E00000
7FF0000007E00000
7FF8000007E00000
3FF8000007E00000
3FFC000007E00000
3FFC000007E00000
1FFE000007E00000
1FFF000007E00000
0FFF000007E00000
0FFFC00007E00000
07FFE00007E00000
07FFF00007E00000
03FFFC0007E00000
01FFFF8007E00000
01FFFFFFFFFFFFFE
00FFFFFFFFFFFFFE
007FFFFFFFFFFFFE
003FFFFFFFFFFFFE
001FFFFFFFFFFFFE
0007FFFFFFFFFFFE
0003FFFFFFFFFFFE
0000FFFFFFFFFFFE
00003FFFFFFFFFFE
00000FFFFFFFFFFE
000000FFFFFFFFFE
0000000007E00000
0000000007E00000
0000000007E00000
0000000007E00000
0000000007E00000
0000000007E00000
0000000007E00000
ENDCHAR
STARTCHAR sterling
ENCODING 163
SWIDTH 709 0
DWIDTH 74 0
BBX 67 76 3 0
BITMAP
0000001FFFFFFE0000
000001FFFFFFFE0000
00000FFFFFFFFE0000
00001FFFFFFFFE0000
00007FFFFFFFFE0000
0000FFFFFFFFFE0000
0001FFFFFFFFFE0000
0003FFFFFFFFFE0000
0007FFFFFFFFFE0000
0007FFFFFFFFFE0000
000FFFFFFFFFFE0000
001FFFFFFFFFFE0000
001FFFFFFFFFFE0000
001FFFFE0000000000
003FFFF00000000000
003FFFC00000000000
003FFF000000000000
003FFF000000000000
007FFE000000000000
007FFC000000000000
007FFC000000000000
007FFC000000000000
007FFC000000000000
007FFC000000000000
007FFC000000000000
007FFC000000000000
007FFC000000000000
007FFC000000000000
007FFC000000000000
007FFC000000000000
007FFC000000000000
007FFC000000000000
0FFFFFFFFFE0000000
0FFFFFFFFFE0000000
0FFFFFFFFFE0000000
0FFFFFFFFFE0000000
0FFFFFFFFFE0000000
0FFFFFFFFFE0000000
0FFFFFFFFFE0000000
0FFFFFFFFFE0000000
0FFFFFFFFFE0000000
0FFFFFFFFFE0000000
007FFC000000000000
007FFC000000000000
007FFC000000000000
007FFC000000000000
007FFC000000000000
007FFC000000000000
007FFC000000000000
007FFC000000000000
007FFC000000000000
007FFC000000000000
007FFC000000000000
007FFC000000000000
007FFC000000000000
007FFC000000000000
007FFC000000000000
007FFC000000000000
007FFC000000000000
007FFC000000000000
007FFC000000000000
007FFC000000000000
007FFC000000000000
FFFFFFFFFFFFFFFFE0
FFFFFFFFFFFFFFFFE0
FFFFFFFFFFFFFFFFE0
FFFFFFFFFFFFFFFFE0
FFFFFFFFFFFFFFFFE0
FFFFFFFFFFFFFFFFE0
FFFFFFFFFFFFFFFFE0
FFFFFFFFFFFFFFFFE0
FFFFFFFFFFFFFFFFE0
FFFFFFFFFFFFFFFFE0
FFFFFFFFFFFFFFFFE0
FFFFFFFFFFFFFFFFE0
FFFFFFFFFFFFFFFFE0
ENDCHAR
STARTCHAR yen
ENCODING 165
SWIDTH 787 0
DWIDTH 82 0
BBX 77 76 2 0
BITMAP
FFFF000000000007FFF8
7FFF800000000007FFF0
3FFF80000000000FFFF0
3FFFC0000000001FFFE0
1FFFE0000000001FFFC0
0FFFE0000000003FFFC0
0FFFF0000000003FFF80
07FFF8000000007FFF00
03FFF800000000FFFF00
03FFFC00000000FFFE00
01FFFC00000001FFFC00
00FFFE00000001FFFC00
00FFFF00000003FFF800
007FFF00000007FFF000
003FFF80000007FFF000
003FFFC000000FFFE000
001FFFC000001FFFC000
000FFFE000001FFFC000
000FFFF000003FFF8000
0007FFF000003FFF0000
0003FFF800007FFF0000
0003FFFC0000FFFE0000
0001FFFC0000FFFC0000
0000FFFE0001FFFC0000
0000FFFE0003FFF80000
00007FFF0003FFF00000
00003FFF8007FFF00000
00003FFF8007FFE00000
00001FFFC00FFFE00000
00000FFFE01FFFC00000
00000FFFE01FFF800000
000007FFF03FFF800000
000003FFF83FFF000000
000003FFF87FFE000000
000001FFFCFFFE000000
000000FFFCFFFC000000
000000FFFFFFF8000000
0000007FFFFFF8000000
0000003FFFFFF0000000
0000003FFFFFE0000000
0000001FFFFFE0000000
001FFFFFFFFFFFFFE000
001FFFFFFFFFFFFFE000
001FFFFFFFFFFFFFE000
001FFFFFFFFFFFFFE000
001FFFFFFFFFFFFFE000
001FFFFFFFFFFFFFE000
001FFFFFFFFFFFFFE000
001FFFFFFFFFFFFFE000
001FFFFFFFFFFFFFE000
000000007FF800000000
000000007FF800000000
000000007FF800000000
000000007FF800000000
000000007FF800000000
000000007FF800000000
000000007FF800000000
000000007FF800000000
000000007FF800000000
001FFFFFFFFFFFFFE000
001FFFFFFFFFFFFFE000
001FFFFFFFFFFFFFE000
001FFFFFFFFFFFFFE000
001FFFFFFFFFFFFFE000
001FFFFFFFFFFFFFE000
001FFFFFFFFFFFFFE000
001FFFFFFFFFFFFFE000
001FFFFFFFFFFFFFE000
000000007FF800000000
000000007FF800000000
000000007FF800000000
000000007FF800000000
000000007FF800000000
000000007FF800000000
000000007FF800000000
000000007FF800000000
ENDCHAR
STARTCHAR brokenbar
ENCODING 166
SWIDTH 297 0
DWIDTH 31 0
BBX 7 95 12 -9
BITMAP
FE
FE
FE
FE
FE
FE
FE
FE
FE
FE
FE
FE
FE
FE
FE
FE
FE
FE
FE
FE
FE
FE
FE
FE
FE
FE
FE
FE
FE
FE
FE
FE
FE
FE
FE
FE
FE
FE
FE
FE
FE
FE
00
00
00
00
00
00
00
00
00
00
00
FE
FE
FE
FE
FE
FE
FE
FE
FE
FE
FE
FE
FE
FE
FE
FE
FE
FE
FE
FE
FE
FE
FE
FE
FE
FE
FE
FE
FE
FE
FE
FE
FE
FE
FE
FE
FE
FE
FE
FE
FE
FE
ENDCHAR
STARTCHAR section
ENCODING 167
SWIDTH 773 0
DWIDTH 80 0
BBX 69 98 5 -22
BITMAP
0000FFFFFFFFFFF800
0007FFFFFFFFFFF800
003FFFFFFFFFFFF800
007FFFFFFFFFFFF800
01FFFFFFFFFFFFF800
03FFFFFFFFFFFFF800
07FFFFFFFFFFFFF800
0FFFFFFFFFFFFFF800
0FFFFFFFFFFFFFF800
1FFFFFFFFFFFFFF800
3FFFFFFFFFFFFFF800
3FFFFFFFFFFFFFF800
7FFFFFFFFFFFFFF800
7FFFF0000000000000
7FFF80000000000000
7FFE00000000000000
FFFC00000000000000
FFFC00000000000000
FFF800000000000000
FFF800000000000000
FFF800000000000000
FFF800000000000000
FFF800000000000000
FFF800000000000000
FFF800000000000000
7FF800000000000000
7FFC00000000000000
7FFC00000000000000
3FFE00000000000000
3FFF00000000000000
3FFFC0000000000000
1FFFFFFFFFFFF80000
0FFFFFFFFFFFFF8000
0FFFFFFFFFFFFFE000
07FFFFFFFFFFFFF000
03FFFFFFFFFFFFF800
00FFFFFFFFFFFFFC00
007FFFFFFFFFFFFE00
007FFFFFFFFFFFFE00
00FFFFFFFFFFFFFF00
01FFFFFFFFFFFFFF00
03FFF00000007FFF80
07FFC00000001FFF80
07FF800000000FFF80
07FF0000000007FF80
0FFF0000000007FFC0
0FFF0000000003FFC0
0FFE0000000003FFC0
0FFE0000000003FFC0
0FFE0000000003FFC0
0FFE0000000003FF80
0FFF0000000003FF80
0FFF0000000007FF80
0FFF0000000007FF80
0FFF800000000FFF00
0FFFC00000001FFF00
07FFF80000007FFE00
07FFFFFFFFFFFFFE00
07FFFFFFFFFFFFFC00
03FFFFFFFFFFFFF800
03FFFFFFFFFFFFE000
01FFFFFFFFFFFFF800
00FFFFFFFFFFFFFE00
007FFFFFFFFFFFFF00
001FFFFFFFFFFFFF80
0007FFFFFFFFFFFF80
0000FFFFFFFFFFFFC0
0000000000001FFFE0
00000000000007FFE0
00000000000003FFF0
00000000000001FFF0
00000000000000FFF8
00000000000000FFF8
00000000000000FFF8
000000000000007FF8
000000000000007FF8
000000000000007FF8
000000000000007FF8
00000000000000FFF8
00000000000000FFF8
00000000000000FFF8
00000000000001FFF8
00000000000003FFF8
0000000000000FFFF8
0000000000003FFFF0
00FFFFFFFFFFFFFFF0
00FFFFFFFFFFFFFFF0
00FFFFFFFFFFFFFFE0
00FFFFFFFFFFFFFFE0
00FFFFFFFFFFFFFFC0
00FFFFFFFFFFFFFF80
00FFFFFFFFFFFFFF80
00FFFFFFFFFFFFFF00
00FFFFFFFFFFFFFC00
00FFFFFFFFFFFFF800
00FFFFFFFFFFFFE000
00FFFFFFFFFFFFC000
00FFFFFFFFFFFE0000
ENDCHAR
STARTCHAR dieresis
ENCODING 168
SWIDTH 393 0
DWIDTH 41 0
BBX 29 9 6 84
BITMAP
3E0007E0
7F800FF0
FFC01FF8
FFC01FF8
FFC01FF8
FFC01FF8
FFC01FF8
7F800FF0
3E0007E0
ENDCHAR
STARTCHAR copyright
ENCODING 169
SWIDTH 829 0
DWIDTH 86 0
BBX 78 78 4 -2
BITMAP
000000007FF800000000
0000000FFFFFC0000000
0000007FFFFFF8000000
000001FF8007FE000000
000007F800007F800000
00001FC000000FE00000
00003F00000003F80000
0000FC00000000FC0000
0001F0000000003E0000
0003E0000000000F8000
0007C00000000007C000
000F000000000003E000
001E000000000001F000
003C000000000000F800
00780000000000007800
00F00000000000003C00
01F00000000000001E00
01E00000000000000F00
03C00000000000000F00
03C00000000000000780
07800000000000000780
0F0000003FFFE00003C0
0F000003FFFFE00001C0
0E00000FFFFFE00001E0
1E00001FFFFFE00000E0
1E00007FFFFFE00000F0
3C0000FFE000000000F0
3C0001FF000000000070
380001FC000000000070
780003F8000000000078
780007F0000000000038
780007E0000000000038
780007E0000000000038
70000FC0000000000038
70000FC000000000003C
F0000F8000000000003C
F0000F8000000000003C
F0000F8000000000003C
F0001F8000000000003C
F0000F8000000000003C
F0000F8000000000003C
F0000F8000000000003C
70000F8000000000003C
70000FC000000000003C
78000FC0000000000038
780007E0000000000038
780007E0000000000038
780003F0000000000078
380003F8000000000078
3C0001FC000000000070
3C0000FF0000000000F0
3C00007FE000000000F0
1E00003FFFFFE00000E0
1E00001FFFFFE00001E0
0F000007FFFFE00001E0
0F000001FFFFE00003C0
078000003FFFE00003C0
07800000000000000780
03C00000000000000F80
03E00000000000000F00
01F00000000000001E00
00F00000000000003E00
00F80000000000007C00
007C000000000000F800
003E000000000001F000
001F000000000003F000
000FC00000000007E000
0007E0000000000FC000
0003F0000000003F0000
0001FC00000000FE0000
0000FF00000001FC0000
00003FC000000FF00000
00001FF800003FE00000
000007FF8007FF800000
000001FFFFFFFE000000
0000007FFFFFF8000000
0000000FFFFFC0000000
000000007FF800000000
ENDCHAR
STARTCHAR ordfeminine
ENCODING 170
SWIDTH 604 0
DWIDTH 63 0
BBX 55 43 4 31
BITMAP
00000078000000
000000FC000000
000000FE000000
000001FF000000
000001FF000000
000003FF800000
000007FF800000
000007FFC00000
00000FFFE00000
00000FFFE00000
00001FFFF00000
00003FCFF00000
00003FCFF80000
00007F87FC0000
00007F83FC0000
0000FF03FE0000
0001FE01FE0000
0001FE01FF0000
0003FC00FF8000
0003FC007F8000
0007F8007FC000
000FF8003FC000
000FF0003FE000
001FE0001FF000
001FE0001FF000
003FC0000FF800
007FC1FFFFF800
007F81FFFFFC00
00FF03FFFFFE00
00FF03FFFFFE00
01FE07FFFFFF00
03FE0FFFFFFF00
03FC000000FF80
07F80000007F80
07F80000007FC0
0FF00000003FE0
0FF00000001FE0
1FE00000001FF0
3FE00000000FF0
3FC00000000FF8
7F8000000007FC
7F8000000003FC
FF0000000003FE
ENDCHAR
STARTCHAR guillemotleft
ENCODING 171
SWIDTH 629 0
DWIDTH 65 0
BBX 57 39 4 19
BITMAP
0000000400000080
0000001C00000380
0000007C00000F80
000000FC00001F80
000003FC00007F80
00000FFC0001FF80
00001FFC0003FF80
00007FF0000FFE00
0001FFC0003FF800
0003FF00007FF000
000FFE0001FFC000
003FF80007FF0000
007FE0000FFC0000
01FF80003FF80000
07FF0000FFE00000
0FFC0001FF800000
3FF00007FE000000
7FC0000FFC000000
FF80000FF0000000
FF00000FE0000000
7F80000FF8000000
3FE00007FC000000
1FF80003FF000000
07FC0000FFC00000
01FF00003FE00000
00FFC0001FF80000
003FF00007FE0000
001FF80001FF8000
0007FE0000FFC000
0001FF80003FF000
0000FFC0000FFC00
00003FF00007FE00
00000FFC0001FF80
000007FC00007F80
000001FC00003F80
0000007C00000F80
0000003C00000380
0000000C00000180
0000000400000080
ENDCHAR
STARTCHAR registered
ENCODING 174
SWIDTH 585 0
DWIDTH 61 0
BBX 47 48 7 28
BITMAP
00003FF00000
0001FFFF0000
0007FFFFC000
001FFFFFF000
007FE00FF800
00FF0001FE00
01FC00007F00
03F000001F80
07E000000FC0
0FC0000007C0
0F80000003E0
1F00000001F0
3E00000000F0
3C07FFFC00F8
7C07FFFF0078
7807FFFF807C
7807FFFFC03C
F0070007C03C
F0070003C01E
F0070001E01E
F0070001E01E
E0070001E01E
E0070001E01E
E0070003C01E
E0070007C01E
E00707FF801E
E00707FF001E
E00707FE001E
F007001F001E
F007000F801E
F0070007C03C
78070003E03C
78070001F83C
7C0000000078
3C00000000F8
3E00000000F0
1F00000001F0
0F00000003E0
0F80000007C0
07E000000FC0
03F000001F80
01FC00007F00
00FF0001FE00
007FE00FF800
001FFFFFF000
0007FFFFC000
0001FFFF0000
00003FF00000
ENDCHAR
STARTCHAR macron
ENCODING 175
SWIDTH 362 0
DWIDTH 38 0
BBX 26 6 6 85
BITMAP
FFFFFFC0
FFFFFFC0
FFFFFFC0
FFFFFFC0
FFFFFFC0
FFFFFFC0
ENDCHAR
STARTCHAR degree
ENCODING 176
SWIDTH 361 0
DWIDTH 38 0
BBX 29 29 4 47
BITMAP
003FF000
01FFFC00
07FFFF00
0FFFFF80
1FFFFFC0
3FFFFFE0
3FE03FF0
7F800FF0
7F0007F0
7E0003F8
7E0001F8
7C0001F8
FC0001F8
FC0001F8
FC0001F8
FC0001F8
FC0001F8
7C0001F8
7E0001F8
7E0003F8
7F0007F0
7F800FF0
3FE03FF0
3FFFFFE0
1FFFFFC0
0FFFFF80
07FFFF00
01FFFC00
003FE000
ENDCHAR
STARTCHAR plusminus
ENCODING 177
SWIDTH 690 0
DWIDTH 72 0
BBX 58 73 7 -5
BITMAP
0000007F80000000
0000007F80000000
0000007F80000000
0000007F80000000
0000007F80000000
0000007F80000000
0000007F80000000
0000007F80000000
0000007F80000000
0000007F80000000
0000007F80000000
0000007F80000000
0000007F80000000
0000007F80000000
0000007F80000000
0000007F80000000
0000007F80000000
0000007F80000000
0000007F80000000
0000007F80000000
0000007F80000000
0000007F80000000
0000007F80000000
0000007F80000000
0000007F80000000
FFFFFFFFFFFFFFC0
FFFFFFFFFFFFFFC0
FFFFFFFFFFFFFFC0
FFFFFFFFFFFFFFC0
FFFFFFFFFFFFFFC0
FFFFFFFFFFFFFFC0
FFFFFFFFFFFFFFC0
FFFFFFFFFFFFFFC0
FFFFFFFFFFFFFFC0
0000007F80000000
0000007F80000000
0000007F80000000
0000007F80000000
0000007F80000000
0000007F80000000
0000007F80000000
0000007F80000000
0000007F80000000
0000007F80000000
0000007F80000000
0000007F80000000
0000007F80000000
0000007F80000000
0000007F80000000
0000007F80000000
0000007F80000000
0000007F80000000
0000007F80000000
0000007F80000000
0000007F80000000
0000007F80000000
0000007F80000000
0000007F80000000
0000007F80000000
0000000000000000
0000000000000000
0000000000000000
0000000000000000
0000000000000000
FFFFFFFFFFFFFFC0
FFFFFFFFFFFFFFC0
FFFFFFFFFFFFFFC0
FFFFFFFFFFFFFFC0
FFFFFFFFFFFFFFC0
FFFFFFFFFFFFFFC0
FFFFFFFFFFFFFFC0
FFFFFFFFFFFFFFC0
FFFFFFFFFFFFFFC0
ENDCHAR
STARTCHAR twosuperior
ENCODING 178
SWIDTH 442 0
DWIDTH 46 0
BBX 37 38 5 39
BITMAP
FFFFFFF800
FFFFFFFF00
FFFFFFFF80
FFFFFFFFC0
FFFFFFFFE0
FFFFFFFFE0
FFFFFFFFF0
0000000FF0
00000007F0
00000003F8
00000003F8
00000003F8
00000003F8
00000003F0
00000007F0
0000001FF0
01FFFFFFE0
0FFFFFFFE0
1FFFFFFFC0
3FFFFFFF80
7FFFFFFF00
7FFFFFF800
FF00000000
FE00000000
FC00000000
FC00000000
FC00000000
FC00000000
FC00000000
FC00000000
FC00000000
FFFFFFFFF0
FFFFFFFFF0
FFFFFFFFF0
FFFFFFFFF0
FFFFFFFFF0
FFFFFFFFF0
FFFFFFFFF0
ENDCHAR
STARTCHAR threesuperior
ENCODING 179
SWIDTH 443 0
DWIDTH 46 0
BBX 38 38 4 39
BITMAP
FFFFFFF800
FFFFFFFF00
FFFFFFFFC0
FFFFFFFFE0
FFFFFFFFF0
FFFFFFFFF0
FFFFFFFFF8
0000000FF8
00000003F8
00000003F8
00000001F8
00000001F8
00000001F8
00000003F8
00000003F0
0000000FF0
007FFFFFE0
007FFFFFC0
007FFFFF80
007FFFFFE0
007FFFFFF0
007FFFFFF8
00000007F8
00000003FC
00000001FC
00000001FC
00000001FC
00000001FC
00000001FC
00000003FC
0000000FF8
FFFFFFFFF8
FFFFFFFFF8
FFFFFFFFF0
FFFFFFFFE0
FFFFFFFFC0
FFFFFFFF00
FFFFFFFC00
ENDCHAR
STARTCHAR acute
ENCODING 180
SWIDTH 362 0
DWIDTH 38 0
BBX 26 14 6 81
BITMAP
00000040
000003C0
00001FC0
0001FFC0
000FFFC0
007FFFC0
03FFFFC0
3FFFFFC0
FFFFFFC0
FFFFFC00
FFFF8000
FFF00000
FF000000
E0000000
ENDCHAR
STARTCHAR paragraph
ENCODING 182
SWIDTH 629 0
DWIDTH 65 0
BBX 54 86 5 -10
BITMAP
000FFFFFFFFFFC
007FFFFFFFFFFC
01FFFFFFFFFFFC
07FFFFFFFFFFFC
0FFFFFFFFFFFFC
1FFFFFFFFFFFFC
1FFFFFFFFFFFFC
3FFFFFFFFFFFFC
7FFFFFFF0003FC
7FFFFFFF0003FC
7FFFFFFF0003FC
FFFFFFFF0003FC
FFFFFFFF0003FC
FFFFFFFF0003FC
FFFFFFFF0003FC
FFFFFFFF0003FC
FFFFFFFF0003FC
FFFFFFFF0003FC
FFFFFFFF0003FC
FFFFFFFF0003FC
FFFFFFFF0003FC
FFFFFFFF0003FC
FFFFFFFF0003FC
7FFFFFFF0003FC
7FFFFFFF0003FC
7FFFFFFF0003FC
3FFFFFFF0003FC
1FFFFFFF0003FC
1FFFFFFF0003FC
0FFFFFFF0003FC
07FFFFFF0003FC
01FFFFFF0003FC
007FFFFF0003FC
001FFFFF0003FC
000000FF0003FC
000000FF0003FC
000000FF0003FC
000000FF0003FC
000000FF0003FC
000000FF0003FC
000000FF0003FC
000000FF0003FC
000000FF0003FC
000000FF0003FC
000000FF0003FC
000000FF0003FC
000000FF0003FC
000000FF0003FC
000000FF0003FC
000000FF0003FC
000000FF0003FC
000000FF0003FC
000000FF0003FC
000000FF0003FC
000000FF0003FC
000000FF0003FC
000000FF0003FC
000000FF0003FC
000000FF0003FC
000000FF0003FC
000000FF0003FC
000000FF0003FC
000000FF0003FC
000000FF0003FC
000000FF0003FC
000000FF0003FC
000000FF0003FC
000000FF0003FC
000000FF0003FC
000000FF0003FC
000000FF0003FC
000000FF0003FC
000000FF0003FC
000000FF0003FC
000000FF0003FC
000000FF0003FC
000000FF0003FC
000000FF0003FC
000000FF0003FC
000000FF0003FC
000000FF0003FC
000000FF0003FC
000000FF0003FC
000000FF0003FC
000000FF0003FC
000000FF0003FC
ENDCHAR
STARTCHAR periodcentered
ENCODING 183
SWIDTH 262 0
DWIDTH 27 0
BBX 14 14 7 31
BITMAP
0F80
3FE0
7FF0
FFF8
FFF8
FFFC
FFFC
FFFC
FFFC
FFF8
FFF8
7FF0
3FE0
0F80
ENDCHAR
STARTCHAR cedilla
ENCODING 184
SWIDTH 219 0
DWIDTH 23 0
BBX 14 16 4 -21
BITMAP
FFFC
7FFC
3FF8
3FF8
3FF0
1FF0
1FF0
0FE0
0FE0
07C0
07C0
0780
0380
0300
0100
0100
ENDCHAR
STARTCHAR onesuperior
ENCODING 185
SWIDTH 222 0
DWIDTH 23 0
BBX 15 39 3 38
BITMAP
FF00
FFC0
FFE0
FFF0
FFF8
FFFC
FFFC
03FE
01FE
00FE
00FE
007E
007E
007E
007E
007E
007E
007E
007E
007E
007E
007E
007E
007E
007E
007E
007E
007E
007E
007E
007E
007E
007E
007E
007E
007E
007E
007E
007E
ENDCHAR
STARTCHAR ordmasculine
ENCODING 186
SWIDTH 592 0
DWIDTH 62 0
BBX 50 42 6 31
BITMAP
0001FFFFE00000
000FFFFFFC0000
007FFFFFFF0000
00FFFFFFFFC000
03FFFFFFFFE000
07FFFFFFFFF000
0FFFFFFFFFF800
0FFF00007FFC00
1FFC00000FFE00
3FF0000003FE00
3FE0000001FF00
7FC0000000FF00
7F80000000FF80
7F800000007F80
FF000000003F80
FF000000003FC0
FE000000003FC0
FE000000001FC0
FE000000001FC0
FE000000001FC0
FE000000001FC0
FE000000001FC0
FE000000001FC0
FE000000001FC0
FE000000001FC0
FE000000003FC0
FF000000003F80
FF000000003F80
7F800000007F80
7F80000000FF00
3FC0000000FF00
3FE0000001FF00
1FF0000003FE00
1FFC00000FFC00
0FFF00007FFC00
07FFFFFFFFF800
03FFFFFFFFF000
01FFFFFFFFE000
00FFFFFFFF8000
003FFFFFFF0000
000FFFFFFC0000
0001FFFFC00000
ENDCHAR
STARTCHAR guillemotright
ENCODING 187
SWIDTH 629 0
DWIDTH 65 0
BBX 57 39 4 19
BITMAP
C000000800000000
E000000E00000000
F800000F00000000
FE00000FC0000000
FF00000FF0000000
FFC0000FF8000000
7FF0000FFE000000
3FF80003FF800000
0FFE0001FFC00000
03FF80007FF00000
00FFC0001FFC0000
007FF00007FE0000
001FFC0003FF8000
0007FE0000FFC000
0001FF80003FF000
0000FFE0000FFC00
00003FF00007FE00
00000FF80001FF80
000003FC00007F80
000001FC00003F80
000007FC0000FF80
00001FF80003FF00
00003FE00007FC00
0000FFC0001FF800
0003FF00007FE000
000FFC0000FF8000
001FF80003FF0000
007FE0000FFC0000
01FF80003FF00000
03FF00007FE00000
0FFC0001FF800000
3FF00007FE000000
FFE0000FFC000000
FF80000FF0000000
FE00000FC0000000
FC00000F80000000
F000000E00000000
C000000800000000
8000001000000000
ENDCHAR
STARTCHAR onequarter
ENCODING 188
SWIDTH 972 0
DWIDTH 101 0
BBX 93 88 4 -7
BITMAP
000000000000000007FC0000
00000000000000000FF80000
00000000000000001FF00000
00000000000000003FE00000
007F8000000000003FC00000
007FE000000000007FC00000
007FF80000000000FF800000
007FFC0000000001FF000000
007FFC0000000003FE000000
007FFE0000000003FE000000
007FFE0000000007FC000000
0001FF000000000FF8000000
00007F000000001FF0000000
00007F000000001FE0000000
00003F000000003FE0000000
00003F000000007FC0000000
00003F00000000FF80000000
00003F00000001FF00000000
00003F00000001FF00000000
00003F00000003FE00000000
00003F00000007FC00000000
00003F0000000FF800000000
00003F0000000FF000000000
00003F0000001FF000000000
00003F0000003FE000000000
00003F0000007FC000000000
00003F000000FF8000000000
00003F000000FF8000000000
00003F000001FF0000000000
00003F000003FE0000000000
00003F000007FC0000000000
00003F00000FF80000000000
00003F00000FF80000000000
00003F00001FF00000000000
00003F00003FE00000000000
00003F00007FC00000000000
00003F00007FC00000000000
00003F0000FF800000000000
00003F0001FF000000000000
00003F0003FE000000000000
00003F0007FC000000000000
00003F0007FC000000000000
00003F000FF8000000000000
000000001FF0000000000000
000000003FE007E000007E00
000000003FE007E000007E00
000000007FC007E000007E00
00000000FF8007E000007E00
00000001FF0007E000007E00
00000003FE0007E000007E00
00000003FE0007E000007E00
00000007FC0007E000007E00
0000000FF80007E000007E00
0000001FF00007E000007E00
0000001FF00007E000007E00
0000003FE00007E000007E00
0000007FC00007E000007E00
000000FF800007E000007E00
000001FF000007E000007E00
000001FF000007E000007E00
000003FE000007E000007E00
000007FC000007E000007E00
00000FF8000007E000007E00
00001FF8000007F000007E00
00001FF0000007F000007E00
00003FE0000007FC00007E00
00007FC0000003FFFFFFFFF8
0000FF80000003FFFFFFFFF8
0000FF80000001FFFFFFFFF8
0001FF00000000FFFFFFFFF8
0003FE000000003FFFFFFFF8
0007FC0000000007FFFFFFF8
000FFC000000000000007E00
000FF8000000000000007E00
001FF0000000000000007E00
003FE0000000000000007E00
007FC0000000000000007E00
007FC0000000000000007E00
00FF80000000000000007E00
01FF00000000000000007E00
03FE00000000000000007E00
07FC00000000000000007E00
07FC00000000000000000000
0FF800000000000000000000
1FF000000000000000000000
3FE000000000000000000000
3FE000000000000000000000
FFC000000000000000000000
ENDCHAR
STARTCHAR onehalf
ENCODING 189
SWIDTH 948 0
DWIDTH 99 0
BBX 90 88 4 -7
BITMAP
000000000000000007FC0000
00000000000000000FF80000
00000000000000001FF00000
00000000000000003FE00000
007F8000000000003FC00000
007FE000000000007FC00000
007FF80000000000FF800000
007FFC0000000001FF000000
007FFC0000000003FE000000
007FFE0000000003FE000000
007FFE0000000007FC000000
0001FF000000000FF8000000
00007F000000001FF0000000
00007F000000001FE0000000
00003F000000003FE0000000
00003F000000007FC0000000
00003F00000000FF80000000
00003F00000001FF00000000
00003F00000001FF00000000
00003F00000003FE00000000
00003F00000007FC00000000
00003F0000000FF800000000
00003F0000000FF000000000
00003F0000001FF000000000
00003F0000003FE000000000
00003F0000007FC000000000
00003F000000FF8000000000
00003F000000FF8000000000
00003F000001FF0000000000
00003F000003FE0000000000
00003F000007FC0000000000
00003F00000FF80000000000
00003F00000FF80000000000
00003F00001FF00000000000
00003F00003FE00000000000
00003F00007FC00000000000
00003F00007FC00000000000
00003F0000FF800000000000
00003F0001FF000000000000
00003F0003FE000000000000
00003F0007FC000000000000
00003F0007FC000000000000
00003F000FF8000000000000
000000001FF0000000000000
000000003FE003FFFFFFE000
000000003FE003FFFFFFF800
000000007FC003FFFFFFFE00
00000000FF8003FFFFFFFF00
00000001FF0003FFFFFFFF00
00000003FE0003FFFFFFFF80
00000003FE0003FFFFFFFF80
00000007FC00000000007FC0
0000000FF800000000003FC0
0000001FF000000000001FC0
0000001FF000000000001FC0
0000003FE000000000001FC0
0000007FC000000000001FC0
000000FF8000000000001FC0
000001FF0000000000003FC0
000001FF0000000000007F80
000003FE00000007FFFFFF80
000007FC0000003FFFFFFF00
00000FF8000000FFFFFFFF00
00001FF8000001FFFFFFFC00
00001FF0000001FFFFFFF800
00003FE0000003FFFFFFE000
00007FC0000003FC00000000
0000FF80000003F000000000
0000FF80000007F000000000
0001FF00000007F000000000
0003FE00000007F000000000
0007FC00000007F000000000
000FFC00000007F000000000
000FF800000007F000000000
001FF000000007F000000000
003FE000000007FFFFFFFFC0
007FC000000007FFFFFFFFC0
007FC000000007FFFFFFFFC0
00FF8000000007FFFFFFFFC0
01FF0000000007FFFFFFFFC0
03FE0000000007FFFFFFFFC0
07FC0000000007FFFFFFFFC0
07FC00000000000000000000
0FF800000000000000000000
1FF000000000000000000000
3FE000000000000000000000
3FE000000000000000000000
FFC000000000000000000000
ENDCHAR
STARTCHAR threequarters
ENCODING 190
SWIDTH 1029 0
DWIDTH 107 0
BBX 99 88 4 -7
BITMAP
0000000000000000001FE00000
0000000000000000003FE00000
0000000000000000007FC00000
000000000000000000FF800000
FFFFFFFC0000000001FF000000
FFFFFFFF8000000001FF000000
FFFFFFFFC000000003FE000000
FFFFFFFFE000000007FC000000
FFFFFFFFF00000000FF8000000
FFFFFFFFF80000000FF0000000
FFFFFFFFF80000001FF0000000
0000000FF80000003FE0000000
00000003FC0000007FC0000000
00000001FC000000FF80000000
00000001FC000000FF80000000
00000001FC000001FF00000000
00000001F8000003FE00000000
00000001F8000007FC00000000
00000003F8000007F800000000
00000007F000000FF800000000
007FFFFFE000001FF000000000
007FFFFFC000003FE000000000
007FFFFF8000007FC000000000
007FFFFFE000007FC000000000
007FFFFFF00000FF8000000000
007FFFFFF80001FF0000000000
00000007FC0003FE0000000000
00000001FC0003FC0000000000
00000001FC0007FC0000000000
00000000FC000FF80000000000
00000000FC001FF00000000000
00000000FC003FE00000000000
00000001FC003FE00000000000
00000003FC007FC00000000000
0000000FFC00FF800000000000
FFFFFFFFFC01FF000000000000
FFFFFFFFF803FE000000000000
FFFFFFFFF003FE000000000000
FFFFFFFFF007FC000000000000
FFFFFFFFC00FF8000000000000
FFFFFFFF801FF0000000000000
FFFFFFFE001FF0000000000000
00000000003FE0000000000000
00000000007FC0000000000000
0000000000FF801F800001F800
0000000001FF001F800001F800
0000000001FF001F800001F800
0000000003FE001F800001F800
0000000007FC001F800001F800
000000000FF8001F800001F800
000000000FF8001F800001F800
000000001FF0001F800001F800
000000003FE0001F800001F800
000000007FC0001F800001F800
00000000FF80001F800001F800
00000000FF80001F800001F800
00000001FF00001F800001F800
00000003FE00001F800001F800
00000007FC00001F800001F800
00000007FC00001F800001F800
0000000FF800001F800001F800
0000001FF000001F800001F800
0000003FE000001F800001F800
0000007FC000001FC00001F800
0000007FC000001FC00001F800
000000FF8000001FF00001F800
000001FF0000000FFFFFFFFFE0
000003FE0000000FFFFFFFFFE0
000003FE00000007FFFFFFFFE0
000007FC00000003FFFFFFFFE0
00000FF800000000FFFFFFFFE0
00001FF0000000003FFFFFFFE0
00003FE000000000000001F800
00003FE000000000000001F800
00007FC000000000000001F800
0000FF8000000000000001F800
0001FF0000000000000001F800
0003FF0000000000000001F800
0003FE0000000000000001F800
0007FC0000000000000001F800
000FF80000000000000001F800
001FF00000000000000001F800
001FF000000000000000000000
003FE000000000000000000000
007FC000000000000000000000
00FF8000000000000000000000
01FF8000000000000000000000
03FF0000000000000000000000
ENDCHAR
STARTCHAR questiondown
ENCODING 191
SWIDTH 776 0
DWIDTH 81 0
BBX 73 76 3 0
BITMAP
000000000000007C0000
00000000000001FF0000
00000000000003FF8000
00000000000007FFC000
00000000000007FFC000
0000000000000FFFC000
0000000000000FFFC000
0000000000000FFFC000
0000000000000FFFC000
00000000000007FFC000
00000000000007FFC000
00000000000003FF8000
00000000000001FF0000
00000000000000FC0000
00000000000000000000
00000000000000000000
00000000000000000000
00000000000000000000
00000000000000000000
00000000000000000000
00000000000000000000
00000000000000000000
00000000000000000000
00000000000000000000
00000000000000000000
00000000000007FFC000
00000000000007FFC000
00000000000007FFC000
00000000000007FFC000
00000000000007FFC000
00000000000007FFC000
00000000000007FFC000
0000000000000FFFC000
0000000000001FFFC000
00007FFFFFFFFFFF8000
0007FFFFFFFFFFFF8000
001FFFFFFFFFFFFF8000
007FFFFFFFFFFFFF0000
00FFFFFFFFFFFFFF0000
01FFFFFFFFFFFFFE0000
07FFFFFFFFFFFFFC0000
07FFFFFFFFFFFFF80000
0FFFFFFFFFFFFFE00000
1FFFFFFFFFFFFFC00000
3FFFFFFFFFFFFC000000
3FFFE000000000000000
3FFF8000000000000000
7FFF0000000000000000
7FFE0000000000000000
7FFC0000000000000000
FFFC0000000000000000
FFFC0000000000000000
FFFC0000000000000000
FFF80000000000000000
FFF80000000000000000
FFFC0000000000000000
FFFC0000000000000000
FFFC0000000000000000
FFFC0000000000000000
FFFE0000000000000000
FFFF0000000000000000
7FFFC000000000000000
7FFFF800000000000000
7FFFFFFFFFFFFFFFFF80
3FFFFFFFFFFFFFFFFF80
3FFFFFFFFFFFFFFFFF80
1FFFFFFFFFFFFFFFFF80
0FFFFFFFFFFFFFFFFF80
0FFFFFFFFFFFFFFFFF80
07FFFFFFFFFFFFFFFF80
03FFFFFFFFFFFFFFFF80
00FFFFFFFFFFFFFFFF80
007FFFFFFFFFFFFFFF80
001FFFFFFFFFFFFFFF80
0007FFFFFFFFFFFFFF80
00007FFFFFFFFFFFFF80
ENDCHAR
STARTCHAR Agrave
ENCODING 192
SWIDTH 989 0
DWIDTH 103 0
BBX 100 95 1 0
BITMAP
00000000200000000000000000
000000003C0000000000000000
000000003F8000000000000000
000000003FF800000000000000
000000003FFF00000000000000
000000003FFFE0000000000000
000000003FFFFE000000000000
000000003FFFFFC00000000000
000000003FFFFFF80000000000
0000000003FFFFF80000000000
00000000001FFFF80000000000
000000000000FFF80000000000
0000000000000FF80000000000
00000000000000780000000000
00000000000000000000000000
00000000000000000000000000
00000000000000000000000000
00000000000000000000000000
000000000000F8000000000000
000000000003FC000000000000
000000000007FE000000000000
00000000000FFF000000000000
00000000000FFF800000000000
00000000001FFF800000000000
00000000001FFFC00000000000
00000000003FFFE00000000000
00000000007FFFE00000000000
00000000007FFFF00000000000
0000000000FFFFF00000000000
0000000000FFFFF80000000000
0000000001FFFFFC0000000000
0000000003FFFFFC0000000000
0000000003FFFFFE0000000000
0000000007FFFFFE0000000000
0000000007FFFFFF0000000000
000000000FFFFFFF8000000000
000000001FFFFFFF8000000000
000000001FFFFFFFC000000000
000000003FFF9FFFC000000000
000000003FFF1FFFE000000000
000000007FFF0FFFF000000000
00000000FFFE07FFF000000000
00000000FFFE07FFF800000000
00000001FFFC03FFF800000000
00000001FFF803FFFC00000000
00000003FFF801FFFE00000000
00000007FFF000FFFE00000000
00000007FFF000FFFF00000000
0000000FFFE0007FFF00000000
0000000FFFC0007FFF80000000
0000001FFFC0003FFFC0000000
0000003FFF80001FFFC0000000
0000003FFF80001FFFE0000000
0000007FFF00000FFFE0000000
0000007FFF00000FFFF0000000
000000FFFE000007FFF8000000
000001FFFC000003FFF8000000
000001FFFC000003FFFC000000
000003FFF8000001FFFC000000
000003FFF8000001FFFE000000
000007FFF0000000FFFF000000
00000FFFE00000007FFF000000
00000FFFE00000007FFF800000
00001FFFC00000003FFF800000
00001FFFC00000003FFFC00000
00003FFF801FFFFFFFFFE00000
00007FFF001FFFFFFFFFE00000
00007FFF003FFFFFFFFFF00000
0000FFFE003FFFFFFFFFF00000
0000FFFE007FFFFFFFFFF80000
0001FFFC00FFFFFFFFFFFC0000
0003FFF800FFFFFFFFFFFC0000
0003FFF801FFFFFFFFFFFE0000
0007FFF001FFFFFFFFFFFE0000
0007FFF003FFFFFFFFFFFF0000
000FFFE007FFFFFFFFFFFF8000
001FFFE000000000007FFF8000
001FFFC000000000003FFFC000
003FFF8000000000001FFFC000
003FFF8000000000001FFFE000
007FFF0000000000000FFFF000
007FFF0000000000000FFFF000
00FFFE00000000000007FFF800
01FFFC00000000000003FFF800
01FFFC00000000000003FFFC00
03FFF800000000000001FFFE00
03FFF800000000000001FFFE00
07FFF000000000000000FFFF00
0FFFE000000000000000FFFF00
0FFFE0000000000000007FFF80
1FFFC0000000000000003FFFC0
1FFFC0000000000000003FFFC0
3FFF80000000000000001FFFE0
7FFF00000000000000001FFFE0
FFFF00000000000000000FFFF0
ENDCHAR
STARTCHAR Aacute
ENCODING 193
SWIDTH 989 0
DWIDTH 103 0
BBX 100 95 1 0
BITMAP
00000000000000002000000000
0000000000000001E000000000
000000000000001FE000000000
00000000000000FFE000000000
00000000000007FFE000000000
0000000000003FFFE000000000
000000000003FFFFE000000000
00000000001FFFFFE000000000
0000000000FFFFFFE000000000
0000000000FFFFFC0000000000
0000000000FFFFC00000000000
0000000000FFF8000000000000
0000000000FF80000000000000
0000000000F000000000000000
00000000000000000000000000
00000000000000000000000000
00000000000000000000000000
00000000000000000000000000
000000000000F8000000000000
000000000003FC000000000000
000000000007FE000000000000
00000000000FFF000000000000
00000000000FFF800000000000
00000000001FFF800000000000
00000000001FFFC00000000000
00000000003FFFE00000000000
00000000007FFFE00000000000
00000000007FFFF00000000000
0000000000FFFFF00000000000
0000000000FFFFF80000000000
0000000001FFFFFC0000000000
0000000003FFFFFC0000000000
0000000003FFFFFE0000000000
0000000007FFFFFE0000000000
0000000007FFFFFF0000000000
000000000FFFFFFF8000000000
000000001FFFFFFF8000000000
000000001FFFFFFFC000000000
000000003FFF9FFFC000000000
000000003FFF1FFFE000000000
000000007FFF0FFFF000000000
00000000FFFE07FFF000000000
00000000FFFE07FFF800000000
00000001FFFC03FFF800000000
00000001FFF803FFFC00000000
00000003FFF801FFFE00000000
00000007FFF000FFFE00000000
00000007FFF000FFFF00000000
0000000FFFE0007FFF00000000
0000000FFFC0007FFF80000000
0000001FFFC0003FFFC0000000
0000003FFF80001FFFC0000000
0000003FFF80001FFFE0000000
0000007FFF00000FFFE0000000
0000007FFF00000FFFF0000000
000000FFFE000007FFF8000000
000001FFFC000003FFF8000000
000001FFFC000003FFFC000000
000003FFF8000001FFFC000000
000003FFF8000001FFFE000000
000007FFF0000000FFFF000000
00000FFFE00000007FFF000000
00000FFFE00000007FFF800000
00001FFFC00000003FFF800000
00001FFFC00000003FFFC00000
00003FFF801FFFFFFFFFE00000
00007FFF001FFFFFFFFFE00000
00007FFF003FFFFFFFFFF00000
0000FFFE003FFFFFFFFFF00000
0000FFFE007FFFFFFFFFF80000
0001FFFC00FFFFFFFFFFFC0000
0003FFF800FFFFFFFFFFFC0000
0003FFF801FFFFFFFFFFFE0000
0007FFF001FFFFFFFFFFFE0000
0007FFF003FFFFFFFFFFFF0000
000FFFE007FFFFFFFFFFFF8000
001FFFE000000000007FFF8000
001FFFC000000000003FFFC000
003FFF8000000000001FFFC000
003FFF8000000000001FFFE000
007FFF0000000000000FFFF000
007FFF0000000000000FFFF000
00FFFE00000000000007FFF800
01FFFC00000000000003FFF800
01FFFC00000000000003FFFC00
03FFF800000000000001FFFE00
03FFF800000000000001FFFE00
07FFF000000000000000FFFF00
0FFFE000000000000000FFFF00
0FFFE0000000000000007FFF80
1FFFC0000000000000003FFFC0
1FFFC0000000000000003FFFC0
3FFF80000000000000001FFFE0
7FFF00000000000000001FFFE0
FFFF00000000000000000FFFF0
ENDCHAR
STARTCHAR Acircumflex
ENCODING 194
SWIDTH 989 0
DWIDTH 103 0
BBX 100 95 1 0
BITMAP
000000000007FF000000000000
000000000007FF000000000000
00000000000FFF800000000000
00000000001FFFC00000000000
00000000001FDFC00000000000
00000000003F8FE00000000000
00000000007F0FF00000000000
00000000007F07F00000000000
0000000000FE03F80000000000
0000000001FC03FC0000000000
0000000001FC01FC0000000000
0000000003F800FE0000000000
0000000007F000FF0000000000
000000000FF0007F8000000000
00000000000000000000000000
00000000000000000000000000
00000000000000000000000000
00000000000000000000000000
000000000000F8000000000000
000000000003FC000000000000
000000000007FE000000000000
00000000000FFF000000000000
00000000000FFF800000000000
00000000001FFF800000000000
00000000001FFFC00000000000
00000000003FFFE00000000000
00000000007FFFE00000000000
00000000007FFFF00000000000
0000000000FFFFF00000000000
0000000000FFFFF80000000000
0000000001FFFFFC0000000000
0000000003FFFFFC0000000000
0000000003FFFFFE0000000000
0000000007FFFFFE0000000000
0000000007FFFFFF0000000000
000000000FFFFFFF8000000000
000000001FFFFFFF8000000000
000000001FFFFFFFC000000000
000000003FFF9FFFC000000000
000000003FFF1FFFE000000000
000000007FFF0FFFF000000000
00000000FFFE07FFF000000000
00000000FFFE07FFF800000000
00000001FFFC03FFF800000000
00000001FFF803FFFC00000000
00000003FFF801FFFE00000000
00000007FFF000FFFE00000000
00000007FFF000FFFF00000000
0000000FFFE0007FFF00000000
0000000FFFC0007FFF80000000
0000001FFFC0003FFFC0000000
0000003FFF80001FFFC0000000
0000003FFF80001FFFE0000000
0000007FFF00000FFFE0000000
0000007FFF00000FFFF0000000
000000FFFE000007FFF8000000
000001FFFC000003FFF8000000
000001FFFC000003FFFC000000
000003FFF8000001FFFC000000
000003FFF8000001FFFE000000
000007FFF0000000FFFF000000
00000FFFE00000007FFF000000
00000FFFE00000007FFF800000
00001FFFC00000003FFF800000
00001FFFC00000003FFFC00000
00003FFF801FFFFFFFFFE00000
00007FFF001FFFFFFFFFE00000
00007FFF003FFFFFFFFFF00000
0000FFFE003FFFFFFFFFF00000
0000FFFE007FFFFFFFFFF80000
0001FFFC00FFFFFFFFFFFC0000
0003FFF800FFFFFFFFFFFC0000
0003FFF801FFFFFFFFFFFE0000
0007FFF001FFFFFFFFFFFE0000
0007FFF003FFFFFFFFFFFF0000
000FFFE007FFFFFFFFFFFF8000
001FFFE000000000007FFF8000
001FFFC000000000003FFFC000
003FFF8000000000001FFFC000
003FFF8000000000001FFFE000
007FFF0000000000000FFFF000
007FFF0000000000000FFFF000
00FFFE00000000000007FFF800
01FFFC00000000000003FFF800
01FFFC00000000000003FFFC00
03FFF800000000000001FFFE00
03FFF800000000000001FFFE00
07FFF000000000000000FFFF00
0FFFE000000000000000FFFF00
0FFFE0000000000000007FFF80
1FFFC0000000000000003FFFC0
1FFFC0000000000000003FFFC0
3FFF80000000000000001FFFE0
7FFF00000000000000001FFFE0
FFFF00000000000000000FFFF0
ENDCHAR
STARTCHAR Atilde
ENCODING 195
SWIDTH 989 0
DWIDTH 103 0
BBX 100 93 1 0
BITMAP
00000000007E00010000000000
0000000001FF80010000000000
0000000003FFE0070000000000
0000000007FFFC1F0000000000
0000000007FFFFFF0000000000
0000000007FFFFFF0000000000
000000000781FFFF0000000000
0000000006007FFE0000000000
0000000004001FFC0000000000
00000000040003F00000000000
00000000000000000000000000
00000000000000000000000000
00000000000000000000000000
00000000000000000000000000
00000000000000000000000000
00000000000000000000000000
000000000000F8000000000000
000000000003FC000000000000
000000000007FE000000000000
00000000000FFF000000000000
00000000000FFF800000000000
00000000001FFF800000000000
00000000001FFFC00000000000
00000000003FFFE00000000000
00000000007FFFE00000000000
00000000007FFFF00000000000
0000000000FFFFF00000000000
0000000000FFFFF80000000000
0000000001FFFFFC0000000000
0000000003FFFFFC0000000000
0000000003FFFFFE0000000000
0000000007FFFFFE0000000000
0000000007FFFFFF0000000000
000000000FFFFFFF8000000000
000000001FFFFFFF8000000000
000000001FFFFFFFC000000000
000000003FFF9FFFC000000000
000000003FFF1FFFE000000000
000000007FFF0FFFF000000000
00000000FFFE07FFF000000000
00000000FFFE07FFF800000000
00000001FFFC03FFF800000000
00000001FFF803FFFC00000000
00000003FFF801FFFE00000000
00000007FFF000FFFE00000000
00000007FFF000FFFF00000000
0000000FFFE0007FFF00000000
0000000FFFC0007FFF80000000
0000001FFFC0003FFFC0000000
0000003FFF80001FFFC0000000
0000003FFF80001FFFE0000000
0000007FFF00000FFFE0000000
0000007FFF00000FFFF0000000
000000FFFE000007FFF8000000
000001FFFC000003FFF8000000
000001FFFC000003FFFC000000
000003FFF8000001FFFC000000
000003FFF8000001FFFE000000
000007FFF0000000FFFF000000
00000FFFE00000007FFF000000
00000FFFE00000007FFF800000
00001FFFC00000003FFF800000
00001FFFC00000003FFFC00000
00003FFF801FFFFFFFFFE00000
00007FFF001FFFFFFFFFE00000
00007FFF003FFFFFFFFFF00000
0000FFFE003FFFFFFFFFF00000
0000FFFE007FFFFFFFFFF80000
0001FFFC00FFFFFFFFFFFC0000
0003FFF800FFFFFFFFFFFC0000
0003FFF801FFFFFFFFFFFE0000
0007FFF001FFFFFFFFFFFE0000
0007FFF003FFFFFFFFFFFF0000
000FFFE007FFFFFFFFFFFF8000
001FFFE000000000007FFF8000
001FFFC000000000003FFFC000
003FFF8000000000001FFFC000
003FFF8000000000001FFFE000
007FFF0000000000000FFFF000
007FFF0000000000000FFFF000
00FFFE00000000000007FFF800
01FFFC00000000000003FFF800
01FFFC00000000000003FFFC00
03FFF800000000000001FFFE00
03FFF800000000000001FFFE00
07FFF000000000000000FFFF00
0FFFE000000000000000FFFF00
0FFFE0000000000000007FFF80
1FFFC0000000000000003FFFC0
1FFFC0000000000000003FFFC0
3FFF80000000000000001FFFE0
7FFF00000000000000001FFFE0
FFFF00000000000000000FFFF0
ENDCHAR
STARTCHAR Adieresis
ENCODING 196
SWIDTH 989 0
DWIDTH 103 0
BBX 100 93 1 0
BITMAP
0000000003E0007E0000000000
0000000007F800FF0000000000
000000000FFC01FF8000000000
000000000FFC01FF8000000000
000000001FFC01FF8000000000
000000000FFC01FF8000000000
000000000FFC01FF8000000000
0000000007F800FF0000000000
0000000003E0007E0000000000
00000000000000000000000000
00000000000000000000000000
00000000000000000000000000
00000000000000000000000000
00000000000000000000000000
00000000000000000000000000
00000000000000000000000000
000000000000F8000000000000
000000000003FC000000000000
000000000007FE000000000000
00000000000FFF000000000000
00000000000FFF800000000000
00000000001FFF800000000000
00000000001FFFC00000000000
00000000003FFFE00000000000
00000000007FFFE00000000000
00000000007FFFF00000000000
0000000000FFFFF00000000000
0000000000FFFFF80000000000
0000000001FFFFFC0000000000
0000000003FFFFFC0000000000
0000000003FFFFFE0000000000
0000000007FFFFFE0000000000
0000000007FFFFFF0000000000
000000000FFFFFFF8000000000
000000001FFFFFFF8000000000
000000001FFFFFFFC000000000
000000003FFF9FFFC000000000
000000003FFF1FFFE000000000
000000007FFF0FFFF000000000
00000000FFFE07FFF000000000
00000000FFFE07FFF800000000
00000001FFFC03FFF800000000
00000001FFF803FFFC00000000
00000003FFF801FFFE00000000
00000007FFF000FFFE00000000
00000007FFF000FFFF00000000
0000000FFFE0007FFF00000000
0000000FFFC0007FFF80000000
0000001FFFC0003FFFC0000000
0000003FFF80001FFFC0000000
0000003FFF80001FFFE0000000
0000007FFF00000FFFE0000000
0000007FFF00000FFFF0000000
000000FFFE000007FFF8000000
000001FFFC000003FFF8000000
000001FFFC000003FFFC000000
000003FFF8000001FFFC000000
000003FFF8000001FFFE000000
000007FFF0000000FFFF000000
00000FFFE00000007FFF000000
00000FFFE00000007FFF800000
00001FFFC00000003FFF800000
00001FFFC00000003FFFC00000
00003FFF801FFFFFFFFFE00000
00007FFF001FFFFFFFFFE00000
00007FFF003FFFFFFFFFF00000
0000FFFE003FFFFFFFFFF00000
0000FFFE007FFFFFFFFFF80000
0001FFFC00FFFFFFFFFFFC0000
0003FFF800FFFFFFFFFFFC0000
0003FFF801FFFFFFFFFFFE0000
0007FFF001FFFFFFFFFFFE0000
0007FFF003FFFFFFFFFFFF0000
000FFFE007FFFFFFFFFFFF8000
001FFFE000000000007FFF8000
001FFFC000000000003FFFC000
003FFF8000000000001FFFC000
003FFF8000000000001FFFE000
007FFF0000000000000FFFF000
007FFF0000000000000FFFF000
00FFFE00000000000007FFF800
01FFFC00000000000003FFF800
01FFFC00000000000003FFFC00
03FFF800000000000001FFFE00
03FFF800000000000001FFFE00
07FFF000000000000000FFFF00
0FFFE000000000000000FFFF00
0FFFE0000000000000007FFF80
1FFFC0000000000000003FFFC0
1FFFC0000000000000003FFFC0
3FFF80000000000000001FFFE0
7FFF00000000000000001FFFE0
FFFF00000000000000000FFFF0
ENDCHAR
STARTCHAR Aring
ENCODING 197
SWIDTH 989 0
DWIDTH 103 0
BBX 100 102 1 0
BITMAP
00000000000FFF800000000000
00000000003FFFE00000000000
0000000000FFFFF00000000000
0000000001FFFFF80000000000
0000000001F800FC0000000000
0000000003E0003E0000000000
0000000003C0003E0000000000
0000000007C0001E0000000000
000000000780001F0000000000
000000000780000F0000000000
000000000780000F0000000000
000000000780000F0000000000
000000000780001F0000000000
0000000007C0001E0000000000
0000000003C0003E0000000000
0000000003E0007C0000000000
0000000001F800FC0000000000
0000000000FFFFF80000000000
00000000007FFFF00000000000
00000000003FFFE00000000000
00000000000FFF000000000000
00000000000000000000000000
00000000000000000000000000
00000000000000000000000000
00000000000000000000000000
000000000000F8000000000000
000000000003FC000000000000
000000000007FE000000000000
00000000000FFF000000000000
00000000000FFF800000000000
00000000001FFF800000000000
00000000001FFFC00000000000
00000000003FFFE00000000000
00000000007FFFE00000000000
00000000007FFFF00000000000
0000000000FFFFF00000000000
0000000000FFFFF80000000000
0000000001FFFFFC0000000000
0000000003FFFFFC0000000000
0000000003FFFFFE0000000000
0000000007FFFFFE0000000000
0000000007FFFFFF0000000000
000000000FFFFFFF8000000000
000000001FFFFFFF8000000000
000000001FFFFFFFC000000000
000000003FFF9FFFC000000000
000000003FFF1FFFE000000000
000000007FFF0FFFF000000000
00000000FFFE07FFF000000000
00000000FFFE07FFF800000000
00000001FFFC03FFF800000000
00000001FFF803FFFC00000000
00000003FFF801FFFE00000000
00000007FFF000FFFE00000000
00000007FFF000FFFF00000000
0000000FFFE0007FFF00000000
0000000FFFC0007FFF80000000
0000001FFFC0003FFFC0000000
0000003FFF80001FFFC0000000
0000003FFF80001FFFE0000000
0000007FFF00000FFFE0000000
0000007FFF00000FFFF0000000
000000FFFE000007FFF8000000
000001FFFC000003FFF8000000
000001FFFC000003FFFC000000
000003FFF8000001FFFC000000
000003FFF8000001FFFE000000
000007FFF0000000FFFF000000
00000FFFE00000007FFF000000
00000FFFE00000007FFF800000
00001FFFC00000003FFF800000
00001FFFC00000003FFFC00000
00003FFF801FFFFFFFFFE00000
00007FFF001FFFFFFFFFE00000
00007FFF003FFFFFFFFFF00000
0000FFFE003FFFFFFFFFF00000
0000FFFE007FFFFFFFFFF80000
0001FFFC00FFFFFFFFFFFC0000
0003FFF800FFFFFFFFFFFC0000
0003FFF801FFFFFFFFFFFE0000
0007FFF001FFFFFFFFFFFE0000
0007FFF003FFFFFFFFFFFF0000
000FFFE007FFFFFFFFFFFF8000
001FFFE000000000007FFF8000
001FFFC000000000003FFFC000
003FFF8000000000001FFFC000
003FFF8000000000001FFFE000
007FFF0000000000000FFFF000
007FFF0000000000000FFFF000
00FFFE00000000000007FFF800
01FFFC00000000000003FFF800
01FFFC00000000000003FFFC00
03FFF800000000000001FFFE00
03FFF800000000000001FFFE00
07FFF000000000000000FFFF00
0FFFE000000000000000FFFF00
0FFFE0000000000000007FFF80
1FFFC0000000000000003FFFC0
1FFFC0000000000000003FFFC0
3FFF80000000000000001FFFE0
7FFF00000000000000001FFFE0
FFFF00000000000000000FFFF0
ENDCHAR
STARTCHAR AE
ENCODING 198
SWIDTH 1345 0
DWIDTH 140 0
BBX 134 76 1 0
BITMAP
000000000003FFFFFFFFFFFFFFFFFFFFFC
00000000000FFFFFFFFFFFFFFFFFFFFFFC
00000000001FFFFFFFFFFFFFFFFFFFFFFC
00000000003FFFFFFFFFFFFFFFFFFFFFFC
00000000003FFFFFFFFFFFFFFFFFFFFFFC
00000000007FFFFFFFFFFFFFFFFFFFFFFC
00000000007FFFFFFFFFFFFFFFFFFFFFFC
0000000000FFFFFFFFFFFFFFFFFFFFFFFC
0000000000FFFFFFFFFFFFFFFFFFFFFFFC
0000000001FFFFFFFFFFFFFFFFFFFFFFFC
0000000003FFFFFFFFFFFFFFFFFFFFFFFC
0000000003FFFFFFFFFFFFFFFFFFFFFFFC
0000000007FFFFFFFFFFFFFFFFFFFFFFFC
0000000007FFE00001FFF0000000000000
000000000FFFC00001FFF0000000000000
000000001FFFC00001FFF0000000000000
000000001FFF800001FFF0000000000000
000000003FFF000001FFF0000000000000
000000003FFF000001FFF0000000000000
000000007FFE000001FFF0000000000000
000000007FFE000001FFF0000000000000
00000000FFFC000001FFF0000000000000
00000001FFFC000001FFF0000000000000
00000001FFF8000001FFF0000000000000
00000003FFF8000001FFF0000000000000
00000003FFF0000001FFF0000000000000
00000007FFE0000001FFF0000000000000
00000007FFE0000001FFF0000000000000
0000000FFFC0000001FFF0000000000000
0000001FFFC0000001FFF0000000000000
0000001FFF80000001FFF0000000000000
0000003FFF80000001FFF0000000000000
0000003FFF00000001FFF003FFFFFFFFE0
0000007FFE00000001FFF003FFFFFFFFE0
000000FFFE00000001FFF003FFFFFFFFE0
000000FFFC00000001FFF003FFFFFFFFE0
000001FFFC00000001FFF003FFFFFFFFE0
000001FFF800000001FFF003FFFFFFFFE0
000003FFF800000001FFF003FFFFFFFFE0
000003FFF000000001FFF003FFFFFFFFE0
000007FFE000000001FFF003FFFFFFFFE0
00000FFFE000000001FFF003FFFFFFFFE0
00000FFFC000000001FFF003FFFFFFFFE0
00001FFFC000000001FFF0000000000000
00001FFF8000000001FFF0000000000000
00003FFF8000000001FFF0000000000000
00003FFF0000000001FFF0000000000000
00007FFE001FFFFFFFFFF0000000000000
0000FFFE003FFFFFFFFFF0000000000000
0000FFFC007FFFFFFFFFF0000000000000
0001FFFC007FFFFFFFFFF0000000000000
0001FFF800FFFFFFFFFFF0000000000000
0003FFF800FFFFFFFFFFF0000000000000
0007FFF001FFFFFFFFFFF0000000000000
0007FFF003FFFFFFFFFFF0000000000000
000FFFE003FFFFFFFFFFF0000000000000
000FFFC007FFFFFFFFFFF0000000000000
001FFFC00FFFFFFFFFFFF0000000000000
001FFF800000000001FFF0000000000000
003FFF800000000001FFF0000000000000
007FFF000000000001FFF0000000000000
007FFF000000000001FFF0000000000000
00FFFE000000000001FFF0000000000000
00FFFC000000000001FFFFFFFFFFFFFFFC
01FFFC000000000001FFFFFFFFFFFFFFFC
01FFF8000000000001FFFFFFFFFFFFFFFC
03FFF8000000000001FFFFFFFFFFFFFFFC
07FFF0000000000001FFFFFFFFFFFFFFFC
07FFF0000000000001FFFFFFFFFFFFFFFC
0FFFE0000000000001FFFFFFFFFFFFFFFC
0FFFC0000000000001FFFFFFFFFFFFFFFC
1FFFC0000000000001FFFFFFFFFFFFFFFC
3FFF80000000000001FFFFFFFFFFFFFFFC
3FFF80000000000001FFFFFFFFFFFFFFFC
7FFF00000000000001FFFFFFFFFFFFFFFC
FFFF00000000000001FFFFFFFFFFFFFFFC
ENDCHAR
STARTCHAR Ccedilla
ENCODING 199
SWIDTH 829 0
DWIDTH 86 0
BBX 78 97 4 -21
BITMAP
00000001FFFFFFFFFFFC
0000003FFFFFFFFFFFFC
000001FFFFFFFFFFFFFC
000007FFFFFFFFFFFFFC
00001FFFFFFFFFFFFFFC
00007FFFFFFFFFFFFFFC
0001FFFFFFFFFFFFFFFC
0003FFFFFFFFFFFFFFFC
0007FFFFFFFFFFFFFFFC
000FFFFFFFFFFFFFFFFC
003FFFFFFFFFFFFFFFFC
003FFFFFFFFFFFFFFFFC
007FFFFFFFFFFFFFFFFC
00FFFFFFE00000000000
01FFFFF8000000000000
03FFFFE0000000000000
03FFFF80000000000000
07FFFE00000000000000
07FFFC00000000000000
0FFFF800000000000000
0FFFF000000000000000
1FFFE000000000000000
1FFFC000000000000000
1FFFC000000000000000
3FFF8000000000000000
3FFF0000000000000000
3FFF0000000000000000
7FFF0000000000000000
7FFE0000000000000000
7FFE0000000000000000
7FFC0000000000000000
7FFC0000000000000000
7FFC0000000000000000
FFFC0000000000000000
FFFC0000000000000000
FFFC0000000000000000
FFFC0000000000000000
FFFC0000000000000000
FFFC0000000000000000
FFFC0000000000000000
FFFC0000000000000000
7FFC0000000000000000
7FFC0000000000000000
7FFC0000000000000000
7FFC0000000000000000
7FFE0000000000000000
7FFE0000000000000000
3FFE0000000000000000
3FFF0000000000000000
3FFF0000000000000000
3FFF8000000000000000
1FFF8000000000000000
1FFFC000000000000000
1FFFC000000000000000
0FFFE000000000000000
0FFFF000000000000000
07FFF800000000000000
07FFFC00000000000000
03FFFF00000000000000
01FFFF80000000000000
01FFFFE0000000000000
00FFFFF8000000000000
007FFFFFE00000000000
003FFFFFFFFFFFFFFFFC
003FFFFFFFFFFFFFFFFC
001FFFFFFFFFFFFFFFFC
000FFFFFFFFFFFFFFFFC
0003FFFFFFFFFFFFFFFC
0001FFFFFFFFFFFFFFFC
0000FFFFFFFFFFFFFFFC
00003FFFFFFFFFFFFFFC
00001FFFFFFFFFFFFFFC
000007FFFFFFFFFFFFFC
000000FFFFFFFFFFFFFC
0000003FFFFFFFFFFFFC
00000001FFFFFFFFFFFC
00000000000000000000
00000000000000000000
00000000000000000000
00000000000000000000
00000000000000000000
000000003FFF00000000
000000001FFE00000000
000000001FFE00000000
000000000FFE00000000
000000000FFC00000000
0000000007FC00000000
0000000007F800000000
0000000007F800000000
0000000003F000000000
0000000003F000000000
0000000001F000000000
0000000001E000000000
0000000000E000000000
0000000000C000000000
0000000000C000000000
00000000004000000000
ENDCHAR
STARTCHAR Egrave
ENCODING 200
SWIDTH 759 0
DWIDTH 79 0
BBX 67 95 7 0
BITMAP
000080000000000000
0000F0000000000000
0000FE000000000000
0000FFE00000000000
0000FFFC0000000000
0000FFFF8000000000
0000FFFFF800000000
0000FFFFFF00000000
0000FFFFFFE0000000
00000FFFFFE0000000
0000007FFFE0000000
00000003FFE0000000
000000003FE0000000
0000000001E0000000
000000000000000000
000000000000000000
000000000000000000
000000000000000000
000000000000000000
FFFFFFFFFFFFFFFFE0
FFFFFFFFFFFFFFFFE0
FFFFFFFFFFFFFFFFE0
FFFFFFFFFFFFFFFFE0
FFFFFFFFFFFFFFFFE0
FFFFFFFFFFFFFFFFE0
FFFFFFFFFFFFFFFFE0
FFFFFFFFFFFFFFFFE0
FFFFFFFFFFFFFFFFE0
FFFFFFFFFFFFFFFFE0
FFFFFFFFFFFFFFFFE0
FFFFFFFFFFFFFFFFE0
FFFFFFFFFFFFFFFFE0
FFF800000000000000
FFF800000000000000
FFF800000000000000
FFF800000000000000
FFF800000000000000
FFF800000000000000
FFF800000000000000
FFF800000000000000
FFF800000000000000
FFF800000000000000
FFF800000000000000
FFF800000000000000
FFF800000000000000
FFF800000000000000
FFF800000000000000
FFF800000000000000
FFF800000000000000
FFF800000000000000
FFF800000000000000
FFF803FFFFFFFFFF00
FFF803FFFFFFFFFF00
FFF803FFFFFFFFFF00
FFF803FFFFFFFFFF00
FFF803FFFFFFFFFF00
FFF803FFFFFFFFFF00
FFF803FFFFFFFFFF00
FFF803FFFFFFFFFF00
FFF803FFFFFFFFFF00
FFF803FFFFFFFFFF00
FFF803FFFFFFFFFF00
FFF800000000000000
FFF800000000000000
FFF800000000000000
FFF800000000000000
FFF800000000000000
FFF800000000000000
FFF800000000000000
FFF800000000000000
FFF800000000000000
FFF800000000000000
FFF800000000000000
FFF800000000000000
FFF800000000000000
FFF800000000000000
FFF800000000000000
FFF800000000000000
FFF800000000000000
FFF800000000000000
FFF800000000000000
FFF800000000000000
FFFFFFFFFFFFFFFFE0
FFFFFFFFFFFFFFFFE0
FFFFFFFFFFFFFFFFE0
FFFFFFFFFFFFFFFFE0
FFFFFFFFFFFFFFFFE0
FFFFFFFFFFFFFFFFE0
FFFFFFFFFFFFFFFFE0
FFFFFFFFFFFFFFFFE0
FFFFFFFFFFFFFFFFE0
FFFFFFFFFFFFFFFFE0
FFFFFFFFFFFFFFFFE0
FFFFFFFFFFFFFFFFE0
FFFFFFFFFFFFFFFFE0
ENDCHAR
STARTCHAR Eacute
ENCODING 201
SWIDTH 759 0
DWIDTH 79 0
BBX 67 95 7 0
BITMAP
000000000000800000
000000000007800000
00000000007F800000
0000000003FF800000
000000001FFF800000
00000000FFFF800000
0000000FFFFF800000
0000007FFFFF800000
000003FFFFFF800000
000003FFFFF0000000
000003FFFF00000000
000003FFE000000000
000003FE0000000000
000003C00000000000
000000000000000000
000000000000000000
000000000000000000
000000000000000000
000000000000000000
FFFFFFFFFFFFFFFFE0
FFFFFFFFFFFFFFFFE0
FFFFFFFFFFFFFFFFE0
FFFFFFFFFFFFFFFFE0
FFFFFFFFFFFFFFFFE0
FFFFFFFFFFFFFFFFE0
FFFFFFFFFFFFFFFFE0
FFFFFFFFFFFFFFFFE0
FFFFFFFFFFFFFFFFE0
FFFFFFFFFFFFFFFFE0
FFFFFFFFFFFFFFFFE0
FFFFFFFFFFFFFFFFE0
FFFFFFFFFFFFFFFFE0
FFF800000000000000
FFF800000000000000
FFF800000000000000
FFF800000000000000
FFF800000000000000
FFF800000000000000
FFF800000000000000
FFF800000000000000
FFF800000000000000
FFF800000000000000
FFF800000000000000
FFF800000000000000
FFF800000000000000
FFF800000000000000
FFF800000000000000
FFF800000000000000
FFF800000000000000
FFF800000000000000
FFF800000000000000
FFF803FFFFFFFFFF00
FFF803FFFFFFFFFF00
FFF803FFFFFFFFFF00
FFF803FFFFFFFFFF00
FFF803FFFFFFFFFF00
FFF803FFFFFFFFFF00
FFF803FFFFFFFFFF00
FFF803FFFFFFFFFF00
FFF803FFFFFFFFFF00
FFF803FFFFFFFFFF00
FFF803FFFFFFFFFF00
FFF800000000000000
FFF800000000000000
FFF800000000000000
FFF800000000000000
FFF800000000000000
FFF800000000000000
FFF800000000000000
FFF800000000000000
FFF800000000000000
FFF800000000000000
FFF800000000000000
FFF800000000000000
FFF800000000000000
FFF800000000000000
FFF800000000000000
FFF800000000000000
FFF800000000000000
FFF800000000000000
FFF800000000000000
FFF800000000000000
FFFFFFFFFFFFFFFFE0
FFFFFFFFFFFFFFFFE0
FFFFFFFFFFFFFFFFE0
FFFFFFFFFFFFFFFFE0
FFFFFFFFFFFFFFFFE0
FFFFFFFFFFFFFFFFE0
FFFFFFFFFFFFFFFFE0
FFFFFFFFFFFFFFFFE0
FFFFFFFFFFFFFFFFE0
FFFFFFFFFFFFFFFFE0
FFFFFFFFFFFFFFFFE0
FFFFFFFFFFFFFFFFE0
FFFFFFFFFFFFFFFFE0
ENDCHAR
STARTCHAR Ecircumflex
ENCODING 202
SWIDTH 759 0
DWIDTH 79 0
BBX 67 95 7 0
BITMAP
0000001FFC00000000
0000001FFC00000000
0000003FFE00000000
0000007FFF00000000
0000007F7F00000000
000000FE3F80000000
000001FC3FC0000000
000001FC1FC0000000
000003F80FE0000000
000007F00FF0000000
000007F007F0000000
00000FE003F8000000
00001FC003FC000000
00003FC001FE000000
000000000000000000
000000000000000000
000000000000000000
000000000000000000
000000000000000000
FFFFFFFFFFFFFFFFE0
FFFFFFFFFFFFFFFFE0
FFFFFFFFFFFFFFFFE0
FFFFFFFFFFFFFFFFE0
FFFFFFFFFFFFFFFFE0
FFFFFFFFFFFFFFFFE0
FFFFFFFFFFFFFFFFE0
FFFFFFFFFFFFFFFFE0
FFFFFFFFFFFFFFFFE0
FFFFFFFFFFFFFFFFE0
FFFFFFFFFFFFFFFFE0
FFFFFFFFFFFFFFFFE0
FFFFFFFFFFFFFFFFE0
FFF800000000000000
FFF800000000000000
FFF800000000000000
FFF800000000000000
FFF800000000000000
FFF800000000000000
FFF800000000000000
FFF800000000000000
FFF800000000000000
FFF800000000000000
FFF800000000000000
FFF800000000000000
FFF800000000000000
FFF800000000000000
FFF800000000000000
FFF800000000000000
FFF800000000000000
FFF800000000000000
FFF800000000000000
FFF803FFFFFFFFFF00
FFF803FFFFFFFFFF00
FFF803FFFFFFFFFF00
FFF803FFFFFFFFFF00
FFF803FFFFFFFFFF00
FFF803FFFFFFFFFF00
FFF803FFFFFFFFFF00
FFF803FFFFFFFFFF00
FFF803FFFFFFFFFF00
FFF803FFFFFFFFFF00
FFF803FFFFFFFFFF00
FFF800000000000000
FFF800000000000000
FFF800000000000000
FFF800000000000000
FFF800000000000000
FFF800000000000000
FFF800000000000000
FFF800000000000000
FFF800000000000000
FFF800000000000000
FFF800000000000000
FFF800000000000000
FFF800000000000000
FFF800000000000000
FFF800000000000000
FFF800000000000000
FFF800000000000000
FFF800000000000000
FFF800000000000000
FFF800000000000000
FFFFFFFFFFFFFFFFE0
FFFFFFFFFFFFFFFFE0
FFFFFFFFFFFFFFFFE0
FFFFFFFFFFFFFFFFE0
FFFFFFFFFFFFFFFFE0
FFFFFFFFFFFFFFFFE0
FFFFFFFFFFFFFFFFE0
FFFFFFFFFFFFFFFFE0
FFFFFFFFFFFFFFFFE0
FFFFFFFFFFFFFFFFE0
FFFFFFFFFFFFFFFFE0
FFFFFFFFFFFFFFFFE0
FFFFFFFFFFFFFFFFE0
ENDCHAR
STARTCHAR Edieresis
ENCODING 203
SWIDTH 759 0
DWIDTH 79 0
BBX 67 93 7 0
BITMAP
00000F8001F8000000
00001FE003FC000000
00003FF007FE000000
00003FF007FE000000
00003FF007FE000000
00003FF007FE000000
00003FF007FE000000
00001FE003FC000000
00000FC001F8000000
000000000000000000
000000000000000000
000000000000000000
000000000000000000
000000000000000000
000000000000000000
000000000000000000
000000000000000000
FFFFFFFFFFFFFFFFE0
FFFFFFFFFFFFFFFFE0
FFFFFFFFFFFFFFFFE0
FFFFFFFFFFFFFFFFE0
FFFFFFFFFFFFFFFFE0
FFFFFFFFFFFFFFFFE0
FFFFFFFFFFFFFFFFE0
FFFFFFFFFFFFFFFFE0
FFFFFFFFFFFFFFFFE0
FFFFFFFFFFFFFFFFE0
FFFFFFFFFFFFFFFFE0
FFFFFFFFFFFFFFFFE0
FFFFFFFFFFFFFFFFE0
FFF800000000000000
FFF800000000000000
FFF800000000000000
FFF800000000000000
FFF800000000000000
FFF800000000000000
FFF800000000000000
FFF800000000000000
FFF800000000000000
FFF800000000000000
FFF800000000000000
FFF800000000000000
FFF800000000000000
FFF800000000000000
FFF800000000000000
FFF800000000000000
FFF800000000000000
FFF800000000000000
FFF800000000000000
FFF803FFFFFFFFFF00
FFF803FFFFFFFFFF00
FFF803FFFFFFFFFF00
FFF803FFFFFFFFFF00
FFF803FFFFFFFFFF00
FFF803FFFFFFFFFF00
FFF803FFFFFFFFFF00
FFF803FFFFFFFFFF00
FFF803FFFFFFFFFF00
FFF803FFFFFFFFFF00
FFF803FFFFFFFFFF00
FFF800000000000000
FFF800000000000000
FFF800000000000000
FFF800000000000000
FFF800000000000000
FFF800000000000000
FFF800000000000000
FFF800000000000000
FFF800000000000000
FFF800000000000000
FFF800000000000000
FFF800000000000000
FFF800000000000000
FFF800000000000000
FFF800000000000000
FFF800000000000000
FFF800000000000000
FFF800000000000000
FFF800000000000000
FFF800000000000000
FFFFFFFFFFFFFFFFE0
FFFFFFFFFFFFFFFFE0
FFFFFFFFFFFFFFFFE0
FFFFFFFFFFFFFFFFE0
FFFFFFFFFFFFFFFFE0
FFFFFFFFFFFFFFFFE0
FFFFFFFFFFFFFFFFE0
FFFFFFFFFFFFFFFFE0
FFFFFFFFFFFFFFFFE0
FFFFFFFFFFFFFFFFE0
FFFFFFFFFFFFFFFFE0
FFFFFFFFFFFFFFFFE0
FFFFFFFFFFFFFFFFE0
ENDCHAR
STARTCHAR Igrave
ENCODING 204
SWIDTH 267 0
DWIDTH 28 0
BBX 26 95 -2 0
BITMAP
80000000
F0000000
FE000000
FFC00000
FFFC0000
FFFF8000
FFFFF000
FFFFFE00
FFFFFFC0
0FFFFFC0
007FFFC0
0007FFC0
00003FC0
000003C0
00000000
00000000
00000000
00000000
00000000
007FFC00
007FFC00
007FFC00
007FFC00
007FFC00
007FFC00
007FFC00
007FFC00
007FFC00
007FFC00
007FFC00
007FFC00
007FFC00
007FFC00
007FFC00
007FFC00
007FFC00
007FFC00
007FFC00
007FFC00
007FFC00
007FFC00
007FFC00
007FFC00
007FFC00
007FFC00
007FFC00
007FFC00
007FFC00
007FFC00
007FFC00
007FFC00
007FFC00
007FFC00
007FFC00
007FFC00
007FFC00
007FFC00
007FFC00
007FFC00
007FFC00
007FFC00
007FFC00
007FFC00
007FFC00
007FFC00
007FFC00
007FFC00
007FFC00
007FFC00
007FFC00
007FFC00
007FFC00
007FFC00
007FFC00
007FFC00
007FFC00
007FFC00
007FFC00
007FFC00
007FFC00
007FFC00
007FFC00
007FFC00
007FFC00
007FFC00
007FFC00
007FFC00
007FFC00
007FFC00
007FFC00
007FFC00
007FFC00
007FFC00
007FFC00
007FFC00
ENDCHAR
STARTCHAR Iacute
ENCODING 205
SWIDTH 267 0
DWIDTH 28 0
BBX 26 95 4 0
BITMAP
00000040
000003C0
00001FC0
0000FFC0
0007FFC0
007FFFC0
03FFFFC0
1FFFFFC0
FFFFFFC0
FFFFFC00
FFFF8000
FFF80000
FF000000
F0000000
00000000
00000000
00000000
00000000
00000000
1FFF0000
1FFF0000
1FFF0000
1FFF0000
1FFF0000
1FFF0000
1FFF0000
1FFF0000
1FFF0000
1FFF0000
1FFF0000
1FFF0000
1FFF0000
1FFF0000
1FFF0000
1FFF0000
1FFF0000
1FFF0000
1FFF0000
1FFF0000
1FFF0000
1FFF0000
1FFF0000
1FFF0000
1FFF0000
1FFF0000
1FFF0000
1FFF0000
1FFF0000
1FFF0000
1FFF0000
1FFF0000
1FFF0000
1FFF0000
1FFF0000
1FFF0000
1FFF0000
1FFF0000
1FFF0000
1FFF0000
1FFF0000
1FFF0000
1FFF0000
1FFF0000
1FFF0000
1FFF0000
1FFF0000
1FFF0000
1FFF0000
1FFF0000
1FFF0000
1FFF0000
1FFF0000
1FFF0000
1FFF0000
1FFF0000
1FFF0000
1FFF0000
1FFF0000
1FFF0000
1FFF0000
1FFF0000
1FFF0000
1FFF0000
1FFF0000
1FFF0000
1FFF0000
1FFF0000
1FFF0000
1FFF0000
1FFF0000
1FFF0000
1FFF0000
1FFF0000
1FFF0000
1FFF0000
ENDCHAR
STARTCHAR Icircumflex
ENCODING 206
SWIDTH 267 0
DWIDTH 28 0
BBX 28 95 0 0
BITMAP
007FE000
00FFF000
00FFF000
01FFF800
03F9FC00
03F9FC00
07F0FE00
0FE07F00
0FE07F00
1FC03F80
3F801FC0
7F801FE0
7F000FE0
FE0007F0
00000000
00000000
00000000
00000000
00000000
01FFF000
01FFF000
01FFF000
01FFF000
01FFF000
01FFF000
01FFF000
01FFF000
01FFF000
01FFF000
01FFF000
01FFF000
01FFF000
01FFF000
01FFF000
01FFF000
01FFF000
01FFF000
01FFF000
01FFF000
01FFF000
01FFF000
01FFF000
01FFF000
01FFF000
01FFF000
01FFF000
01FFF000
01FFF000
01FFF000
01FFF000
01FFF000
01FFF000
01FFF000
01FFF000
01FFF000
01FFF000
01FFF000
01FFF000
01FFF000
01FFF000
01FFF000
01FFF000
01FFF000
01FFF000
01FFF000
01FFF000
01FFF000
01FFF000
01FFF000
01FFF000
01FFF000
01FFF000
01FFF000
01FFF000
01FFF000
01FFF000
01FFF000
01FFF000
01FFF000
01FFF000
01FFF000
01FFF000
01FFF000
01FFF000
01FFF000
01FFF000
01FFF000
01FFF000
01FFF000
01FFF000
01FFF000
01FFF000
01FFF000
01FFF000
01FFF000
ENDCHAR
STARTCHAR Idieresis
ENCODING 207
SWIDTH 267 0
DWIDTH 28 0
BBX 30 93 -1 0
BITMAP
1F0003E0
7FC00FF8
FFC00FF8
FFE01FFC
FFE01FFC
FFE01FFC
FFC00FF8
7F800FF8
1F0003E0
00000000
00000000
00000000
00000000
00000000
00000000
00000000
00000000
00FFF800
00FFF800
00FFF800
00FFF800
00FFF800
00FFF800
00FFF800
00FFF800
00FFF800
00FFF800
00FFF800
00FFF800
00FFF800
00FFF800
00FFF800
00FFF800
00FFF800
00FFF800
00FFF800
00FFF800
00FFF800
00FFF800
00FFF800
00FFF800
00FFF800
00FFF800
00FFF800
00FFF800
00FFF800
00FFF800
00FFF800
00FFF800
00FFF800
00FFF800
00FFF800
00FFF800
00FFF800
00FFF800
00FFF800
00FFF800
00FFF800
00FFF800
00FFF800
00FFF800
00FFF800
00FFF800
00FFF800
00FFF800
00FFF800
00FFF800
00FFF800
00FFF800
00FFF800
00FFF800
00FFF800
00FFF800
00FFF800
00FFF800
00FFF800
00FFF800
00FFF800
00FFF800
00FFF800
00FFF800
00FFF800
00FFF800
00FFF800
00FFF800
00FFF800
00FFF800
00FFF800
00FFF800
00FFF800
00FFF800
00FFF800
00FFF800
ENDCHAR
STARTCHAR Eth
ENCODING 208
SWIDTH 877 0
DWIDTH 91 0
BBX 86 76 1 0
BITMAP
07FFFFFFFFFFFF00000000
07FFFFFFFFFFFFF0000000
07FFFFFFFFFFFFFE000000
07FFFFFFFFFFFFFFC00000
07FFFFFFFFFFFFFFF00000
07FFFFFFFFFFFFFFF80000
07FFFFFFFFFFFFFFFE0000
07FFFFFFFFFFFFFFFF0000
07FFFFFFFFFFFFFFFFC000
07FFFFFFFFFFFFFFFFE000
07FFFFFFFFFFFFFFFFF000
07FFFFFFFFFFFFFFFFF800
07FFFFFFFFFFFFFFFFFC00
07FFC00000000FFFFFFC00
07FFC0000000007FFFFE00
07FFC0000000001FFFFF00
07FFC00000000007FFFF00
07FFC00000000001FFFF80
07FFC00000000000FFFFC0
07FFC000000000007FFFC0
07FFC000000000003FFFE0
07FFC000000000001FFFE0
07FFC000000000000FFFE0
07FFC0000000000007FFF0
07FFC0000000000007FFF0
07FFC0000000000003FFF0
07FFC0000000000003FFF8
07FFC0000000000001FFF8
07FFC0000000000001FFF8
07FFC0000000000001FFF8
07FFC0000000000000FFFC
07FFC0000000000000FFFC
FFFFFFFFFFFF000000FFFC
FFFFFFFFFFFF000000FFFC
FFFFFFFFFFFF0000007FFC
FFFFFFFFFFFF0000007FFC
FFFFFFFFFFFF0000007FFC
FFFFFFFFFFFF0000007FFC
FFFFFFFFFFFF0000007FFC
FFFFFFFFFFFF0000007FFC
FFFFFFFFFFFF0000007FFC
FFFFFFFFFFFF000000FFFC
FFFFFFFFFFFF000000FFFC
07FFC0000000000000FFFC
07FFC0000000000000FFF8
07FFC0000000000000FFF8
07FFC0000000000001FFF8
07FFC0000000000001FFF8
07FFC0000000000001FFF8
07FFC0000000000003FFF0
07FFC0000000000003FFF0
07FFC0000000000007FFF0
07FFC0000000000007FFE0
07FFC000000000000FFFE0
07FFC000000000001FFFC0
07FFC000000000003FFFC0
07FFC000000000007FFFC0
07FFC00000000000FFFF80
07FFC00000000001FFFF00
07FFC00000000007FFFF00
07FFC0000000001FFFFE00
07FFC0000000007FFFFC00
07FFC00000000FFFFFFC00
07FFFFFFFFFFFFFFFFF800
07FFFFFFFFFFFFFFFFF000
07FFFFFFFFFFFFFFFFE000
07FFFFFFFFFFFFFFFFC000
07FFFFFFFFFFFFFFFF8000
07FFFFFFFFFFFFFFFF0000
07FFFFFFFFFFFFFFFC0000
07FFFFFFFFFFFFFFF80000
07FFFFFFFFFFFFFFE00000
07FFFFFFFFFFFFFF800000
07FFFFFFFFFFFFFE000000
07FFFFFFFFFFFFF0000000
07FFFFFFFFFFFE00000000
ENDCHAR
STARTCHAR Ntilde
ENCODING 209
SWIDTH 873 0
DWIDTH 91 0
BBX 79 93 6 0
BITMAP
00000003F00008000000
0000000FFC0008000000
0000003FFF0038000000
0000003FFFE0F8000000
0000003FFFFFF8000000
0000003FFFFFF8000000
0000003C0FFFF8000000
0000003003FFF0000000
0000002000FFE0000000
00000020001F80000000
00000000000000000000
00000000000000000000
00000000000000000000
00000000000000000000
00000000000000000000
00000000000000000000
00000000000000000000
0FC00000000000003FFE
1FE00000000000003FFE
3FF00000000000003FFE
7FF80000000000003FFE
7FFC0000000000003FFE
FFFE0000000000003FFE
FFFF0000000000003FFE
FFFFC000000000003FFE
FFFFE000000000003FFE
FFFFF000000000003FFE
FFFFF800000000003FFE
FFFFFC00000000003FFE
FFFFFE00000000003FFE
FFFFFF00000000003FFE
FFFFFF80000000003FFE
FFFFFFC0000000003FFE
FFFFFFE0000000003FFE
FFFFFFF0000000003FFE
FFFFFFF8000000003FFE
FFFFFFFC000000003FFE
FFFFFFFE000000003FFE
FFFFFFFF000000003FFE
FFFBFFFF800000003FFE
FFF9FFFFC00000003FFE
FFF8FFFFE00000003FFE
FFF87FFFF00000003FFE
FFF83FFFF80000003FFE
FFF81FFFFC0000003FFE
FFF80FFFFE0000003FFE
FFF807FFFF0000003FFE
FFF803FFFF8000003FFE
FFF801FFFFC000003FFE
FFF800FFFFE000003FFE
FFF8007FFFF000003FFE
FFF8003FFFF800003FFE
FFF8001FFFFC00003FFE
FFF8000FFFFE00003FFE
FFF80007FFFF00003FFE
FFF80003FFFF80003FFE
FFF80001FFFFC0003FFE
FFF80000FFFFE0003FFE
FFF800007FFFF0003FFE
FFF800001FFFF8003FFE
FFF800000FFFFC003FFE
FFF8000007FFFE003FFE
FFF8000003FFFF003FFE
FFF8000001FFFF803FFE
FFF8000000FFFFC03FFE
FFF80000007FFFE03FFE
FFF80000003FFFF03FFE
FFF80000001FFFF83FFE
FFF80000000FFFFC3FFE
FFF800000007FFFE3FFE
FFF800000003FFFF3FFE
FFF800000001FFFFBFFE
FFF800000000FFFFFFFE
FFF8000000007FFFFFFE
FFF8000000003FFFFFFE
FFF8000000001FFFFFFE
FFF8000000000FFFFFFE
FFF80000000007FFFFFE
FFF80000000003FFFFFE
FFF80000000001FFFFFE
FFF80000000000FFFFFE
FFF800000000007FFFFE
FFF800000000003FFFFE
FFF800000000001FFFFE
FFF800000000000FFFFE
FFF8000000000007FFFE
FFF8000000000003FFFC
FFF8000000000001FFFC
FFF8000000000000FFFC
FFF80000000000007FFC
FFF80000000000003FF8
FFF80000000000001FF0
FFF800000000000007E0
ENDCHAR
ENDFONT
